<?xml version="1.0" encoding="UTF-8"?>
<svg xmlns="http://www.w3.org/2000/svg" xmlns:xlink="http://www.w3.org/1999/xlink" viewBox="0 0 75 72">
  <defs>
    <linearGradient id="gmark" x1="52.67" y1="1.24" x2="25.59" y2="45.96" gradientUnits="userSpaceOnUse">
      <stop offset="0" stop-color="#c20e61"/>
      <stop offset="1" stop-color="#452f67"/>
    </linearGradient>
  </defs>
  <path fill="url(#gmark)" d="M19.68,68.23c-.33,0-.66-.02-.99-.07-2.27-.32-4.36-1.75-5.89-4.03-2.39-3.57-4.58-8.9-6.9-16.78-1.3-4.42-4.23-15.8-3.39-26.06.74-9.09,5.28-13.04,7.2-14.32,1.76-1.17,9.68-3.82,15.14.92,4.49,3.9,6.69,8.13,8.74,12.47,2.64,5.61,5.28,12.9,7.07,19.5.94,3.48,1.77,6.74,2.5,9.62.81,3.18,1.5,5.93,2.1,7.98.85,2.9,2.32,4.34,3.39,4.48,1.1.15,3.32-1.73,5.61-6.18,2.41-4.68,3.67-8.47,5.41-16.24,1.94-8.67,2.15-13.79,1.99-16.57-.19-3.38-1.48-8.02-3.3-9.94-1.28-1.35-3.42-2.85-6.37-2.36-3.11.51-5.56.91-9.3,3.35-1.24.81-2.9.45-3.7-.79-.81-1.24-.45-2.9.79-3.7,4.68-3.04,8.07-3.6,11.35-4.14,4.11-.68,8.07.73,11.13,3.96,3.36,3.54,4.58,10.03,4.76,13.31.26,4.53-.45,10.6-2.11,18.05-1.85,8.28-3.22,12.37-5.87,17.52-4.18,8.12-8.32,9.4-11.06,9.05-3.52-.46-6.46-3.55-7.84-8.29-.63-2.14-1.34-4.94-2.15-8.17-.72-2.86-1.54-6.1-2.47-9.54-1.71-6.31-4.23-13.27-6.74-18.62-2.25-4.79-4.02-7.76-7.41-10.71-3.06-2.66-8.1-.84-8.67-.5-1.25.83-4.26,3.53-4.81,10.29-.77,9.37,1.98,19.98,3.19,24.11,2.16,7.34,4.13,12.2,6.21,15.31.66.99,1.44,1.6,2.18,1.7.76.11,1.45-.32,1.9-.7,1.37-1.15,2.92-4.71,3.59-6.88.44-1.41,1.93-2.21,3.35-1.77,1.41.43,2.21,1.93,1.77,3.34-.21.69-2.14,6.78-5.26,9.4-1.53,1.29-3.32,1.97-5.11,1.97Z"/>
</svg>
