<?xml version="1.0" encoding="UTF-8"?>
<svg id="Capa_1" data-name="Capa 1" xmlns="http://www.w3.org/2000/svg" xmlns:xlink="http://www.w3.org/1999/xlink" viewBox="0 0 226.63 71.25">
  <defs>
    <style>
      .cls-1 {
        fill: #737679;
      }

      .cls-2 {
        fill: url(#Degradado_sin_nombre_5);
      }

      .cls-3 {
        fill: #452f67;
      }
    </style>
    <linearGradient id="Degradado_sin_nombre_5" data-name="Degradado sin nombre 5" x1="52.67" y1="1.24" x2="25.59" y2="45.96" gradientUnits="userSpaceOnUse">
      <stop offset="0" stop-color="#c20e61"/>
      <stop offset="1" stop-color="#452f67"/>
    </linearGradient>
  </defs>
  <path class="cls-2" d="M19.68,68.23c-.33,0-.66-.02-.99-.07-2.27-.32-4.36-1.75-5.89-4.03-2.39-3.57-4.58-8.9-6.9-16.78-1.3-4.42-4.23-15.8-3.39-26.06.74-9.09,5.28-13.04,7.2-14.32,1.76-1.17,9.68-3.82,15.14.92,4.49,3.9,6.69,8.13,8.74,12.47,2.64,5.61,5.28,12.9,7.07,19.5.94,3.48,1.77,6.74,2.5,9.62.81,3.18,1.5,5.93,2.1,7.98.85,2.9,2.32,4.34,3.39,4.48,1.1.15,3.32-1.73,5.61-6.18,2.41-4.68,3.67-8.47,5.41-16.24,1.94-8.67,2.15-13.79,1.99-16.57-.19-3.38-1.48-8.02-3.3-9.94-1.28-1.35-3.42-2.85-6.37-2.36-3.11.51-5.56.91-9.3,3.35-1.24.81-2.9.45-3.7-.79-.81-1.24-.45-2.9.79-3.7,4.68-3.04,8.07-3.6,11.35-4.14,4.11-.68,8.07.73,11.13,3.96,3.36,3.54,4.58,10.03,4.76,13.31.26,4.53-.45,10.6-2.11,18.05-1.85,8.28-3.22,12.37-5.87,17.52-4.18,8.12-8.32,9.4-11.06,9.05-3.52-.46-6.46-3.55-7.84-8.29-.63-2.14-1.34-4.94-2.15-8.17-.72-2.86-1.54-6.1-2.47-9.54-1.71-6.31-4.23-13.27-6.74-18.62-2.25-4.79-4.02-7.76-7.41-10.71-3.06-2.66-8.1-.84-8.67-.5-1.25.83-4.26,3.53-4.81,10.29-.77,9.37,1.98,19.98,3.19,24.11,2.16,7.34,4.13,12.2,6.21,15.31.66.99,1.44,1.6,2.18,1.7.76.11,1.45-.32,1.9-.7,1.37-1.15,2.92-4.71,3.59-6.88.44-1.41,1.93-2.21,3.35-1.77,1.41.43,2.21,1.93,1.77,3.34-.21.69-2.14,6.78-5.26,9.4-1.53,1.29-3.32,1.97-5.11,1.97Z"/>
  <g>
    <path class="cls-3" d="M128.69,13.37c2.11-2.15,4.63-3.01,7.52-2.92,5.53.17,9.1,3.68,9.15,9.19.06,5.35.01,10.7.01,16.04,0,.11,0,.22,0,.33-.09,1.63-.96,2.44-2.52,2.38-1.48-.05-2.28-.86-2.29-2.43-.02-5.35,0-10.7-.01-16.04,0-3.83-2.35-5.75-6.14-5.04-2.15.4-3.44,2.05-3.45,4.57-.03,5.46,0,10.92-.02,16.37,0,1.9-1.17,2.86-2.96,2.51-1.4-.28-1.82-1.22-1.81-2.54.02-4.96,0-9.92,0-14.89,0-.55.01-1.1-.02-1.65-.2-2.99-1.78-4.45-4.82-4.44-3.02,0-4.69,1.47-4.74,4.49-.1,5.51-.02,11.03-.05,16.54-.01,1.89-1.24,2.88-2.99,2.48-1.08-.24-1.77-.86-1.77-2.05,0-5.95-.09-11.91.06-17.86.1-3.79,2.87-6.78,6.69-7.63,3.77-.84,7.22-.22,10.15,2.59Z"/>
    <path class="cls-3" d="M170.17,20.15c.16-3.19-2.24-5.24-5.25-5.26-2.45-.02-4.91.44-7.36.7-.38.04-.74.23-1.12.27-1.29.15-2.32-.24-2.66-1.6-.34-1.34.22-2.35,1.52-2.7,4.03-1.11,8.13-1.63,12.26-.68,4.42,1.02,7.13,4.1,7.4,8.58.2,3.4.16,6.82,0,10.23-.19,4.09-2.51,6.77-6.27,8.09-3.6,1.26-7.28,1.17-10.85-.22-4.31-1.69-6.21-5.04-5.74-9.86.38-3.91,3.1-6.95,7.34-7.61,2.58-.4,5.25-.22,7.89-.23.91,0,1.83.18,2.84.3ZM170.41,27.53c0-1.05.12-1.69-.04-2.25-.12-.41-.59-1-.93-1.02-2.84-.12-5.71-.33-8.54-.12-2.41.18-3.78,1.77-4.07,3.89-.43,3.16,1.07,5.33,4.09,5.92,4.89.96,8.32-.39,9.12-3.6.04-.16.07-.32.09-.49.11-.93.22-1.85.28-2.34Z"/>
    <path class="cls-3" d="M96.11,10.39c1.7.06,3.66.42,5.58.86,1.66.38,2.29,1.49,1.83,2.92-.46,1.45-1.56,1.59-2.91,1.38-2-.31-4.02-.58-6.04-.68-.89-.04-1.99.12-2.67.62-.8.59-1.64,1.62-1.72,2.52-.07.82.65,2.05,1.39,2.53,1.16.75,2.63,1.05,3.98,1.49,1.88.61,3.83,1.03,5.64,1.79,2.83,1.18,4.2,3.45,4.17,6.52-.02,3.13-1.36,5.51-4.18,6.97-2.65,1.37-5.51,1.48-8.39,1.17-1.8-.2-3.59-.57-5.36-.97-1.92-.43-2.73-1.53-2.34-2.94.38-1.39,1.47-1.83,3.34-1.45,1.83.38,3.66.79,5.51,1,1.19.13,2.42.02,3.61-.15,1.69-.24,2.78-1.38,2.96-2.88.2-1.66-.41-2.75-2.26-3.35-2.14-.69-4.38-1.07-6.53-1.74-3.26-1.02-5.96-2.72-6.39-6.53-.49-4.39,1.88-7.61,6.38-8.61,1.33-.3,2.65-.47,4.39-.47Z"/>
    <path class="cls-3" d="M209.99,10.82c3.59,0,6.89,0,10.19,0,.44,0,.89-.05,1.32.04,1.2.23,1.84,1.02,1.79,2.21-.05,1.29-.79,2.02-2.12,2.03-3.03.01-6.06,0-9.09,0-.6,0-1.4,0-2.07,0,0,.45,0,.73,0,1.03,0,3.86.03,7.72.02,11.57-.02,5.46,3.46,6.9,7.83,6.34.92-.12,1.82-.43,2.73-.62,1.33-.27,2.31.21,2.72,1.52.41,1.32-.12,2.28-1.43,2.73-4.16,1.43-8.25,1.35-12.13-.85-2.81-1.59-4.23-4.2-4.32-7.37-.17-6.17-.19-12.34-.25-18.51-.02-2.26-.03-4.52,0-6.78.03-1.65.9-2.53,2.4-2.54,1.5,0,2.38.87,2.41,2.51.03,2.14,0,4.28,0,6.66Z"/>
    <path class="cls-3" d="M182.83,18.45c.59-4.08,3.25-6.52,7.17-7.54,3.06-.8,6.11-.58,9.12.39,1.43.46,1.96,1.35,1.62,2.76-.3,1.24-1.42,1.77-2.87,1.49-1.34-.26-2.69-.67-4.04-.7-4.3-.08-6.48,1.99-6.56,6.27-.1,4.85-.08,9.7-.07,14.55,0,1.39-.42,2.38-1.88,2.67-1.7.34-2.9-.6-2.93-2.39-.04-2.7-.01-5.4-.01-8.1-.05,0,0-6.3.45-9.39Z"/>
  </g>
  <g>
    <path class="cls-1" d="M131.31,54.85c.06-.07.1-.1.13-.15,1.4-2.47,5.71-2.41,7.39-.25.55.71.91,1.51.92,2.41.03,3.04.03,6.08.03,9.13,0,.24,0,.49,0,.73-.02.53-.35.86-.86.86-.53,0-.88-.35-.88-.89,0-3.07,0-6.14,0-9.21,0-.64-.11-1.25-.44-1.81-.59-.99-1.8-1.32-2.84-1.21-2.02.21-2.62,1.67-2.61,3.08.03,3.03,0,6.06.02,9.08,0,.85-.78,1.18-1.35.85-.34-.2-.43-.5-.43-.87,0-3,0-6,0-9,0-.26,0-.52-.04-.77-.25-1.74-1.67-2.52-3.31-2.36-1.66.17-2.54,1.41-2.53,3.02.02,3.06,0,6.11,0,9.17,0,.73-.67,1.15-1.3.83-.33-.17-.45-.44-.45-.81,0-1.78,0-3.56,0-5.34,0-1.32,0-2.64,0-3.96.02-2.69,1.84-4.48,4.53-4.51,1.68-.02,3.04.55,4.01,2Z"/>
    <path class="cls-1" d="M205.55,60.8c-.33,0-.44.11-.4.42.13.89.15,1.81.39,2.67.37,1.34,1.39,1.95,2.72,2.15,1.69.25,3.23-.24,4.74-.91.25-.11.54-.19.82-.21.36-.03.63.16.75.52.13.37.02.69-.28.91-.23.17-.49.3-.75.41-2.01.84-4.09,1.25-6.24.67-2.2-.59-3.48-2.04-3.76-4.3-.23-1.9-.24-3.81,0-5.71.32-2.52,1.98-4.13,4.5-4.48,1.09-.15,2.17-.13,3.23.17,2.1.59,3.29,2.01,3.62,4.12.09.59.06,1.24-.09,1.82-.26,1.02-1.21,1.7-2.26,1.73-1.16.03-2.15.03-3.31.03,0,0-2.5.01-3.66,0ZM205.14,59.23c.19,0,4.75,0,6.91,0,.73,0,1.07-.32,1.15-1.05.16-1.51-.67-2.87-2.12-3.42-1.2-.46-2.43-.45-3.65-.07-.69.21-1.24.65-1.6,1.29-.56.99-.63,2.09-.68,3.25Z"/>
    <path class="cls-1" d="M98.37,67.74c-1.45-.03-2.72-.22-4.03-.67-.09-.03-.19-.06-.28-.1-.44-.2-.65-.59-.53-1,.12-.4.53-.64.99-.55.87.18,1.72.41,2.6.57,1.02.18,2.06.2,3.06-.13,1.22-.41,1.83-1.5,1.56-2.75-.15-.67-.59-1.14-1.2-1.37-.77-.29-1.58-.46-2.37-.7-.8-.25-1.63-.45-2.38-.81-1.65-.81-2.31-2.15-2.12-4.03.14-1.4,1.23-2.62,2.83-3.05,1.81-.48,3.62-.4,5.41.14.61.19.85.59.69,1.09-.14.43-.63.62-1.18.5-.78-.16-1.56-.35-2.35-.43-.84-.09-1.68.03-2.47.39-.76.35-1.15.96-1.22,1.78-.07.84.23,1.55.97,1.91.77.38,1.61.6,2.44.87.68.22,1.38.35,2.04.6,1.89.72,2.8,2.07,2.67,3.85-.14,1.91-1.29,3.21-3.25,3.64-.63.14-1.31.26-1.91.26Z"/>
    <path class="cls-1" d="M182.24,55.7c0,2.44,0,4.88,0,7.32,0,1.11.46,2.03,1.24,2.79.16.16.35.32.47.5.16.25.24.61.14.83-.1.21-.46.42-.71.42-.31,0-.68-.15-.93-.35-1.16-.93-1.7-2.21-1.91-3.64-.07-.45-.09-.91-.09-1.37,0-4.66,0-9.33,0-13.99,0-.4.11-.71.49-.87.36-.15.74-.14.99.16.16.2.26.51.26.77.02,2.48.01,4.97.01,7.45.01,0,.02,0,.04,0Z"/>
    <g>
      <path class="cls-1" d="M161.24,49.32c0,.62-.5,1.12-1.12,1.12s-1.12-.5-1.12-1.12.5-1.12,1.12-1.12,1.12.5,1.12,1.12Z"/>
      <path class="cls-1" d="M160.99,60.26c0,2.14-.03,4.27.02,6.41.01.71-.75,1.09-1.29.82-.32-.16-.47-.39-.47-.75,0-.77,0-1.55,0-2.32,0-3.51.02-7.03-.02-10.54,0-.73.76-1.14,1.35-.81.31.18.42.44.41.79,0,2.14,0,4.27,0,6.41Z"/>
    </g>
  </g>
</svg>