<?xml version="1.0" encoding="UTF-8"?>
<svg id="Capa_1" data-name="Capa 1" xmlns="http://www.w3.org/2000/svg" viewBox="0 0 183 80">
  <defs>
    <style>
      .cls-1, .cls-2 {
        fill: #0061ac;
      }

      .cls-2 {
        fill-rule: evenodd;
      }
    </style>
  </defs>
  <path class="cls-1" d="M142.93,45.64h.02c-.14-3.76-3.23-6.79-7.04-6.79s-6.86,2.98-7.02,6.73h-.03v11.45s2.52.27,2.93-2.38v-.03l-.02-8.98h.03c.12-2.23,1.86-3.94,4.11-3.94s3.99,1.71,4.11,3.94h.01v11.39s2.52.27,2.94-2.38v-.03l-.03-8.98Z"/>
  <path class="cls-1" d="M125.36,54.28h-7.59v-5h4.71s.04,0,.04,0c2.49-.39,2.25-2.76,2.25-2.76h-7v-4.61h5.29s.04,0,.04,0c2.48-.39,2.23-2.77,2.23-2.77h-10.33s-.02,17.87-.02,17.87l8.09.02s.03,0,.04-.02c2.49-.38,2.25-2.75,2.25-2.75"/>
  <path class="cls-1" d="M172.73,54.28h-7.57v-5h4.7s.04,0,.04,0c2.48-.39,2.24-2.76,2.24-2.76h-6.99v-4.61h5.28s.03,0,.03,0c2.49-.39,2.25-2.77,2.25-2.77h-10.33s-.01,17.87-.01,17.87l8.09.02s.03,0,.03-.02c2.49-.38,2.24-2.75,2.24-2.75"/>
  <path class="cls-1" d="M88.4,45.9h.02c-.14-3.73-3.19-6.71-6.95-6.71s-6.76,2.95-6.92,6.64h-.05v11.3s2.48.26,2.9-2.36v-1.99l4.83.03h.05c2.61-.4,2.35-2.9,2.35-2.9h-7.23l-.02-4.02h.04c.12-2.2,1.84-3.89,4.06-3.89s3.95,1.68,4.07,3.89h0v11.23s2.47.26,2.89-2.36v-.03l-.02-8.85Z"/>
  <path class="cls-1" d="M100.56,54.28h-6.68v-15.13s-2.38-.24-2.76,2.26c0,.02,0,.02,0,.03v15.59s7.17.02,7.17.02c.02,0,.03,0,.04-.02,2.5-.38,2.24-2.75,2.24-2.75"/>
  <path class="cls-1" d="M112.04,54.28h-6.68v-15.13s-2.38-.24-2.77,2.26v15.62s7.17.02,7.17.02c0,0,.02,0,.03-.02,2.49-.38,2.25-2.75,2.25-2.75"/>
  <path class="cls-1" d="M150.93,39.18h-5.33s0,.01,0,.02v17.86s2.36.25,2.75-2.25t0-.04v-13.23h1.72c10.07,0,9.58,13.31,1.16,13.31h-1.83v2.22h1.65c12.94,0,12.01-17.89-.15-17.89"/>
  <path class="cls-1" d="M95.24,27.77h0c-.09-2.67-2.28-4.79-4.96-4.79s-4.84,2.1-4.95,4.74h-.03v8.08s1.77.18,2.07-1.68v-1.44s3.44.03,3.44.03h.04c1.86-.3,1.67-2.07,1.67-2.07h-5.16v-2.87h.02c.08-1.57,1.3-2.79,2.9-2.79s2.8,1.22,2.89,2.79v8.04s1.78.18,2.07-1.68c.01-.02.01-.02.01-.03v-6.33Z"/>
  <path class="cls-1" d="M157.92,24.71v.02l.04,11.02s1.72.19,2-1.67c0-.02,0-.02,0-.04v-10.98s-1.76-.22-2.05,1.65"/>
  <path class="cls-1" d="M152.4,30.25c4.63-1.03,3.71-7.44-1.46-7.39h-4.87v13.01s1.77.2,2.07-1.67c0-.02.02-9.26.02-9.26h2.78c2.87-.22,3.39,3.75-.25,3.65h-2.53l6.35,7.2c.85-.75.95-2.04.38-2.62l-2.49-2.92Z"/>
  <path class="cls-1" d="M119.52,27.77h0c-.08-2.67-2.27-4.79-4.97-4.79s-4.84,2.1-4.95,4.74h-.03v8.08s1.78.18,2.07-1.68v-1.44l3.47.03h.04c1.86-.3,1.66-2.07,1.66-2.07h-5.17v-2.87s.02,0,.02,0c.09-1.57,1.31-2.79,2.9-2.79s2.81,1.22,2.91,2.79v8.04s1.77.18,2.06-1.68v-.03l-.02-6.33Z"/>
  <path class="cls-1" d="M107.86,27.77h.01c-.11-2.67-2.29-4.79-4.96-4.79s-4.85,2.1-4.96,4.74h-.02v8.08s1.78.18,2.06-1.68c0-.02,0-.02,0-.03l-.03-6.33h.03c.08-1.57,1.32-2.79,2.91-2.79s2.81,1.22,2.9,2.79v8.04s1.77.18,2.07-1.68v-6.36Z"/>
  <path class="cls-1" d="M129.13,23.04h-7.35c-1.86.3-1.68,2.09-1.68,2.09,0,0,1.72,0,3.5-.02v10.77s1.77.19,2.06-1.67v-.04l.02-9.06c1.02,0,1.76,0,1.76,0,1.87-.29,1.68-2.06,1.68-2.06"/>
  <path class="cls-1" d="M169.15,22.93c-3.74.03-7.47,2.16-7.47,6.26,0,4.5,3.72,6.68,7.47,6.68s7.48-2.2,7.48-6.51-3.76-6.47-7.48-6.44M169.15,33.78c-2.7-.02-5.36-1.53-5.36-4.58,0-2.78,2.66-4.22,5.36-4.22,2.67-.03,5.37,1.41,5.37,4.39s-2.7,4.44-5.37,4.41"/>
  <path class="cls-1" d="M85.34,23.04h-1.72s-2.82.01-4.3,1.51c-1.44,1.29-1.23,3.31-1.23,3.31v3.09s.13,1.47-.99,2.12c-.93.53-2.11.61-2.42.63v-.02h-2.54s-.18,1.75,1.68,2.04c.36.02.63.03.86.05.39-.02,2.9-.12,4.27-1.5,1.45-1.29,1.24-3.32,1.24-3.32v-3.09s-.11-1.47.98-2.13c1.09-.6,1.36-.56,2.5-.63,1.88-.29,1.68-2.06,1.68-2.06"/>
  <path class="cls-1" d="M137.19,22.93c-3.74.03-7.47,2.16-7.47,6.26,0,4.5,3.73,6.68,7.47,6.68s7.49-2.2,7.49-6.51-3.77-6.47-7.49-6.44M137.19,33.78c-2.69-.02-5.35-1.53-5.35-4.58,0-2.78,2.65-4.22,5.35-4.22,2.67-.03,5.37,1.41,5.37,4.39s-2.7,4.44-5.37,4.41"/>
  <path class="cls-1" d="M39.35,23.82h-8.36c-8.28,0-10.36,4.74-10.36,11.99v8.45s.1,2.45-2.18,4.9c-2.23,2.46-7.04,1.98-7.04,1.98l-5.05-.25c1.27,2.94,3.79,4.61,7.9,4.61,6.86,0,13.01-4.92,12.69-12.26-.06-2.42-.06-8.45-.06-8.45-.41-8.04,5.81-4.41,10.1-6.64,2.31-1.19,2.35-4.32,2.35-4.32"/>
  <path class="cls-1" d="M39.35,23.82h-8.36c-8.28,0-10.11,4.74-10.11,11.99v8.45s.06,2.54-2.42,4.9c-2.23,2.46-7.04,1.98-7.04,1.98l-5.05-.25c1.27,2.94,3.79,4.61,7.9,4.61,6.86,0,12.75-4.92,12.44-12.26-.06-2.42-.06-8.61-.06-8.61-.4-8.03,6.06-4.26,10.35-6.49,2.31-1.19,2.35-4.32,2.35-4.32"/>
  <path class="cls-1" d="M54.46,23.66c-5.87,0-9.42,2.26-11.38,4.85-2.92,3.83-2.92,7.27-2.92,7.27v.89c-.04.25-.07.54-.06.86v4.73h-4.91s-.08-.01-.12-.01c-1.73,0-3.16,1.42-3.16,3.17s1.36,3.09,3.06,3.14v.03h5.12v4.69s0,.09,0,.12c0,1.73,1.42,3.15,3.16,3.15s3.11-1.36,3.16-3.05h.02v-4.91h4.71v-.03c1.72-.02,3.11-1.41,3.11-3.14s-1.41-3.17-3.15-3.17c-.05,0-.07.01-.12.01h-4.55v-4.88s.03-.26-.02-.59v-.82c-.03-1.18,1.19-6.74,7.91-6.74s7.89,5.59,7.89,6.52v20.48c2.68-.16,5.81-1.77,5.83-6.06v-14.32c0-1.28-.38-12.18-13.57-12.18M51.13,43.78h0c.83.04,1.5.73,1.5,1.59s-.68,1.53-1.5,1.57v.02l-6.34-.02v6.55h0c-.04.84-.72,1.52-1.58,1.52s-1.55-.68-1.58-1.52h-.01v-6.55l-6.65.02v-.02c-.84-.03-1.52-.73-1.52-1.57s.67-1.56,1.52-1.59h6.65v-6.41h.01c.04-.83.73-1.49,1.58-1.49s1.52.67,1.58,1.49h0v6.41h6.34Z"/>
  <path class="cls-2" d="M39.67,23.81h-8.34c-8.26,0-10.34,4.72-10.34,11.97v8.43s.1,2.45-2.17,4.89c-2.22,2.46-7.02,1.98-7.02,1.98l-5.04-.26c1.27,2.94,3.78,4.59,7.89,4.59,6.85,0,12.98-4.9,12.66-12.23-.06-2.41-.06-8.44-.06-8.44-.4-8.03,5.8-4.4,10.08-6.62,2.3-1.18,2.34-4.31,2.34-4.31Z"/>
</svg>