<?xml version="1.0" encoding="UTF-8"?>
<svg id="Capa_1" data-name="Capa 1" xmlns="http://www.w3.org/2000/svg" xmlns:xlink="http://www.w3.org/1999/xlink" viewBox="0 0 174 80">
  <defs>
    <style>
      .cls-1 {
        fill: none;
      }

      .cls-2 {
        clip-path: url(#clippath-1);
      }

      .cls-3 {
        fill: #fff;
      }

      .cls-4 {
        fill: #1c1c1b;
      }

      .cls-5 {
        fill: #cf1717;
      }

      .cls-6 {
        clip-path: url(#clippath);
      }
    </style>
    <clipPath id="clippath">
      <polygon class="cls-1" points="5.97 24.54 12.11 74.45 65.88 63.2 49.39 13.61 5.97 24.54"/>
    </clipPath>
    <clipPath id="clippath-1">
      <polygon class="cls-1" points="5.97 24.54 11.4 75.11 66.07 63.62 49.39 13.61 5.97 24.54"/>
    </clipPath>
  </defs>
  <g>
    <g>
      <path class="cls-4" d="M74.61,53.37h1.03l.15-1.85.73-.16v2.01h1.59v.78h-1.59v4.12c0,.63.1.96.86.96h.74v.79c-.12.01-.73.03-.83.03-1.37,0-1.66-.54-1.66-1.69v-4.2h-1.01v-.78Z"/>
      <path class="cls-4" d="M82.44,56.67c0-1.92.36-3.41,2.58-3.41s2.6,1.52,2.6,3.41-.36,3.44-2.6,3.44-2.58-1.49-2.58-3.44M86.71,56.71c0-1.47-.16-2.63-1.69-2.63s-1.7,1.16-1.7,2.63.17,2.62,1.7,2.62,1.69-1.17,1.69-2.62"/>
      <polygon class="cls-4" points="91.8 53.37 92.69 53.37 94.09 58.64 95.49 53.37 96.3 53.37 97.7 58.62 99.11 53.37 99.95 53.37 98.12 60.06 97.29 60.06 95.88 54.86 94.49 60.06 93.62 60.06 91.8 53.37"/>
      <path class="cls-4" d="M104.14,56.67c0-2.04.44-3.41,2.53-3.41,2.23,0,2.24,1.42,2.23,3.79h-3.91c.03,1.43.31,2.27,1.72,2.27.86,0,1.3-.2,1.68-.38l.35.68c-.47.26-1.08.48-2.07.48-2.17,0-2.53-1.35-2.53-3.43M105,56.23h3.08c-.04-1.32-.03-2.19-1.42-2.19-1.32,0-1.62.85-1.67,2.19"/>
      <path class="cls-4" d="M113.73,53.41l.69-.04.1.8c.25-.47.75-.86,1.86-.86v.84c-1.68.03-1.77,1.27-1.77,2.57v3.29h-.89v-6.6Z"/>
    </g>
    <g>
      <path class="cls-4" d="M74.61,38.03c0-4.87,2.98-6.07,8.62-6.07h.72c-.06-2.49-.54-3.81-3.21-3.81-1.7,0-3.13.41-4.1.9l-.94-1.8c1.24-.63,3.03-1.11,5.22-1.11,4.37,0,5.23,1.89,5.23,5.91v7.27c0,1.35.09,1.71,1.36,1.71v1.95c-.18.04-.39.04-.58.04-1.87,0-2.43-.46-2.67-1.71-1.03,1.44-2.67,1.86-4.79,1.86-3.49,0-4.86-1.83-4.86-5.13M83.96,36.56v-2.7h-.7c-4.49,0-6.52.57-6.52,3.99,0,2.7,1.18,3.46,3.15,3.46,2.09,0,4.07-.96,4.07-4.75"/>
      <path class="cls-4" d="M94.04,43.02c-2.89,0-3.56-.99-3.56-3.61v-19.52h2.21v19.28c0,1.38.06,1.86,2.07,1.86v1.95c-.13.04-.3.04-.73.04"/>
      <path class="cls-4" d="M96.22,26.44h2.55l.36-4.62,1.82-.39v5.02h3.98v1.92h-3.98v10.27c0,1.57.24,2.41,2.12,2.41h1.86v1.95c-.3.03-1.82.06-2.06.06-3.43,0-4.13-1.35-4.13-4.2v-10.48h-2.52v-1.92Z"/>
      <path class="cls-4" d="M106.6,34.67c0-4.77.88-8.5,6.43-8.5s6.47,3.78,6.47,8.5-.88,8.56-6.47,8.56-6.43-3.73-6.43-8.56M117.26,34.76c0-3.66-.39-6.55-4.22-6.55s-4.22,2.88-4.22,6.55.43,6.52,4.22,6.52,4.22-2.91,4.22-6.52"/>
      <path class="cls-4" d="M127.96,26.56l1.76-.12.19,1.83c.69-1.23,2.06-2.1,5.19-2.1,4.95,0,5.52,3.99,5.52,8.5s-.64,8.53-5.58,8.53c-2.94,0-4.13-.72-4.85-1.89v6.42h-2.22v-21.17ZM138.41,34.76c0-3.69-.45-6.55-3.91-6.55-4,0-4.31,2.88-4.31,6.55s.31,6.49,4.31,6.49c3.43,0,3.91-2.76,3.91-6.49"/>
      <path class="cls-4" d="M142.72,38.03c0-4.87,2.97-6.07,8.62-6.07h.73c-.06-2.49-.55-3.81-3.22-3.81-1.7,0-3.12.41-4.1.9l-.94-1.8c1.25-.63,3.04-1.11,5.22-1.11,4.36,0,5.22,1.89,5.22,5.91v7.27c0,1.35.09,1.71,1.36,1.71v1.95c-.18.04-.39.04-.57.04-1.88,0-2.43-.46-2.68-1.71-1.03,1.44-2.67,1.86-4.79,1.86-3.49,0-4.86-1.83-4.86-5.13M152.07,36.56v-2.7h-.69c-4.5,0-6.54.57-6.54,3.99,0,2.7,1.19,3.46,3.16,3.46,2.1,0,4.07-.96,4.07-4.75"/>
      <polygon class="cls-4" points="157.41 41.39 165.09 28.36 157.86 28.36 157.86 26.44 167.79 26.44 167.79 28.01 160.08 41.15 168.03 41.15 168.03 42.98 157.41 42.98 157.41 41.39"/>
    </g>
  </g>
  <g>
    <path class="cls-5" d="M20.72,17.53l.05-.15c1.55-4.78,5.58-8.04,10.02-8.11,3.97-.05,7.22,2.39,8.98,6.76l-20.38,5.13c.49-1.46.94-2.67,1.34-3.63M30.72,4.89c-6.32.1-12,4.55-14.15,11.09-.62,1.55-1.41,3.73-2.26,6.47l-8.2,2.06,6.01,49.94,33.16-6.93,3.48-.73,17.13-3.58L49.39,13.62l-5.28,1.33c-2.34-6.32-7.24-10.06-13.17-10.06h-.22Z"/>
    <polygon class="cls-5" points="5.97 24.54 12.11 74.45 65.88 63.2 49.39 13.62 5.97 24.54"/>
    <g class="cls-6">
      <polygon class="cls-5" points="6.94 13.62 5.97 40.83 5.97 13.62 6.94 13.62"/>
      <polygon class="cls-5" points="7.42 13.62 5.97 54.37 5.97 40.83 6.94 13.62 7.42 13.62"/>
      <polygon class="cls-5" points="7.9 13.62 5.97 67.89 5.97 54.37 7.42 13.62 7.9 13.62"/>
      <polygon class="cls-5" points="8.39 13.62 6.22 74.45 5.97 74.45 5.97 67.89 7.9 13.62 8.39 13.62"/>
      <polygon class="cls-5" points="8.87 13.62 6.7 74.45 6.22 74.45 8.39 13.62 8.87 13.62"/>
      <polygon class="cls-5" points="9.36 13.62 7.18 74.45 6.7 74.45 8.87 13.62 9.36 13.62"/>
      <polygon class="cls-5" points="9.84 13.62 7.67 74.45 7.18 74.45 9.36 13.62 9.84 13.62"/>
      <polygon class="cls-5" points="10.32 13.62 8.15 74.45 7.67 74.45 9.84 13.62 10.32 13.62"/>
      <polygon class="cls-5" points="10.81 13.62 8.64 74.45 8.15 74.45 10.32 13.62 10.81 13.62"/>
      <polygon class="cls-5" points="11.29 13.62 9.12 74.45 8.64 74.45 10.81 13.62 11.29 13.62"/>
      <polygon class="cls-5" points="11.77 13.62 9.6 74.45 9.12 74.45 11.29 13.62 11.77 13.62"/>
      <polygon class="cls-5" points="12.26 13.62 10.08 74.45 9.6 74.45 11.77 13.62 12.26 13.62"/>
      <polygon class="cls-5" points="12.74 13.62 10.56 74.45 10.08 74.45 12.26 13.62 12.74 13.62"/>
      <polygon class="cls-5" points="13.22 13.62 11.05 74.45 10.56 74.45 12.74 13.62 13.22 13.62"/>
      <polygon class="cls-5" points="13.7 13.62 11.53 74.45 11.05 74.45 13.22 13.62 13.7 13.62"/>
      <polygon class="cls-5" points="14.19 13.62 12.01 74.45 11.53 74.45 13.7 13.62 14.19 13.62"/>
      <polygon class="cls-5" points="14.67 13.62 12.49 74.45 12.01 74.45 14.19 13.62 14.67 13.62"/>
      <polygon class="cls-5" points="15.15 13.62 12.98 74.45 12.49 74.45 14.67 13.62 15.15 13.62"/>
      <polygon class="cls-5" points="15.63 13.62 13.47 74.45 12.98 74.45 15.15 13.62 15.63 13.62"/>
      <polygon class="cls-5" points="16.12 13.62 13.95 74.45 13.47 74.45 15.63 13.62 16.12 13.62"/>
      <polygon class="cls-5" points="16.6 13.62 14.43 74.45 13.95 74.45 16.12 13.62 16.6 13.62"/>
      <polygon class="cls-5" points="17.09 13.62 14.91 74.45 14.43 74.45 16.6 13.62 17.09 13.62"/>
      <polygon class="cls-5" points="17.57 13.62 15.39 74.45 14.91 74.45 17.09 13.62 17.57 13.62"/>
      <polygon class="cls-5" points="18.05 13.62 15.88 74.45 15.39 74.45 17.57 13.62 18.05 13.62"/>
      <polygon class="cls-5" points="18.54 13.62 16.37 74.45 15.88 74.45 18.05 13.62 18.54 13.62"/>
      <polygon class="cls-5" points="19.02 13.62 16.84 74.45 16.37 74.45 18.54 13.62 19.02 13.62"/>
      <polygon class="cls-5" points="19.5 13.62 17.33 74.45 16.84 74.45 19.02 13.62 19.5 13.62"/>
      <polygon class="cls-5" points="19.99 13.62 17.81 74.45 17.33 74.45 19.5 13.62 19.99 13.62"/>
      <polygon class="cls-5" points="20.47 13.62 18.3 74.45 17.81 74.45 19.99 13.62 20.47 13.62"/>
      <polygon class="cls-5" points="20.96 13.62 18.78 74.45 18.3 74.45 20.47 13.62 20.96 13.62"/>
      <polygon class="cls-5" points="21.43 13.62 19.26 74.45 18.78 74.45 20.96 13.62 21.43 13.62"/>
      <polygon class="cls-5" points="21.92 13.62 19.74 74.45 19.26 74.45 21.43 13.62 21.92 13.62"/>
      <polygon class="cls-5" points="22.4 13.62 20.23 74.45 19.74 74.45 21.92 13.62 22.4 13.62"/>
      <polygon class="cls-5" points="22.88 13.62 20.71 74.45 20.23 74.45 22.4 13.62 22.88 13.62"/>
      <polygon class="cls-5" points="23.37 13.62 21.19 74.45 20.71 74.45 22.88 13.62 23.37 13.62"/>
      <polygon class="cls-5" points="23.85 13.62 21.67 74.45 21.19 74.45 23.37 13.62 23.85 13.62"/>
      <polygon class="cls-5" points="24.33 13.62 22.16 74.45 21.67 74.45 23.85 13.62 24.33 13.62"/>
      <polygon class="cls-5" points="24.81 13.62 22.65 74.45 22.16 74.45 24.33 13.62 24.81 13.62"/>
      <polygon class="cls-5" points="25.3 13.62 23.13 74.45 22.65 74.45 24.81 13.62 25.3 13.62"/>
      <polygon class="cls-5" points="25.78 13.62 23.61 74.45 23.13 74.45 25.3 13.62 25.78 13.62"/>
      <polygon class="cls-5" points="26.26 13.62 24.1 74.45 23.61 74.45 25.78 13.62 26.26 13.62"/>
      <polygon class="cls-5" points="26.75 13.62 24.58 74.45 24.1 74.45 26.26 13.62 26.75 13.62"/>
      <polygon class="cls-5" points="27.23 13.62 25.05 74.45 24.58 74.45 26.75 13.62 27.23 13.62"/>
      <polygon class="cls-5" points="27.72 13.62 25.55 74.45 25.05 74.45 27.23 13.62 27.72 13.62"/>
      <polygon class="cls-5" points="28.19 13.62 26.02 74.45 25.55 74.45 27.72 13.62 28.19 13.62"/>
      <polygon class="cls-5" points="28.68 13.62 26.51 74.45 26.02 74.45 28.19 13.62 28.68 13.62"/>
      <polygon class="cls-5" points="29.17 13.62 26.99 74.45 26.51 74.45 28.68 13.62 29.17 13.62"/>
      <polygon class="cls-5" points="29.65 13.62 27.47 74.45 26.99 74.45 29.17 13.62 29.65 13.62"/>
      <polygon class="cls-5" points="30.13 13.62 27.96 74.45 27.47 74.45 29.65 13.62 30.13 13.62"/>
      <polygon class="cls-5" points="30.62 13.62 28.45 74.45 27.96 74.45 30.13 13.62 30.62 13.62"/>
      <polygon class="cls-5" points="31.1 13.62 28.92 74.45 28.45 74.45 30.61 13.62 31.1 13.62"/>
      <polygon class="cls-5" points="31.58 13.62 29.41 74.45 28.92 74.45 31.1 13.62 31.58 13.62"/>
      <polygon class="cls-5" points="32.06 13.62 29.89 74.45 29.41 74.45 31.58 13.62 32.06 13.62"/>
      <polygon class="cls-5" points="32.54 13.62 30.37 74.45 29.89 74.45 32.06 13.62 32.54 13.62"/>
      <polygon class="cls-5" points="33.02 13.62 30.85 74.45 30.37 74.45 32.54 13.62 33.02 13.62"/>
      <polygon class="cls-5" points="33.51 13.62 31.34 74.45 30.85 74.45 33.02 13.62 33.51 13.62"/>
      <polygon class="cls-5" points="33.99 13.62 31.82 74.45 31.34 74.45 33.51 13.62 33.99 13.62"/>
      <polygon class="cls-5" points="34.48 13.62 32.3 74.45 31.82 74.45 33.99 13.62 34.48 13.62"/>
      <polygon class="cls-5" points="34.96 13.62 32.79 74.45 32.3 74.45 34.48 13.62 34.96 13.62"/>
      <polygon class="cls-5" points="35.45 13.62 33.28 74.45 32.79 74.45 34.96 13.62 35.45 13.62"/>
      <polygon class="cls-5" points="35.93 13.62 33.76 74.45 33.28 74.45 35.45 13.62 35.93 13.62"/>
      <polygon class="cls-5" points="36.41 13.62 34.24 74.45 33.76 74.45 35.93 13.62 36.41 13.62"/>
      <polygon class="cls-5" points="36.9 13.62 34.72 74.45 34.24 74.45 36.41 13.62 36.9 13.62"/>
      <polygon class="cls-5" points="37.38 13.62 35.21 74.45 34.72 74.45 36.9 13.62 37.38 13.62"/>
      <polygon class="cls-5" points="37.86 13.62 35.69 74.45 35.21 74.45 37.37 13.62 37.86 13.62"/>
      <polygon class="cls-5" points="38.34 13.62 36.17 74.45 35.69 74.45 37.86 13.62 38.34 13.62"/>
      <polygon class="cls-5" points="38.83 13.62 36.65 74.45 36.17 74.45 38.34 13.62 38.83 13.62"/>
      <polygon class="cls-5" points="39.31 13.62 37.14 74.45 36.65 74.45 38.83 13.62 39.31 13.62"/>
      <polygon class="cls-5" points="40.12 13.62 37.95 74.45 37.14 74.45 39.31 13.62 40.12 13.62"/>
      <polygon class="cls-5" points="40.93 13.62 38.76 74.45 37.95 74.45 40.12 13.62 40.93 13.62"/>
      <polygon class="cls-5" points="41.75 13.62 39.57 74.45 38.76 74.45 40.93 13.62 41.75 13.62"/>
      <polygon class="cls-5" points="42.56 13.62 40.38 74.45 39.57 74.45 41.75 13.62 42.56 13.62"/>
      <polygon class="cls-5" points="43.37 13.62 41.19 74.45 40.38 74.45 42.56 13.62 43.37 13.62"/>
      <polygon class="cls-5" points="44.18 13.62 42.01 74.45 41.19 74.45 43.37 13.62 44.18 13.62"/>
      <polygon class="cls-5" points="44.99 13.62 42.81 74.45 42.01 74.45 44.18 13.62 44.99 13.62"/>
      <polygon class="cls-5" points="45.8 13.62 43.63 74.45 42.81 74.45 44.99 13.62 45.8 13.62"/>
      <polygon class="cls-5" points="46.61 13.62 44.44 74.45 43.63 74.45 45.8 13.62 46.61 13.62"/>
      <polygon class="cls-5" points="47.43 13.62 45.26 74.45 44.44 74.45 46.61 13.62 47.43 13.62"/>
      <polygon class="cls-5" points="48.24 13.62 46.07 74.45 45.26 74.45 47.43 13.62 48.24 13.62"/>
      <polygon class="cls-5" points="49.04 13.62 46.88 74.45 46.07 74.45 48.24 13.62 49.04 13.62"/>
      <polygon class="cls-5" points="49.86 13.62 47.69 74.45 46.88 74.45 49.04 13.62 49.86 13.62"/>
      <polygon class="cls-5" points="50.67 13.62 48.5 74.45 47.69 74.45 49.86 13.62 50.67 13.62"/>
      <polygon class="cls-5" points="51.48 13.62 49.31 74.45 48.5 74.45 50.67 13.62 51.48 13.62"/>
      <polygon class="cls-5" points="52.3 13.62 50.12 74.45 49.31 74.45 51.48 13.62 52.3 13.62"/>
      <polygon class="cls-5" points="53.11 13.62 50.93 74.45 50.12 74.45 52.3 13.62 53.11 13.62"/>
      <polygon class="cls-5" points="53.91 13.62 51.74 74.45 50.93 74.45 53.11 13.62 53.91 13.62"/>
      <polygon class="cls-5" points="54.73 13.62 52.56 74.45 51.74 74.45 53.91 13.62 54.73 13.62"/>
      <polygon class="cls-5" points="55.54 13.62 53.38 74.45 52.56 74.45 54.73 13.62 55.54 13.62"/>
      <polygon class="cls-5" points="56.35 13.62 54.18 74.45 53.38 74.45 55.54 13.62 56.35 13.62"/>
      <polygon class="cls-5" points="57.16 13.62 54.99 74.45 54.18 74.45 56.35 13.62 57.16 13.62"/>
      <polygon class="cls-5" points="57.97 13.62 55.81 74.45 54.99 74.45 57.16 13.62 57.97 13.62"/>
      <polygon class="cls-5" points="58.79 13.62 56.62 74.45 55.81 74.45 57.97 13.62 58.79 13.62"/>
      <polygon class="cls-5" points="59.6 13.62 57.42 74.45 56.62 74.45 58.79 13.62 59.6 13.62"/>
      <polygon class="cls-5" points="60.41 13.62 58.24 74.45 57.42 74.45 59.6 13.62 60.41 13.62"/>
      <polygon class="cls-5" points="61.22 13.62 59.05 74.45 58.24 74.45 60.41 13.62 61.22 13.62"/>
      <polygon class="cls-5" points="62.03 13.62 59.86 74.45 59.05 74.45 61.22 13.62 62.03 13.62"/>
      <polygon class="cls-5" points="62.84 13.62 60.67 74.45 59.86 74.45 62.03 13.62 62.84 13.62"/>
      <polygon class="cls-5" points="63.66 13.62 61.49 74.45 60.67 74.45 62.84 13.62 63.66 13.62"/>
      <polygon class="cls-5" points="64.46 13.62 62.29 74.45 61.49 74.45 63.66 13.62 64.46 13.62"/>
      <polygon class="cls-5" points="65.28 13.62 63.11 74.45 62.29 74.45 64.46 13.62 65.28 13.62"/>
      <polygon class="cls-5" points="63.11 74.45 65.28 13.62 65.89 13.62 65.89 74.45 63.11 74.45"/>
    </g>
    <g class="cls-2">
      <path class="cls-3" d="M53.05,80.01c1.41-35.27-5.36-56.21-8.34-63.59l-.57-1.35c-2.31-6.39-7.24-10.18-13.21-10.18h-.22c-6.32.1-12,4.55-14.15,11.09-3.06,7.62-10.05,29.74-8.78,64.22h4.57c-1.23-33.7,5.41-55.37,8.36-62.66l.05-.14c1.55-4.78,5.58-8.04,10.02-8.11,4.14-.06,7.51,2.6,9.2,7.31l.61,1.48c2.84,7.03,9.28,28.33,8.07,62.13h4.32v-.18h.06Z"/>
    </g>
    <g>
      <rect class="cls-3" x="21.05" y="28.54" width=".67" height="38.39"/>
      <rect class="cls-3" x="29.87" y="18.26" width=".66" height="44.73"/>
      <rect class="cls-3" x="38.7" y="26.42" width=".67" height="42.62"/>
      <rect class="cls-3" x="18.16" y="32.51" width="29.95" height=".65"/>
      <rect class="cls-3" x="14.81" y="41.24" width="34.53" height=".66"/>
      <rect class="cls-3" x="25.81" y="49.96" width="23.53" height=".65"/>
      <rect class="cls-3" x="10.53" y="58.69" width="35.13" height=".66"/>
    </g>
  </g>
</svg>