<?xml version="1.0" encoding="UTF-8"?>
<svg id="Capa_1" data-name="Capa 1" xmlns="http://www.w3.org/2000/svg" viewBox="0 0 126 80">
  <defs>
    <style>
      .cls-1 {
        fill: #747776;
      }

      .cls-2 {
        fill: #3b85c2;
      }
    </style>
  </defs>
  <g>
    <path class="cls-1" d="M9.79,15.99h12.12v2.15h-9.84v7.88h9.31v2.15h-9.31v8.79h9.94v2.12h-12.21V15.99Z"/>
    <path class="cls-1" d="M23.94,37.51l1.19-1.8c1.09.62,3.05,1.56,5.88,1.56,3.12,0,4.71-1.43,4.71-3.9,0-2.86-1.53-3.64-5.2-5.33-3.68-1.65-5.73-2.99-5.73-6.54s2.18-5.76,6.54-5.76c2.49,0,4.27.47,5.79,1.18l-1,2.02c-1.21-.59-2.71-1-4.76-1-2.96,0-4.27,1.43-4.27,3.49,0,2.31,1,2.99,4.49,4.65,4.42,2.05,6.45,3.24,6.45,7.26,0,3.7-2.4,5.98-6.98,5.98-3.4,0-5.67-.93-7.1-1.81Z"/>
    <path class="cls-1" d="M45.81,18.14h-6.54v-2.15h15.49v2.15h-6.58v20.93h-2.37v-20.93Z"/>
    <path class="cls-1" d="M57.34,31.54v-15.55h2.34v15.39c0,3.77,1.06,5.83,5.23,5.83s5.27-2.02,5.27-5.83v-15.39h2.24v15.55c0,4.95-1.59,7.82-7.51,7.82s-7.57-2.83-7.57-7.82Z"/>
    <path class="cls-1" d="M76.5,15.99h6.29c7.26,0,8.72,4.11,8.72,11.53s-1.43,11.56-8.91,11.56h-6.11V15.99ZM82.76,37.02c5.51,0,6.38-3.37,6.38-9.47s-.84-9.41-6.26-9.41h-4.05v18.88h3.93Z"/>
    <path class="cls-1" d="M94.91,15.99h2.34v23.09h-2.34V15.99Z"/>
    <path class="cls-1" d="M100.61,27.55c0-6.45.87-11.81,8.51-11.81s8.44,5.36,8.44,11.81-.87,11.77-8.44,11.77-8.51-5.33-8.51-11.77ZM115.22,27.61c0-5.45-.59-9.62-6.1-9.62s-6.14,4.18-6.14,9.62.53,9.6,6.14,9.6,6.1-4.14,6.1-9.6Z"/>
  </g>
  <g>
    <path class="cls-2" d="M14.62,42.52h6.16l6.71,21.48h-5.9l-.72-2.53h-6.51l-.72,2.53h-5.73l6.71-21.48ZM19.54,56.57l-1.93-6.42-1.96,6.42h3.89Z"/>
    <path class="cls-2" d="M36.79,57.38h-1.93v6.62h-5.61v-21.34h8.84c5.59,0,7.49,2.76,7.49,7.11,0,2.97-.89,5.44-3.31,6.71l3.22,7.51h-5.96l-2.73-6.62ZM37.91,52.68c1.56,0,2.1-.72,2.1-2.5s-.55-2.56-2.1-2.56h-3.05v5.07h3.05Z"/>
    <path class="cls-2" d="M48.4,42.66h5.7v21.34h-5.7v-21.34Z"/>
    <path class="cls-2" d="M56.58,53.34c0-6.45,1.84-10.94,9.53-10.94,2.21,0,4.43.52,6.19,1.67l-3.05,4.75c-.92-.57-2.07-.86-3.34-.86-2.22,0-3.55.6-3.55,5.55s1.24,5.65,3.6,5.65c1.3,0,2.27-.29,3.51-1.09l2.82,4.43c-1.84,1.15-3.66,1.76-6.65,1.76-6.88,0-9.07-4.2-9.07-10.91Z"/>
    <path class="cls-2" d="M72.96,53.34c0-6.45,1.84-10.94,9.53-10.94,2.22,0,4.43.52,6.19,1.67l-3.05,4.75c-.92-.57-2.08-.86-3.34-.86-2.22,0-3.55.6-3.55,5.55s1.24,5.65,3.6,5.65c1.3,0,2.27-.29,3.51-1.09l2.82,4.43c-1.84,1.15-3.66,1.76-6.65,1.76-6.88,0-9.07-4.2-9.07-10.91Z"/>
    <path class="cls-2" d="M91.22,42.66h5.7v21.34h-5.7v-21.34Z"/>
    <path class="cls-2" d="M99.4,53.34c0-5.73,1.41-10.94,9.36-10.94s9.33,5.21,9.33,10.94-1.41,10.91-9.33,10.91-9.36-5.21-9.36-10.91ZM112.3,53.55c0-3.48-.43-5.64-3.54-5.64s-3.57,2.16-3.57,5.64.43,5.67,3.57,5.67,3.54-2.16,3.54-5.67Z"/>
  </g>
</svg>