<?xml version="1.0" encoding="UTF-8"?>
<svg id="Capa_1" data-name="Capa 1" xmlns="http://www.w3.org/2000/svg" viewBox="0 0 182 80">
  <defs>
    <style>
      .cls-1 {
        fill: #005a58;
      }

      .cls-2 {
        fill: #ea5b2e;
      }
    </style>
  </defs>
  <rect class="cls-2" x="7.43" y="20.95" width="8.1" height="46.57"/>
  <g>
    <path class="cls-1" d="M59.35,20.97l-13.34,26.19h5.87l2.47-4.86h10.83l2.28,4.86h5.79l-12.37-26.19h-1.53ZM56.95,37.27l3.04-6.03,2.83,6.05-5.87-.02Z"/>
    <polygon class="cls-1" points="92.02 35.61 77.56 20.97 75.92 20.97 75.92 47.16 81.15 47.16 81.15 31.88 95.87 47.16 97.25 47.16 97.25 20.97 92.02 20.97 92.02 35.61"/>
    <path class="cls-1" d="M106.61,34.12c0-7.02,7.66-10.09,12.74-6.8l3.36-3.89c-2.32-1.79-5.23-2.88-8.37-2.88-7.47,0-13.56,6.09-13.56,13.56s6.09,13.56,13.56,13.56c3.29,0,6.31-1.2,8.67-3.14l-3.36-3.85c-4.93,3.74-13.04.78-13.04-6.58Z"/>
    <path class="cls-1" d="M136.88,20.48c-7.47,0-13.56,6.09-13.56,13.56s6.09,13.56,13.56,13.56,13.56-6.09,13.56-13.56-6.09-13.56-13.56-13.56ZM136.88,42.23c-4.52,0-8.18-3.66-8.18-8.18s3.66-8.18,8.18-8.18,8.18,3.66,8.18,8.18-3.66,8.18-8.18,8.18Z"/>
    <path class="cls-1" d="M41.69,32.69c.85-1.2,1.35-2.66,1.35-4.23,0-4.14-3.4-7.5-7.57-7.5h-11.84v10.17h0v4.77h0v11.26h13.28c4.48,0,8.13-3.58,8.13-7.98,0-2.67-1.32-5.03-3.35-6.49ZM28.81,25.73h6.65c1.54,0,2.8,1.22,2.8,2.73s-1.26,2.67-2.8,2.67h-6.65v-5.4ZM36.91,42.39h-8.1v-6.49h8.1c1.85,0,3.36,1.47,3.36,3.28s-1.51,3.21-3.36,3.21Z"/>
    <path class="cls-1" d="M169.49,36.32c.4-.19.79-.41,1.15-.66,2.15-1.48,3.56-3.94,3.56-6.72,0-4.48-3.71-8.12-8.26-8.12h-12.12v11.26h0v5.04h0v10.17h5.19v-10.17h0s5.23,0,5.23,0l4.71,10.17h5.62l-5.08-10.97ZM165.94,32.08h-6.93v-6.21h6.93c1.78,0,3.22,1.38,3.22,3.07s-1.44,3.14-3.22,3.14Z"/>
  </g>
</svg>