<?xml version="1.0" encoding="UTF-8"?>
<svg id="Capa_1" data-name="Capa 1" xmlns="http://www.w3.org/2000/svg" viewBox="0 0 168 80">
  <defs>
    <style>
      .cls-1 {
        fill: #c1f300;
      }

      .cls-2 {
        fill: #e40272;
      }
    </style>
  </defs>
  <path class="cls-2" d="M56.32,63.35c-2.51,0-4.73-.57-6.66-1.7-1.93-1.13-3.45-2.7-4.55-4.7-1.1-2-1.65-4.3-1.65-6.91s.57-4.91,1.7-6.91c1.13-2,2.69-3.57,4.68-4.7,1.98-1.13,4.26-1.7,6.84-1.7,2.24,0,4.29.58,6.18,1.75,1.88,1.17,3.39,2.88,4.52,5.13,1.13,2.25,1.7,4.99,1.7,8.21h-18.6c.17,1.7.9,3.04,2.19,4.04,1.29,1,2.74,1.5,4.37,1.5,1.39,0,2.52-.3,3.41-.89.88-.59,1.56-1.36,2.03-2.31l6,2.34c-.71,1.42-1.63,2.65-2.77,3.69-1.14,1.03-2.48,1.82-4.04,2.36-1.56.54-3.34.81-5.34.81M50.83,46.83h10.98c-.1-1.05-.44-1.9-1.02-2.54-.58-.64-1.25-1.12-2.03-1.42-.78-.3-1.54-.46-2.29-.46s-1.48.14-2.31.43c-.83.29-1.56.75-2.19,1.4-.63.64-1.01,1.51-1.14,2.59"/>
  <polygon class="cls-2" points="70.22 62.74 71.03 57.86 86.08 42.86 73.57 42.86 74.49 37.32 95.43 37.32 94.61 42.15 79.57 57.25 92.12 57.25 91.21 62.74 70.22 62.74"/>
  <polygon class="cls-2" points="93.43 62.74 94.24 57.86 109.29 42.86 96.78 42.86 97.7 37.32 118.64 37.32 117.82 42.15 102.78 57.25 115.33 57.25 114.42 62.74 93.43 62.74"/>
  <path class="cls-2" d="M128.25,63.35c-3.05,0-5.41-.68-7.09-2.03-1.68-1.35-2.52-3.27-2.52-5.74,0-2.71.91-4.75,2.72-6.12,1.81-1.37,4.36-2.06,7.65-2.06h6c-.24-1.56-.73-2.75-1.47-3.58-.75-.83-1.81-1.24-3.2-1.24-1.08,0-2.07.24-2.95.71-.88.47-1.63,1.2-2.24,2.19l-5.9-2.03c.47-1.08,1.17-2.14,2.08-3.18.92-1.03,2.11-1.88,3.58-2.54,1.47-.66,3.28-.99,5.41-.99,2.57,0,4.72.49,6.43,1.47,1.71.98,2.98,2.36,3.81,4.14.83,1.78,1.23,3.89,1.19,6.33l-.15,14.08h-6.45v-2.95c-.64,1.15-1.45,2.03-2.62,2.64-1.17.61-2.6.91-4.3.91M129.37,57.76c1.08,0,2.07-.25,2.95-.76.88-.51,1.58-1.17,2.08-1.98.51-.81.76-1.66.76-2.54v-.1h-3.81c-2.2,0-3.73.26-4.57.79-.85.53-1.27,1.26-1.27,2.21,0,.75.34,1.33,1.02,1.75.68.42,1.63.64,2.85.64"/>
  <path class="cls-2" d="M39.9,47.52c-.9-1.41-2.18-2.53-3.84-3.38,1.25-.85,2.23-1.86,2.92-3.02.69-1.17,1.04-2.45,1.04-3.84,0-2.24-.51-4.11-1.52-5.62-1.02-1.51-2.44-2.63-4.27-3.38-1.83-.74-3.96-1.12-6.4-1.12h-14.1v11.68l4.58,2.9h-9.78l-2.89,5.55h8.09v11.12c0,2.39,1.94,4.32,4.32,4.32h11.4c2.37,0,4.44-.39,6.2-1.17,1.76-.78,3.13-1.93,4.12-3.46.98-1.52,1.47-3.37,1.47-5.54,0-1.96-.45-3.65-1.35-5.06M20.54,32.7h6.88c1.69,0,3.03.39,4.02,1.17.98.78,1.47,1.88,1.47,3.3s-.44,2.52-1.32,3.3c-.88.78-2.08,1.17-3.61,1.17h-7.44v-8.95ZM32.71,55.34c-.95.83-2.25,1.25-3.91,1.25h-8.25v-9.25h7.69c1.83,0,3.27.42,4.32,1.25,1.05.83,1.58,1.97,1.58,3.43s-.47,2.5-1.42,3.33"/>
  <path class="cls-1" d="M162.36,44.4h-11.12c0-9.15-7.4-16.58-16.54-16.62v-11.12c15.28.05,27.66,12.45,27.66,27.75"/>
</svg>