<?xml version="1.0" encoding="UTF-8"?>
<svg id="Capa_1" data-name="Capa 1" xmlns="http://www.w3.org/2000/svg" viewBox="0 0 194 80">
  <defs>
    <style>
      .cls-1 {
        fill: #2a2523;
      }

      .cls-2 {
        fill: #0d987f;
      }

      .cls-3 {
        fill: #e87c21;
      }
    </style>
  </defs>
  <path class="cls-3" d="M44.19,22.17v12.59h-6.05c-.63-1.63-1.74-3.64-2.74-4.43-2.52-1.94-3.84-2.37-6.16-2.37-6.43,0-10.63,4.85-10.63,12.17s4.11,11.74,10.05,11.74c4.95,0,8.64-3.42,9.95-9.32l7.05,3.38c-2.63,9.63-10.64,12.48-17.69,12.48-15.27,0-19.38-10.59-19.38-18.38,0-10.89,7.64-18.43,18.8-18.43,4.37,0,7.79,1.05,10.74,3.37v-2.79h6.05Z"/>
  <polygon class="cls-2" points="67.96 28.63 61.74 28.63 61.74 22.42 54.37 22.42 54.37 28.63 48.15 28.63 48.15 35.99 54.37 35.99 54.37 42.22 61.74 42.22 61.74 35.99 67.96 35.99 67.96 28.63"/>
  <g>
    <g>
      <g>
        <path class="cls-1" d="M79.48,33.32c-.27-1.22-1.27-1.93-2.43-1.93-2.1,0-2.98,1.75-2.98,3.48s.88,3.48,2.98,3.48c1.46,0,2.39-1.14,2.54-2.54h.75c-.2,1.94-1.44,3.18-3.29,3.18-2.49,0-3.73-1.96-3.73-4.13s1.24-4.12,3.73-4.12c1.5,0,2.99.9,3.19,2.57h-.76Z"/>
        <path class="cls-1" d="M81.75,34.87c.07-1.34,1.01-1.92,2.32-1.92,1.01,0,2.11.31,2.11,1.84v3.04c0,.26.13.42.41.42.08,0,.17-.02.22-.04v.59c-.15.03-.27.05-.45.05-.71,0-.82-.4-.82-1h-.02c-.49.74-.99,1.16-2.08,1.16s-1.92-.52-1.92-1.68c0-1.61,1.56-1.67,3.08-1.84.58-.07.9-.14.9-.77,0-.94-.68-1.18-1.5-1.18-.87,0-1.51.4-1.53,1.34h-.7ZM85.48,35.71h-.02c-.09.17-.4.22-.59.26-1.19.21-2.66.2-2.66,1.32,0,.69.62,1.13,1.27,1.13,1.06,0,2.01-.68,2-1.79v-.91ZM83.94,32.32h-.57l1.17-1.57h.86l-1.46,1.57Z"/>
        <path class="cls-1" d="M88.01,33.11h.64v.97h.03c.36-.69.96-1.13,1.87-1.13.75,0,1.43.37,1.65,1.12.34-.75,1.06-1.12,1.82-1.12,1.25,0,1.9.66,1.9,2.01v3.88h-.7v-3.85c0-.94-.36-1.45-1.35-1.45-1.21,0-1.55,1-1.55,2.06v3.24h-.7v-3.88c.01-.78-.31-1.42-1.2-1.42-1.21,0-1.7.91-1.71,2.11v3.2h-.7v-5.72Z"/>
        <path class="cls-1" d="M97.63,34.87c.06-1.34,1.01-1.92,2.32-1.92,1.01,0,2.11.31,2.11,1.84v3.04c0,.26.13.42.41.42.08,0,.16-.02.23-.04v.59c-.16.03-.27.05-.46.05-.71,0-.82-.4-.82-.99h-.02c-.49.74-.98,1.16-2.09,1.16s-1.92-.52-1.92-1.68c0-1.61,1.56-1.67,3.07-1.84.57-.07.9-.14.9-.77,0-.94-.68-1.18-1.5-1.18-.86,0-1.51.4-1.53,1.34h-.7ZM101.36,35.71h-.02c-.09.17-.41.22-.59.26-1.18.21-2.66.2-2.66,1.32,0,.69.62,1.13,1.27,1.13,1.06,0,2.01-.68,2-1.79v-.91Z"/>
        <path class="cls-1" d="M103.9,33.11h.64v1.34h.02c.36-.92,1.13-1.46,2.16-1.42v.71c-1.26-.07-2.13.86-2.13,2.05v3.05h-.69v-5.72Z"/>
        <path class="cls-1" d="M107.77,34.87c.07-1.34,1.01-1.92,2.32-1.92,1.01,0,2.11.31,2.11,1.84v3.04c0,.26.13.42.41.42.08,0,.17-.02.22-.04v.59c-.16.03-.27.05-.45.05-.71,0-.82-.4-.82-.99h-.01c-.49.74-.99,1.16-2.1,1.16s-1.91-.52-1.91-1.68c0-1.61,1.56-1.67,3.07-1.84.58-.07.9-.14.9-.77,0-.94-.68-1.18-1.5-1.18s-1.51.4-1.53,1.34h-.7ZM111.49,35.71h-.02c-.09.17-.41.22-.59.26-1.19.21-2.66.2-2.66,1.32,0,.69.62,1.13,1.27,1.13,1.07,0,2.01-.68,2-1.79v-.91Z"/>
        <path class="cls-1" d="M122.59,38.84h-.64v-1.09h-.02c-.3.74-1.2,1.26-2.03,1.26-1.74,0-2.58-1.41-2.58-3.03s.83-3.03,2.58-3.03c.85,0,1.68.43,1.98,1.25h.02v-3.29h.7v7.93ZM119.89,38.41c1.48,0,2-1.25,2-2.44s-.52-2.44-2-2.44c-1.34,0-1.87,1.26-1.87,2.44s.54,2.44,1.87,2.44"/>
        <path class="cls-1" d="M124.78,36.16c0,1.02.54,2.25,1.88,2.25,1.01,0,1.57-.59,1.8-1.46h.69c-.3,1.3-1.05,2.05-2.49,2.05-1.82,0-2.58-1.4-2.58-3.03,0-1.51.76-3.02,2.58-3.02s2.57,1.61,2.52,3.22h-4.4ZM128.48,35.57c-.04-1.05-.69-2.04-1.82-2.04s-1.77,1-1.88,2.04h3.7Z"/>
      </g>
      <g>
        <polygon class="cls-1" points="133.91 30.92 138.93 30.92 138.93 31.56 134.66 31.56 134.66 34.43 138.45 34.43 138.45 35.07 134.66 35.07 134.66 38.84 133.91 38.84 133.91 30.92"/>
        <path class="cls-1" d="M140.1,34.87c.07-1.34,1.02-1.92,2.32-1.92,1.01,0,2.11.31,2.11,1.84v3.04c0,.26.13.42.41.42.08,0,.16-.02.22-.05v.58c-.16.04-.27.05-.45.05-.71,0-.82-.4-.82-1h-.02c-.49.74-.99,1.16-2.08,1.16s-1.92-.51-1.92-1.67c0-1.61,1.56-1.66,3.07-1.85.58-.06.9-.14.9-.77,0-.94-.67-1.18-1.5-1.18s-1.5.41-1.53,1.34h-.71ZM143.83,35.71h-.02c-.09.16-.4.22-.59.25-1.19.22-2.67.2-2.67,1.33,0,.7.63,1.13,1.29,1.13,1.06,0,2-.68,1.99-1.79v-.92Z"/>
        <path class="cls-1" d="M146.37,33.12h.64v1.34h.03c.35-.93,1.12-1.47,2.16-1.42v.69c-1.27-.06-2.13.87-2.13,2.06v3.05h-.7v-5.72Z"/>
        <path class="cls-1" d="M150.31,33.12h.64v.96h.04c.37-.69.96-1.14,1.87-1.14.76,0,1.43.37,1.64,1.13.35-.75,1.07-1.13,1.82-1.13,1.26,0,1.9.66,1.9,2.01v3.88h-.7v-3.85c0-.94-.36-1.46-1.35-1.46-1.21,0-1.56,1-1.56,2.07v3.24h-.69v-3.88c0-.78-.32-1.42-1.2-1.42-1.21,0-1.7.91-1.71,2.11v3.19h-.7v-5.72Z"/>
        <path class="cls-1" d="M159.92,34.87c.07-1.34,1.01-1.92,2.32-1.92,1.01,0,2.1.31,2.1,1.84v3.04c0,.26.13.42.41.42.08,0,.17-.02.22-.05v.58c-.15.04-.27.05-.46.05-.71,0-.82-.4-.82-1h-.03c-.49.74-.99,1.16-2.08,1.16s-1.92-.51-1.92-1.67c0-1.61,1.56-1.66,3.07-1.85.58-.06.9-.14.9-.77,0-.94-.68-1.18-1.5-1.18s-1.51.41-1.53,1.34h-.7ZM163.65,35.71h-.03c-.08.16-.4.22-.59.25-1.18.22-2.66.2-2.66,1.33,0,.7.62,1.13,1.27,1.13,1.07,0,2.01-.68,2-1.79v-.92Z"/>
        <path class="cls-1" d="M170.23,34.91c-.19-.85-.71-1.38-1.62-1.38-1.34,0-2.01,1.22-2.01,2.44s.66,2.44,2.01,2.44c.86,0,1.57-.68,1.66-1.63h.69c-.19,1.38-1.08,2.22-2.36,2.22-1.75,0-2.71-1.39-2.71-3.03s.96-3.03,2.71-3.03c1.22,0,2.16.66,2.32,1.97h-.7Z"/>
        <path class="cls-1" d="M172.41,30.92h.7v1.12h-.7v-1.12ZM172.41,33.12h.7v5.72h-.7v-5.72Z"/>
        <path class="cls-1" d="M174.82,34.87c.07-1.34,1.01-1.92,2.32-1.92,1.01,0,2.1.31,2.1,1.84v3.04c0,.26.14.42.41.42.08,0,.17-.02.22-.05v.58c-.16.04-.26.05-.45.05-.71,0-.82-.4-.82-1h-.02c-.49.74-.99,1.16-2.09,1.16s-1.92-.51-1.92-1.67c0-1.61,1.56-1.66,3.07-1.85.58-.06.9-.14.9-.77,0-.94-.68-1.18-1.5-1.18-.86,0-1.51.41-1.54,1.34h-.69ZM178.55,35.71h-.03c-.08.16-.4.22-.58.25-1.19.22-2.66.2-2.66,1.33,0,.7.62,1.13,1.27,1.13,1.07,0,2.01-.68,2-1.79v-.92Z"/>
        <path class="cls-1" d="M184.51,34.79c-.03-.86-.69-1.26-1.49-1.26-.62,0-1.35.25-1.35.99,0,.63.71.84,1.19.96l.92.21c.8.13,1.63.59,1.63,1.59,0,1.24-1.23,1.71-2.3,1.71-1.33,0-2.24-.62-2.35-2.02h.7c.06.94.75,1.43,1.69,1.43.65,0,1.56-.28,1.56-1.08,0-.66-.62-.89-1.25-1.05l-.9-.2c-.91-.25-1.6-.56-1.6-1.53,0-1.16,1.14-1.61,2.15-1.61,1.14,0,2.05.6,2.09,1.84h-.7Z"/>
      </g>
    </g>
    <g>
      <g>
        <path class="cls-1" d="M76.79,43.13h.5v6h-.5v-.76h-.02c-.29.56-.95.88-1.5.88-1.39,0-1.95-.99-1.95-2.27,0-1.21.61-2.29,1.92-2.29.61,0,1.23.28,1.54.81v-2.38ZM75.32,45.14c-1.03,0-1.51.88-1.47,1.96,0,1.08.63,1.69,1.47,1.69.95,0,1.47-.8,1.47-1.84,0-.97-.55-1.81-1.47-1.81"/>
        <path class="cls-1" d="M79.27,47.08c0,.93.49,1.71,1.46,1.71.64,0,1.15-.36,1.31-.99h.55c-.25.82-.77,1.44-1.86,1.44-1.39,0-1.99-.99-1.99-2.26s.75-2.29,1.99-2.29,1.91.85,1.9,2.39h-3.35ZM82.09,46.67c0-.84-.47-1.52-1.36-1.52s-1.35.71-1.46,1.52h2.82Z"/>
        <rect class="cls-1" x="86.82" y="43.13" width=".5" height="6"/>
        <path class="cls-1" d="M91,46.62c.18-.02.49-.07.66-.15.17-.07.19-.3.19-.45,0-.51-.3-.88-1.08-.88-.69,0-1.16.22-1.26.98h-.51c.08-1.02.84-1.43,1.78-1.43.88,0,1.56.34,1.56,1.35v2.35c0,.38.1.48.53.33v.39c-.08.02-.25.08-.39.08-.09,0-.15-.01-.23-.03-.33-.05-.39-.34-.4-.64-.42.47-.98.72-1.61.72-.75,0-1.44-.41-1.44-1.24,0-.73.5-1.18,1.51-1.31l.69-.08ZM91.84,46.87c-.43.17-.86.2-1.3.24-.76.05-1.21.33-1.21.91,0,.53.46.78.93.78.8,0,1.58-.38,1.58-1.26v-.67Z"/>
        <path class="cls-1" d="M96.85,49.13v-6h2.2c1.56,0,1.96.78,1.96,1.67,0,1.35-1.19,1.68-2.3,1.68h-1.28v2.65h-.57ZM98.72,46c1.07,0,1.72-.22,1.72-1.23,0-.75-.49-1.15-1.55-1.15h-1.47v2.39h1.3Z"/>
        <path class="cls-1" d="M102.84,49.13h-.5v-4.32h.5v.81h.01c.28-.69.68-.93,1.42-.93v.55c-1.13-.02-1.43.81-1.43,1.77v2.12Z"/>
        <path class="cls-1" d="M105.07,46.98c0-1.26.67-2.28,2-2.28s2,1.01,2,2.28c0,1.36-.79,2.27-2,2.27-1.1-.02-2-.77-2-2.27M107.07,45.14c-1.04,0-1.47.9-1.47,1.83,0,1.07.51,1.82,1.47,1.82,1.06,0,1.47-.9,1.47-1.82,0-1.02-.41-1.83-1.47-1.83"/>
        <polygon class="cls-1" points="109.94 44.81 110.49 44.81 111.89 48.51 113.29 44.81 113.83 44.81 112.16 49.13 111.6 49.13 109.94 44.81"/>
        <path class="cls-1" d="M115.04,43.13h.55v.74h-.55v-.74ZM115.07,44.81h.5v4.32h-.5v-4.32Z"/>
        <path class="cls-1" d="M117.76,49.13h-.5v-4.32h.5v.6c.4-.43.8-.72,1.39-.72.53,0,1.01.17,1.32.62.21.31.21.63.21.99v2.82h-.5v-2.81c0-.78-.32-1.17-1.12-1.17-.62,0-1.04.4-1.2.85-.11.27-.11.51-.11.81v2.32Z"/>
        <path class="cls-1" d="M125.37,46.17c-.18-.65-.62-1.03-1.29-1.03-1.03,0-1.45.93-1.45,1.84s.42,1.82,1.45,1.82c.74,0,1.21-.45,1.33-1.16h.53c-.17.97-.78,1.61-1.86,1.61-1.38,0-1.98-.99-1.98-2.27,0-1.2.69-2.29,1.98-2.29.99,0,1.64.48,1.79,1.48h-.51Z"/>
        <path class="cls-1" d="M127.42,43.13h.55v.74h-.55v-.74ZM127.43,44.81h.5v4.32h-.5v-4.32Z"/>
        <path class="cls-1" d="M131.61,46.62c.18-.02.49-.07.66-.15.17-.07.18-.3.18-.45,0-.51-.3-.88-1.07-.88-.7,0-1.17.22-1.26.98h-.51c.07-1.02.83-1.43,1.78-1.43.87,0,1.57.34,1.57,1.35v2.35c0,.38.1.48.52.33v.39c-.07.02-.25.08-.39.08-.08,0-.15-.01-.23-.03-.33-.05-.39-.34-.4-.64-.42.47-.98.72-1.61.72-.76,0-1.44-.41-1.44-1.24,0-.73.5-1.18,1.51-1.31l.69-.08ZM132.45,46.87c-.43.17-.86.2-1.29.24-.76.05-1.22.33-1.22.91,0,.53.46.78.94.78.79,0,1.58-.38,1.58-1.26v-.67Z"/>
      </g>
      <g>
        <path class="cls-1" d="M140.9,43.09h.5v6h-.5v-.76h-.02c-.29.56-.95.87-1.5.87-1.39,0-1.95-.99-1.95-2.27,0-1.21.61-2.29,1.92-2.29.61,0,1.23.29,1.54.81v-2.38ZM139.43,45.1c-1.03,0-1.51.88-1.47,1.96,0,1.08.63,1.7,1.47,1.7.95,0,1.47-.81,1.47-1.85,0-.97-.55-1.81-1.47-1.81"/>
        <path class="cls-1" d="M143.38,47.04c0,.94.49,1.72,1.46,1.72.64,0,1.15-.37,1.31-1h.55c-.25.82-.77,1.44-1.86,1.44-1.39,0-1.99-.98-1.99-2.26s.75-2.29,1.99-2.29,1.91.84,1.9,2.39h-3.35ZM146.2,46.63c0-.85-.47-1.53-1.36-1.53s-1.35.71-1.46,1.53h2.82Z"/>
        <path class="cls-1" d="M155.19,44.83c-.23-1.02-.87-1.42-1.89-1.42-1.45,0-2.08,1.24-2.08,2.66,0,1.34.5,2.7,2.13,2.7,1.03,0,1.67-.7,1.9-1.66h.59c-.26,1.16-1,2.14-2.6,2.14-1.85,0-2.59-1.46-2.59-3.16,0-2.29,1.21-3.16,2.8-3.16,1.23,0,2.13.65,2.32,1.9h-.58Z"/>
        <path class="cls-1" d="M157.01,46.93c0-1.25.67-2.28,2-2.28s2,1.01,2,2.28c0,1.36-.79,2.28-2,2.28-1.1-.02-2-.76-2-2.28M159.01,45.1c-1.05,0-1.47.89-1.47,1.83,0,1.08.51,1.83,1.47,1.83,1.05,0,1.47-.91,1.47-1.83,0-1.02-.41-1.83-1.47-1.83M158.54,44.3l.92-1.16h.65l-1.14,1.16h-.42Z"/>
        <path class="cls-1" d="M162.86,49.09h-.49v-4.32h.49v.81h.02c.27-.69.68-.93,1.41-.93v.55c-1.12-.03-1.43.8-1.43,1.77v2.12Z"/>
        <path class="cls-1" d="M168.72,43.09h.5v6h-.5v-.76h-.01c-.29.56-.96.87-1.51.87-1.39,0-1.95-.99-1.95-2.27,0-1.21.61-2.29,1.92-2.29.61,0,1.23.29,1.54.81v-2.38ZM167.26,45.1c-1.03,0-1.52.88-1.47,1.96,0,1.08.63,1.7,1.47,1.7.94,0,1.46-.81,1.46-1.85,0-.97-.55-1.81-1.46-1.81"/>
        <path class="cls-1" d="M170.61,46.93c0-1.25.66-2.28,2-2.28s2,1.01,2,2.28c0,1.36-.79,2.28-2,2.28-1.1-.02-2-.76-2-2.28M172.62,45.1c-1.05,0-1.46.89-1.46,1.83,0,1.08.51,1.83,1.46,1.83,1.05,0,1.47-.91,1.47-1.83,0-1.02-.41-1.83-1.47-1.83"/>
        <path class="cls-1" d="M176.51,49.09h-.5v-6h.5v2.37c.32-.52.93-.81,1.54-.81,1.32,0,1.93,1.08,1.93,2.29,0,1.27-.56,2.27-1.95,2.27-.54,0-1.21-.31-1.5-.87h-.02v.76ZM177.97,48.76c.84,0,1.47-.62,1.48-1.7.04-1.07-.44-1.96-1.48-1.96-.91,0-1.46.84-1.46,1.81,0,1.04.52,1.85,1.46,1.85"/>
        <path class="cls-1" d="M183.44,46.57c.19-.02.5-.07.66-.15.17-.07.19-.3.19-.44,0-.51-.3-.88-1.08-.88-.69,0-1.16.23-1.26.98h-.51c.07-1.01.83-1.43,1.77-1.43.87,0,1.57.34,1.57,1.34v2.35c0,.39.1.48.52.34v.39c-.07.02-.25.08-.39.08-.09,0-.15-.02-.23-.02-.33-.06-.39-.35-.4-.65-.42.46-.99.71-1.61.71-.76,0-1.44-.41-1.44-1.24,0-.72.5-1.17,1.51-1.3l.69-.09ZM184.29,46.81c-.43.18-.86.21-1.29.24-.76.06-1.22.33-1.22.92,0,.52.45.78.93.78.79,0,1.58-.39,1.58-1.26v-.69Z"/>
      </g>
    </g>
  </g>
</svg>