<?xml version="1.0" encoding="UTF-8"?>
<svg id="Capa_1" xmlns="http://www.w3.org/2000/svg" version="1.1" viewBox="0 0 150 80">
  <!-- Generator: Adobe Illustrator 30.3.0, SVG Export Plug-In . SVG Version: 2.1.3 Build 182)  -->
  <defs>
    <style>
      .st0 {
        isolation: isolate;
      }

      .st1 {
        fill: #0087c2;
      }
    </style>
  </defs>
  <g class="st0">
    <g class="st0">
      <path d="M57.88,26.24c0-1.43.26-2.83.79-4.2.53-1.37,1.29-2.62,2.3-3.74,1.01-1.12,2.24-2.01,3.69-2.68,1.45-.67,3.09-1,4.94-1,2.19,0,4.1.47,5.71,1.42,1.61.94,2.82,2.17,3.61,3.69l-4.15,2.9c-.35-.83-.82-1.48-1.4-1.94-.58-.46-1.22-.78-1.91-.97s-1.36-.28-1.99-.28c-1.03,0-1.93.2-2.7.61-.77.41-1.41.95-1.91,1.63-.5.68-.88,1.44-1.12,2.27-.24.83-.36,1.67-.36,2.5,0,.92.14,1.81.43,2.67.29.86.7,1.61,1.23,2.27.54.66,1.19,1.18,1.96,1.56.77.38,1.61.58,2.53.58.66,0,1.33-.11,2.01-.33.68-.22,1.31-.57,1.89-1.04.58-.47,1.03-1.09,1.33-1.86l4.41,2.6c-.46,1.14-1.22,2.12-2.27,2.93-1.05.81-2.24,1.43-3.57,1.86-1.33.43-2.64.64-3.93.64-1.69,0-3.24-.35-4.66-1.04-1.42-.69-2.63-1.61-3.65-2.77s-1.81-2.45-2.37-3.88c-.56-1.44-.84-2.9-.84-4.39Z"/>
      <path d="M79.87,26.24c0-1.43.26-2.83.79-4.2.53-1.37,1.29-2.62,2.3-3.74,1.01-1.12,2.24-2.01,3.69-2.68,1.45-.67,3.09-1,4.94-1,2.19,0,4.1.47,5.71,1.42,1.61.94,2.82,2.17,3.61,3.69l-4.15,2.9c-.35-.83-.82-1.48-1.4-1.94-.58-.46-1.22-.78-1.91-.97s-1.36-.28-1.99-.28c-1.03,0-1.93.2-2.7.61-.77.41-1.41.95-1.91,1.63-.5.68-.88,1.44-1.12,2.27-.24.83-.36,1.67-.36,2.5,0,.92.14,1.81.43,2.67.29.86.7,1.61,1.23,2.27.54.66,1.19,1.18,1.96,1.56.77.38,1.61.58,2.53.58.66,0,1.33-.11,2.01-.33.68-.22,1.31-.57,1.89-1.04.58-.47,1.03-1.09,1.33-1.86l4.41,2.6c-.46,1.14-1.22,2.12-2.27,2.93-1.05.81-2.24,1.43-3.57,1.86-1.33.43-2.64.64-3.93.64-1.69,0-3.24-.35-4.66-1.04-1.42-.69-2.63-1.61-3.65-2.77s-1.81-2.45-2.37-3.88c-.56-1.44-.84-2.9-.84-4.39Z"/>
    </g>
    <g class="st0">
      <path d="M102.65,26.24c0-1.43.26-2.83.79-4.2.53-1.37,1.29-2.62,2.3-3.74s2.24-2.01,3.69-2.68c1.45-.67,3.09-1,4.94-1,2.19,0,4.1.47,5.71,1.42s2.81,2.17,3.6,3.69l-4.15,2.9c-.35-.83-.82-1.48-1.4-1.94-.58-.46-1.22-.78-1.91-.97s-1.36-.28-1.99-.28c-1.03,0-1.93.2-2.7.61s-1.4.95-1.91,1.63c-.5.68-.88,1.44-1.12,2.27-.24.83-.36,1.67-.36,2.5,0,.92.14,1.81.43,2.67.29.86.7,1.61,1.23,2.27s1.19,1.18,1.96,1.56,1.61.58,2.54.58c.66,0,1.33-.11,2.01-.33.68-.22,1.31-.57,1.89-1.04.58-.47,1.03-1.09,1.33-1.86l4.41,2.6c-.46,1.14-1.22,2.12-2.27,2.93-1.05.81-2.24,1.43-3.57,1.86s-2.64.64-3.93.64c-1.69,0-3.24-.35-4.66-1.04s-2.63-1.61-3.65-2.77-1.81-2.45-2.37-3.88c-.56-1.44-.84-2.9-.84-4.39Z"/>
    </g>
  </g>
  <g class="st0">
    <g class="st0">
      <path d="M4.1,50.22c0-.52.09-1.03.27-1.53.18-.5.44-.95.78-1.36.34-.41.77-.74,1.27-.98.5-.24,1.07-.37,1.71-.37.76,0,1.41.17,1.95.52.54.35.94.79,1.19,1.33l-.66.41c-.18-.38-.42-.67-.69-.89-.28-.22-.58-.38-.89-.47-.31-.1-.63-.14-.94-.14-.51,0-.96.1-1.35.31-.39.2-.72.47-.99.81-.27.34-.47.72-.6,1.14s-.2.84-.2,1.27c0,.47.08.92.24,1.35s.38.81.67,1.14c.29.33.62.59,1.01.79s.81.29,1.26.29c.32,0,.65-.06.98-.17.33-.11.65-.28.94-.51.29-.23.52-.53.7-.9l.69.36c-.18.42-.45.78-.81,1.08s-.78.52-1.23.67c-.45.15-.89.23-1.32.23-.58,0-1.12-.12-1.6-.38-.49-.25-.91-.59-1.26-1s-.63-.89-.82-1.41c-.19-.52-.29-1.05-.29-1.59Z"/>
    </g>
    <g class="st0">
      <path d="M15.84,46.04h.71l3.53,8.5h-.89l-1.06-2.66h-3.88l-1.06,2.66h-.9l3.56-8.5ZM17.87,51.22l-1.68-4.2-1.68,4.2h3.36ZM16.47,44.88l-.54-.2.71-1.11h.86l-1.03,1.32Z"/>
      <path d="M29.29,54.54v-6.92l-3.08,5.38h-.53l-3.09-5.38v6.92h-.84v-8.5h.86l3.32,5.82,3.34-5.82h.85v8.5h-.84Z"/>
      <path d="M35.36,46.04h.71l3.53,8.5h-.89l-1.06-2.66h-3.88l-1.06,2.66h-.9l3.56-8.5ZM37.39,51.22l-1.68-4.2-1.68,4.2h3.36Z"/>
    </g>
    <g class="st0">
      <path d="M41.25,54.54v-8.5h3.59c.37,0,.7.08,1.01.23.3.15.57.36.8.62.23.26.4.55.53.86s.19.64.19.96c0,.41-.08.79-.23,1.15-.16.36-.38.66-.66.91s-.62.41-1,.49l2.08,3.28h-.95l-2-3.14h-2.51v3.14h-.84ZM42.08,50.66h2.78c.34,0,.63-.09.87-.28.25-.18.44-.42.57-.72.14-.3.2-.62.2-.95s-.08-.66-.23-.95c-.16-.29-.36-.53-.62-.71s-.55-.27-.87-.27h-2.71v3.88Z"/>
    </g>
    <g class="st0">
      <path d="M52.11,46.04h.71l3.53,8.5h-.89l-1.06-2.66h-3.88l-1.06,2.66h-.9l3.56-8.5ZM54.14,51.22l-1.68-4.2-1.68,4.2h3.36Z"/>
    </g>
    <g class="st0">
      <path d="M61.17,54.54v-8.5h2.88c.9,0,1.65.19,2.26.57s1.06.89,1.36,1.53c.3.64.46,1.36.46,2.14,0,.86-.17,1.61-.5,2.25s-.8,1.13-1.41,1.48c-.61.35-1.33.53-2.16.53h-2.88ZM67.29,50.28c0-.68-.13-1.28-.38-1.81-.25-.53-.62-.94-1.1-1.24-.48-.3-1.06-.45-1.76-.45h-2.05v7.01h2.05c.7,0,1.29-.16,1.77-.47s.84-.73,1.09-1.26c.25-.53.37-1.13.37-1.79Z"/>
      <path d="M75.91,53.8v.74h-5.71v-8.5h5.6v.74h-4.76v3.06h4.15v.71h-4.15v3.24h4.87Z"/>
    </g>
    <g class="st0">
      <path d="M80.85,50.22c0-.52.09-1.03.27-1.53.18-.5.44-.95.78-1.36.34-.41.77-.74,1.27-.98s1.07-.37,1.71-.37c.76,0,1.41.17,1.95.52.54.35.94.79,1.19,1.33l-.66.41c-.18-.38-.42-.67-.69-.89-.28-.22-.58-.38-.89-.47s-.63-.14-.94-.14c-.51,0-.96.1-1.35.31-.39.2-.72.47-.99.81-.27.34-.47.72-.6,1.14s-.2.84-.2,1.27c0,.47.08.92.24,1.35.16.43.38.81.67,1.14.29.33.62.59,1.01.79.39.2.81.29,1.26.29.32,0,.65-.06.98-.17.33-.11.65-.28.94-.51.29-.23.52-.53.7-.9l.69.36c-.18.42-.45.78-.81,1.08s-.78.52-1.23.67c-.45.15-.89.23-1.32.23-.58,0-1.12-.12-1.6-.38-.49-.25-.91-.59-1.26-1-.36-.42-.63-.89-.82-1.41-.19-.52-.29-1.05-.29-1.59Z"/>
    </g>
    <g class="st0">
      <path d="M93.41,54.6c-.6,0-1.14-.12-1.63-.36-.49-.24-.91-.56-1.26-.98-.35-.41-.62-.87-.81-1.39s-.29-1.04-.29-1.59.1-1.11.3-1.62c.2-.51.48-.97.84-1.38.36-.4.79-.72,1.27-.96.49-.24,1.01-.35,1.58-.35.6,0,1.14.12,1.63.37.49.25.9.58,1.25.99.35.42.62.88.81,1.39s.29,1.03.29,1.57c0,.57-.1,1.11-.3,1.62s-.48.97-.84,1.38c-.36.4-.78.72-1.27.95-.49.23-1.01.35-1.58.35ZM90.26,50.29c0,.46.08.91.23,1.33.15.43.37.81.65,1.14s.61.59,1,.79c.39.2.81.29,1.28.29.49,0,.92-.1,1.31-.3.39-.2.72-.48.99-.81s.49-.72.63-1.14c.14-.42.21-.85.21-1.29,0-.46-.08-.91-.23-1.33-.15-.42-.37-.8-.65-1.14-.28-.34-.62-.6-1-.79s-.81-.29-1.27-.29-.91.1-1.3.3c-.39.2-.72.47-.99.81-.27.34-.49.72-.63,1.14s-.22.85-.22,1.29Z"/>
      <path d="M106.97,54.54v-6.92l-3.08,5.38h-.53l-3.09-5.38v6.92h-.84v-8.5h.86l3.32,5.82,3.34-5.82h.85v8.5h-.84Z"/>
      <path d="M116.12,53.8v.74h-5.71v-8.5h5.6v.74h-4.76v3.06h4.15v.71h-4.15v3.24h4.87Z"/>
      <path d="M118.16,54.54v-8.5h3.59c.37,0,.7.08,1,.23.3.15.57.36.8.62.23.26.4.55.53.86.12.32.19.64.19.96,0,.41-.08.79-.23,1.15-.16.36-.38.66-.66.91s-.62.41-1,.49l2.08,3.28h-.95l-2-3.14h-2.51v3.14h-.84ZM119,50.66h2.78c.34,0,.63-.09.87-.28s.44-.42.57-.72c.14-.3.2-.62.2-.95s-.08-.66-.23-.95c-.16-.29-.36-.53-.62-.71-.26-.18-.55-.27-.87-.27h-2.71v3.88Z"/>
      <path d="M125.88,50.22c0-.52.09-1.03.27-1.53.18-.5.44-.95.78-1.36s.77-.74,1.27-.98c.5-.24,1.07-.37,1.71-.37.76,0,1.41.17,1.95.52.54.35.94.79,1.19,1.33l-.66.41c-.18-.38-.42-.67-.69-.89-.28-.22-.58-.38-.89-.47-.31-.1-.63-.14-.94-.14-.51,0-.96.1-1.35.31-.39.2-.72.47-.99.81-.27.34-.47.72-.6,1.14s-.2.84-.2,1.27c0,.47.08.92.24,1.35.16.43.38.81.67,1.14s.62.59,1.01.79c.39.2.81.29,1.26.29.32,0,.65-.06.98-.17.33-.11.65-.28.94-.51.29-.23.53-.53.7-.9l.69.36c-.18.42-.45.78-.81,1.08s-.78.52-1.23.67c-.45.15-.89.23-1.32.23-.58,0-1.12-.12-1.6-.38-.49-.25-.91-.59-1.26-1-.35-.42-.63-.89-.82-1.41-.19-.52-.29-1.05-.29-1.59Z"/>
      <path d="M135.12,54.54v-8.5h.84v8.5h-.84Z"/>
      <path d="M141.98,54.6c-.6,0-1.14-.12-1.63-.36-.49-.24-.91-.56-1.26-.98-.35-.41-.62-.87-.81-1.39s-.29-1.04-.29-1.59.1-1.11.3-1.62.48-.97.84-1.38c.36-.4.79-.72,1.28-.96.49-.24,1.01-.35,1.58-.35.6,0,1.14.12,1.63.37.49.25.9.58,1.25.99.35.42.62.88.81,1.39s.29,1.03.29,1.57c0,.57-.1,1.11-.3,1.62-.2.51-.48.97-.84,1.38-.36.4-.78.72-1.27.95-.49.23-1.01.35-1.58.35ZM138.83,50.29c0,.46.08.91.23,1.33.15.43.37.81.65,1.14s.61.59,1,.79c.39.2.81.29,1.27.29.49,0,.92-.1,1.31-.3.39-.2.72-.48.99-.81s.48-.72.63-1.14c.14-.42.22-.85.22-1.29,0-.46-.08-.91-.23-1.33s-.37-.8-.65-1.14c-.28-.34-.62-.6-1-.79-.38-.19-.81-.29-1.27-.29s-.91.1-1.3.3c-.39.2-.72.47-.99.81-.28.34-.49.72-.63,1.14s-.22.85-.22,1.29Z"/>
    </g>
    <g class="st0">
      <path d="M35.41,67.29v-8.5h2.88c.9,0,1.65.19,2.26.57s1.06.89,1.36,1.53c.3.64.46,1.36.46,2.14,0,.86-.17,1.61-.5,2.25s-.8,1.13-1.41,1.48c-.61.35-1.33.53-2.16.53h-2.88ZM41.52,63.03c0-.68-.13-1.28-.38-1.81-.25-.53-.62-.94-1.1-1.24-.48-.3-1.06-.45-1.76-.45h-2.05v7.01h2.05c.7,0,1.29-.16,1.77-.47s.84-.73,1.09-1.26c.25-.53.37-1.13.37-1.79Z"/>
      <path d="M50.14,66.55v.74h-5.71v-8.5h5.6v.74h-4.76v3.06h4.15v.71h-4.15v3.24h4.87Z"/>
    </g>
    <g class="st0">
      <path d="M55.1,62.97c0-.52.09-1.03.27-1.53.18-.5.44-.95.78-1.36.34-.41.77-.74,1.27-.98.5-.24,1.07-.37,1.71-.37.76,0,1.41.17,1.95.52.54.35.94.79,1.19,1.33l-.66.41c-.18-.38-.42-.67-.69-.89-.28-.22-.58-.38-.89-.47-.31-.1-.63-.14-.94-.14-.51,0-.96.1-1.35.31-.39.2-.72.47-.99.81-.27.34-.47.72-.6,1.14s-.2.84-.2,1.27c0,.47.08.92.24,1.35s.38.81.67,1.14c.29.33.62.59,1.01.79s.81.29,1.26.29c.32,0,.65-.06.98-.17.33-.11.65-.28.94-.51.29-.23.52-.53.7-.9l.69.36c-.18.42-.45.78-.81,1.08s-.78.52-1.23.67c-.45.15-.89.23-1.32.23-.58,0-1.12-.12-1.6-.38-.49-.25-.91-.59-1.26-1s-.63-.89-.82-1.41c-.19-.52-.29-1.05-.29-1.59Z"/>
    </g>
    <g class="st0">
      <path d="M67.65,67.35c-.6,0-1.14-.12-1.63-.36-.49-.24-.91-.56-1.26-.98s-.62-.87-.81-1.39-.29-1.04-.29-1.59.1-1.11.3-1.62c.2-.51.48-.97.84-1.38.36-.4.79-.72,1.27-.96.49-.24,1.01-.35,1.58-.35.6,0,1.14.12,1.63.37s.9.58,1.25.99c.35.42.62.88.81,1.39s.29,1.03.29,1.57c0,.57-.1,1.11-.3,1.62-.2.51-.48.97-.84,1.38-.36.4-.78.72-1.27.95s-1.01.35-1.58.35ZM64.5,63.04c0,.46.08.91.23,1.33.15.43.37.81.65,1.14s.61.59,1,.79.81.29,1.27.29c.49,0,.92-.1,1.31-.3.39-.2.72-.48.99-.81s.48-.72.63-1.14c.14-.42.22-.85.22-1.29,0-.46-.08-.91-.23-1.33-.15-.42-.37-.8-.65-1.14-.28-.34-.62-.6-1-.79-.38-.19-.81-.29-1.27-.29s-.91.1-1.3.3-.72.47-.99.81c-.27.34-.49.72-.63,1.14s-.22.85-.22,1.29ZM67.95,57.63l-.54-.2.71-1.11h.86l-1.03,1.32Z"/>
      <path d="M73.68,67.29v-8.5h3.59c.37,0,.7.08,1,.23.3.15.57.36.8.62.23.26.4.55.53.86.12.32.19.64.19.96,0,.41-.08.79-.23,1.15-.16.36-.38.66-.66.91s-.62.41-1,.49l2.08,3.28h-.95l-2-3.14h-2.51v3.14h-.84ZM74.52,63.41h2.78c.34,0,.63-.09.87-.28s.44-.42.57-.72c.14-.3.2-.62.2-.95s-.08-.66-.23-.95c-.16-.29-.36-.53-.62-.71-.26-.18-.55-.27-.87-.27h-2.71v3.88Z"/>
      <path d="M81.96,67.29v-8.5h2.88c.9,0,1.65.19,2.26.57s1.06.89,1.36,1.53c.3.64.46,1.36.46,2.14,0,.86-.17,1.61-.5,2.25s-.8,1.13-1.41,1.48c-.61.35-1.33.53-2.16.53h-2.88ZM88.08,63.03c0-.68-.13-1.28-.38-1.81-.25-.53-.62-.94-1.1-1.24-.48-.3-1.06-.45-1.76-.45h-2.05v7.01h2.05c.7,0,1.29-.16,1.77-.47.48-.31.84-.73,1.09-1.26s.37-1.13.37-1.79Z"/>
      <path d="M94.41,67.35c-.6,0-1.14-.12-1.63-.36-.49-.24-.91-.56-1.26-.98-.35-.41-.62-.87-.81-1.39s-.29-1.04-.29-1.59.1-1.11.3-1.62.48-.97.84-1.38c.36-.4.79-.72,1.28-.96.49-.24,1.01-.35,1.58-.35.6,0,1.14.12,1.63.37.49.25.9.58,1.25.99.35.42.62.88.81,1.39s.29,1.03.29,1.57c0,.57-.1,1.11-.3,1.62-.2.51-.48.97-.84,1.38-.36.4-.78.72-1.27.95-.49.23-1.01.35-1.58.35ZM91.27,63.04c0,.46.08.91.23,1.33.15.43.37.81.65,1.14s.61.59,1,.79c.39.2.81.29,1.27.29.49,0,.92-.1,1.31-.3.39-.2.72-.48.99-.81s.48-.72.63-1.14c.14-.42.22-.85.22-1.29,0-.46-.08-.91-.23-1.33s-.37-.8-.65-1.14c-.28-.34-.62-.6-1-.79-.38-.19-.81-.29-1.27-.29s-.91.1-1.3.3c-.39.2-.72.47-.99.81-.28.34-.49.72-.63,1.14s-.22.85-.22,1.29Z"/>
    </g>
    <g class="st0">
      <path d="M106.79,65.1c0,.42-.11.8-.32,1.13s-.5.59-.87.78c-.36.19-.76.28-1.19.28h-4.01v-8.5h4.09c.4,0,.74.11,1.04.32.29.21.51.48.67.81.16.33.23.68.23,1.04,0,.42-.11.81-.32,1.17-.21.36-.51.63-.9.8.49.14.87.41,1.16.8.28.39.42.85.42,1.36ZM101.23,59.52v3.14h2.92c.28,0,.53-.07.74-.22.22-.15.39-.34.51-.58.13-.24.19-.49.19-.77,0-.29-.06-.55-.18-.78-.12-.24-.28-.42-.49-.57-.21-.14-.44-.22-.71-.22h-2.99ZM105.95,64.96c0-.29-.06-.55-.19-.8s-.3-.44-.52-.59c-.22-.15-.47-.23-.75-.23h-3.26v3.22h3.17c.29,0,.55-.08.78-.23.23-.15.42-.35.56-.59.14-.24.21-.5.21-.78Z"/>
    </g>
    <g class="st0">
      <path d="M111.27,58.79h.71l3.53,8.5h-.89l-1.06-2.66h-3.88l-1.06,2.66h-.9l3.55-8.5ZM113.29,63.97l-1.68-4.2-1.68,4.2h3.36Z"/>
    </g>
  </g>
  <path class="st1" d="M32.09,38.17h-6.14c0-15.51,12.62-28.14,28.14-28.14v6.14c-12.13,0-22,9.87-22,22Z"/>
  <path class="st1" d="M40.63,38.17h-6.14c0-10.8,8.79-19.59,19.59-19.59v6.14c-7.42,0-13.45,6.03-13.45,13.45Z"/>
  <path class="st1" d="M49.19,38.17h-6.14c0-6.08,4.95-11.03,11.03-11.03v6.14c-2.7,0-4.89,2.19-4.89,4.89Z"/>
</svg>