<?xml version="1.0" encoding="UTF-8"?>
<svg id="Capa_1" data-name="Capa 1" xmlns="http://www.w3.org/2000/svg" viewBox="0 0 150 80">
  <defs>
    <style>
      .cls-1 {
        font-family: Raleway-Black, Raleway;
        font-size: 32.92px;
        font-weight: 800;
      }

      .cls-2 {
        font-family: Raleway-Regular, Raleway;
        font-size: 11.97px;
      }

      .cls-3 {
        fill: #0087c2;
      }

      .cls-4 {
        letter-spacing: -.01em;
      }

      .cls-5 {
        letter-spacing: .02em;
      }

      .cls-6 {
        letter-spacing: .03em;
      }

      .cls-7 {
        letter-spacing: .03em;
      }

      .cls-8 {
        letter-spacing: .03em;
      }

      .cls-9 {
        letter-spacing: .04em;
      }

      .cls-10 {
        letter-spacing: .04em;
      }

      .cls-11 {
        letter-spacing: .03em;
      }

      .cls-12 {
        letter-spacing: 0em;
      }
    </style>
  </defs>
  <text class="cls-1" transform="translate(56.99 38.16)"><tspan class="cls-4" x="0" y="0">CC</tspan><tspan x="44.77" y="0">C</tspan></text>
  <text class="cls-2" transform="translate(3.6 54.54)"><tspan class="cls-11" x="0" y="0">C</tspan><tspan class="cls-10" x="8.54" y="0">ÁMA</tspan><tspan class="cls-8" x="36.58" y="0">R</tspan><tspan class="cls-12" x="44.81" y="0">A</tspan><tspan class="cls-9" x="52.99" y="0" xml:space="preserve"> DE </tspan><tspan class="cls-7" x="76.75" y="0">C</tspan><tspan class="cls-9" x="85.32" y="0">OMERCIO</tspan><tspan class="cls-9" x="30.74" y="12.75">DE </tspan><tspan class="cls-6" x="51" y="12.75">C</tspan><tspan class="cls-10" x="59.56" y="12.75">ÓRDO</tspan><tspan class="cls-5" x="95.73" y="12.75">B</tspan><tspan class="cls-12" x="103.97" y="12.75">A</tspan></text>
  <path class="cls-3" d="M32.09,38.17h-6.14c0-15.51,12.62-28.14,28.14-28.14v6.14c-12.13,0-22,9.87-22,22Z"/>
  <path class="cls-3" d="M40.63,38.17h-6.14c0-10.8,8.79-19.59,19.59-19.59v6.14c-7.42,0-13.45,6.03-13.45,13.45Z"/>
  <path class="cls-3" d="M49.19,38.17h-6.14c0-6.08,4.95-11.03,11.03-11.03v6.14c-2.7,0-4.89,2.19-4.89,4.89Z"/>
</svg>