<?xml version="1.0" encoding="UTF-8"?>
<svg id="Capa_1" data-name="Capa 1" xmlns="http://www.w3.org/2000/svg" viewBox="0 0 178 80">
  <defs>
    <style>
      .cls-1 {
        fill: #00a6cb;
      }

      .cls-2 {
        fill: #595958;
      }

      .cls-3 {
        fill: #0091bd;
      }
    </style>
  </defs>
  <path class="cls-3" d="M9.79,46.25s.62-6.64,7.12-10.26c6.5-3.63,14.54-5.47,22.17-12.21.06-3.85,0-7.2,0-7.2,0,0-3.29,3.3-12.5,7.54-8.07,3.72-12.3,4.88-15.67,10.21-3.82,6.04-1.13,11.93-1.13,11.93Z"/>
  <path class="cls-1" d="M8.23,35.08s1.71-5.38,7.05-8.36c5.34-2.97,11.93-4.28,18.2-9.82.05-3.16,0-7.48,0-7.48,0,0-3.46,4.89-11.2,8.41-6.61,3-9.74,3.83-12.5,8.2-3.13,4.96-1.55,9.05-1.55,9.05Z"/>
  <path class="cls-2" d="M32.91,54.1c-1.53-1.61-2.29-3.88-2.29-6.82s.76-5.22,2.29-6.82c1.53-1.61,3.62-2.41,6.28-2.41s4.72.8,6.26,2.41c1.54,1.61,2.31,3.88,2.31,6.82s-.77,5.22-2.31,6.82c-1.54,1.61-3.63,2.41-6.26,2.41s-4.75-.8-6.28-2.41ZM43.39,52.37c1-1.14,1.49-2.84,1.49-5.1s-.5-3.96-1.49-5.1c-.99-1.14-2.39-1.71-4.2-1.71s-3.23.57-4.22,1.71c-.98,1.14-1.47,2.84-1.47,5.1s.49,3.96,1.47,5.1c.98,1.14,2.39,1.71,4.22,1.71s3.2-.57,4.2-1.71Z"/>
  <path class="cls-2" d="M67.64,55.62c0,.37-.19.55-.55.55h-1.7c-.37,0-.56-.18-.56-.55v-10.78c0-2.83-1.47-4.24-4.41-4.24-1.67,0-2.98.46-3.94,1.39-.96.92-1.44,2.15-1.44,3.68v9.95c0,.37-.18.55-.56.55h-1.7c-.35,0-.52-.18-.52-.55v-16.63c0-.37.17-.55.52-.55h1.67c.37,0,.55.17.55.51l.03,2.22c1.11-2.1,3.16-3.15,6.14-3.15,2.13,0,3.74.57,4.82,1.71,1.09,1.14,1.63,2.71,1.63,4.72v11.15Z"/>
  <path class="cls-2" d="M77.81,56.51c-2.24,0-4.19-.32-5.83-.96-.3-.11-.43-.29-.38-.51l.45-1.44c.09-.34.3-.44.62-.31,1.5.57,3.12.86,4.86.86,1.5,0,2.6-.19,3.3-.56.69-.38,1.04-1.04,1.04-2,0-.82-.36-1.47-1.08-1.95-.72-.48-1.88-1-3.5-1.57-.14-.05-.42-.14-.83-.29-.42-.15-.69-.25-.83-.31-.14-.06-.39-.16-.76-.31-.37-.15-.62-.27-.76-.36l-.62-.41c-.28-.18-.47-.35-.59-.5-.12-.15-.27-.34-.45-.58-.19-.24-.32-.48-.4-.72-.08-.24-.15-.52-.21-.84-.06-.32-.09-.66-.09-1.03,0-3.12,2.09-4.69,6.28-4.69,2.2,0,4.02.33,5.48.99.32.11.44.3.35.55l-.45,1.33c-.07.32-.27.42-.59.31-1.39-.55-2.87-.82-4.44-.82-1.39,0-2.38.18-2.98.53-.6.35-.9.95-.9,1.8s.34,1.48,1.01,1.92c.67.43,1.84.92,3.5,1.47,1.8.62,3.19,1.34,4.16,2.16.97.82,1.46,1.93,1.46,3.32,0,3.28-2.27,4.93-6.8,4.93Z"/>
  <path class="cls-2" d="M92.21,40.91v9.68c0,1.28.2,2.15.59,2.62.39.47,1.17.7,2.33.7.32,0,.67-.05,1.04-.14l.55-.1c.28-.05.45.1.52.44l.35,1.33c.05.23-.07.4-.35.51-.6.27-1.48.41-2.64.41-1.87,0-3.2-.42-3.97-1.25-.77-.83-1.16-2.25-1.16-4.26v-9.96h-2.46c-.37,0-.56-.17-.56-.51v-1.4c0-.37.18-.55.56-.55h2.53v-4.31c0-.34.17-.51.52-.51h1.6c.37,0,.56.17.56.51v4.31h4.58c.37,0,.56.18.56.55v1.4c0,.34-.19.51-.56.51h-4.58Z"/>
  <path class="cls-2" d="M103.31,38.45c.37,0,.55.17.55.51v3.35c.37-.96,1.07-1.85,2.08-2.69,1.02-.83,2.28-1.25,3.78-1.25.28,0,.42.14.42.41v2.16c0,.3-.15.44-.45.44-.05,0-.16-.01-.33-.03-.17-.02-.34-.03-.5-.03-1.39,0-2.57.66-3.54,1.98-.97,1.32-1.46,2.8-1.46,4.45v7.87c0,.37-.18.55-.55.55h-1.7c-.37,0-.56-.18-.56-.55v-16.63c0-.37.18-.55.56-.55h1.7Z"/>
  <path class="cls-2" d="M113.72,39c0-.37.19-.55.56-.55h1.7c.35,0,.52.18.52.55v10.64c0,2.9,1.42,4.34,4.27,4.34,1.57,0,2.86-.45,3.85-1.33.99-.89,1.49-2.1,1.49-3.63v-10.02c0-.37.18-.55.55-.55h1.7c.35,0,.52.18.52.55v16.63c0,.37-.17.55-.52.55h-1.7c-.37,0-.55-.17-.55-.51v-2.26c-1.09,2.07-3.09,3.11-6,3.11-2.15,0-3.75-.57-4.81-1.71-1.05-1.14-1.58-2.71-1.58-4.72v-11.08Z"/>
  <path class="cls-2" d="M137.21,35.61c0,.36-.17.55-.52.55h-1.73c-.35,0-.52-.18-.52-.55v-2.77c0-.36.17-.55.52-.55h1.73c.35,0,.52.18.52.55v2.77ZM137.21,55.62c0,.37-.17.55-.52.55h-1.73c-.35,0-.52-.18-.52-.55v-16.63c0-.37.17-.55.52-.55h1.73c.35,0,.52.18.52.55v16.63Z"/>
  <path class="cls-2" d="M144.98,38.45c.37,0,.55.17.55.51v3.35c.37-.96,1.07-1.85,2.08-2.69,1.02-.83,2.28-1.25,3.78-1.25.28,0,.42.14.42.41v2.16c0,.3-.15.44-.45.44-.05,0-.16-.01-.33-.03-.17-.02-.34-.03-.5-.03-1.39,0-2.57.66-3.54,1.98-.97,1.32-1.46,2.8-1.46,4.45v7.87c0,.37-.18.55-.55.55h-1.7c-.37,0-.56-.18-.56-.55v-16.63c0-.37.18-.55.56-.55h1.7Z"/>
  <path class="cls-2" d="M167.88,53.13c.32-.18.58-.08.76.31l.52,1.27c.07.25-.06.46-.38.62-1.67.84-3.53,1.27-5.59,1.27-2.84,0-5.09-.83-6.73-2.48-1.64-1.65-2.46-3.91-2.46-6.76s.74-5.26,2.22-6.88c1.48-1.62,3.5-2.43,6.07-2.43s4.43.76,5.81,2.27c1.38,1.52,2.06,3.51,2.06,5.97v1.71c0,.37-.2.55-.59.55h-12.8c.12,1.69.76,3.06,1.94,4.1,1.18,1.05,2.72,1.57,4.62,1.57,1.62,0,3.13-.36,4.54-1.09ZM156.77,46.25h10.69v-.17c0-1.73-.44-3.11-1.32-4.14-.88-1.03-2.16-1.54-3.85-1.54-3.47,0-5.31,1.95-5.52,5.85Z"/>
  <path class="cls-2" d="M10.64,49.08c.47,1.67,1.21,3.09,2.24,4.23,1.91,2.13,4.61,3.2,8.1,3.2,2.54,0,4.6-.48,6.18-1.44.32-.16.47-.36.45-.62l-.66-1.47c-.16-.37-.4-.49-.73-.38-1.48.8-3.09,1.2-4.82,1.2-5.55,0-8.33-3.22-8.33-9.65,0-1.43.15-2.7.43-3.82-2.27,2.94-2.6,5.96-2.6,6.01l-.26,2.73Z"/>
</svg>