<?xml version="1.0" encoding="UTF-8"?>
<svg id="Capa_1" data-name="Capa 1" xmlns="http://www.w3.org/2000/svg" viewBox="0 0 206 80">
  <defs>
    <style>
      .cls-1 {
        fill: #005a58;
      }

      .cls-2 {
        fill: #ea5b2e;
      }
    </style>
  </defs>
  <path class="cls-1" d="M16.3,48.69c-1.45,0-2.62-.47-3.51-1.4-.88-.93-1.32-2.18-1.32-3.75s.44-2.82,1.32-3.75c.88-.94,2.05-1.4,3.51-1.4,1.73,0,3.23.8,4.5,2.41l4.39-3.91c-1.02-1.33-2.32-2.36-3.89-3.06-1.57-.71-3.35-1.06-5.35-1.06-2.18,0-4.14.45-5.88,1.37-1.75.91-3.12,2.19-4.11,3.83-.99,1.64-1.49,3.5-1.49,5.58s.49,3.93,1.49,5.57c.99,1.64,2.36,2.92,4.11,3.83,1.74.91,3.71,1.37,5.88,1.37,2,0,3.79-.35,5.35-1.06,1.57-.71,2.87-1.73,3.89-3.06l-4.39-3.91c-1.28,1.61-2.78,2.41-4.5,2.41"/>
  <path class="cls-1" d="M42.68,34.15c-1.76-.92-3.76-1.38-5.97-1.38s-4.21.46-5.97,1.38c-1.77.92-3.15,2.2-4.15,3.84-1,1.64-1.5,3.49-1.5,5.55s.5,3.91,1.5,5.55c1,1.64,2.38,2.92,4.15,3.84,1.77.92,3.76,1.38,5.97,1.38s4.21-.46,5.97-1.38c1.77-.92,3.15-2.2,4.15-3.84,1-1.64,1.5-3.49,1.5-5.55s-.5-3.91-1.5-5.55c-1-1.64-2.38-2.92-4.15-3.84M40.71,46.26c-.41.77-.97,1.37-1.66,1.79-.69.42-1.47.63-2.34.63s-1.65-.21-2.34-.63c-.7-.42-1.25-1.02-1.66-1.79-.41-.78-.62-1.69-.62-2.72s.2-1.95.62-2.72c.41-.78.97-1.37,1.66-1.8.7-.42,1.48-.63,2.34-.63s1.64.21,2.34.63c.7.42,1.25,1.02,1.66,1.8.41.77.62,1.68.62,2.72s-.21,1.95-.62,2.72"/>
  <path class="cls-1" d="M68.26,44.86c.67-1.1,1-2.38,1-3.86,0-1.57-.38-2.94-1.15-4.12-.76-1.18-1.86-2.08-3.27-2.7-1.41-.63-3.07-.94-4.97-.94h-9.92v20.6h6.95v-5.18h1.89l3.5,5.18h7.42l-4.33-6.36c1.26-.65,2.22-1.52,2.88-2.62M61.56,42.79c-.47.42-1.18.63-2.12.63h-2.53v-4.83h2.53c.94,0,1.65.21,2.12.63.47.42.71,1.01.71,1.78s-.24,1.36-.71,1.78"/>
  <path class="cls-1" d="M87.31,34.49c-1.76-.84-3.79-1.25-6.08-1.25h-10.15v20.6h10.15c2.29,0,4.32-.42,6.08-1.25,1.75-.84,3.12-2.02,4.09-3.57.98-1.55,1.46-3.38,1.46-5.47s-.48-3.93-1.46-5.48c-.97-1.55-2.33-2.74-4.09-3.57M84.51,47.14c-.89.85-2.08,1.28-3.57,1.28h-2.91v-9.77h2.91c1.49,0,2.68.43,3.57,1.28.89.85,1.34,2.06,1.34,3.61s-.45,2.75-1.34,3.61"/>
  <path class="cls-1" d="M135.14,43.06c.94-.47,1.65-1.09,2.13-1.85.48-.77.72-1.63.72-2.59,0-1.63-.7-2.93-2.11-3.91-1.4-.98-3.48-1.47-6.23-1.47h-11v20.6h11.59c2.83,0,4.98-.5,6.47-1.49,1.49-.99,2.24-2.39,2.24-4.2,0-1.21-.33-2.26-1.01-3.12-.66-.86-1.61-1.52-2.82-1.97M125.49,38.09h3.24c1.51,0,2.26.51,2.26,1.53s-.75,1.53-2.26,1.53h-3.24v-3.06ZM129.67,48.98h-4.18v-3.24h4.18c1.53,0,2.3.54,2.3,1.62s-.76,1.62-2.3,1.62"/>
  <path class="cls-1" d="M192.53,33.24h-6.83l-9.01,20.6h7.06l1.39-3.59h7.83l1.38,3.59h7.18l-9.01-20.6ZM187.05,45.24l2-5.18,2,5.18h-4Z"/>
  <path class="cls-1" d="M111.35,34.31c-1.75-.91-3.73-1.37-5.94-1.37s-4.18.46-5.93,1.37c-1.75.92-3.13,2.19-4.12,3.82-1,1.63-1.49,3.46-1.49,5.51s.5,3.88,1.49,5.51c1,1.63,2.37,2.9,4.12,3.81,1.75.92,3.73,1.38,5.93,1.38s4.18-.46,5.94-1.38c1.75-.91,3.13-2.19,4.12-3.81.99-1.63,1.49-3.46,1.49-5.51s-.5-3.88-1.49-5.51c-.99-1.63-2.37-2.9-4.12-3.82M109.39,46.34c-.41.77-.96,1.36-1.65,1.78-.69.42-1.47.63-2.33.63s-1.64-.21-2.32-.63c-.69-.42-1.24-1.01-1.65-1.78-.41-.77-.62-1.67-.62-2.71s.21-1.93.62-2.7c.4-.77.95-1.37,1.65-1.78.69-.42,1.47-.63,2.32-.63s1.63.21,2.33.63c.69.42,1.24,1.01,1.65,1.78.41.77.62,1.67.62,2.7s-.21,1.93-.62,2.71"/>
  <path class="cls-2" d="M115.6,32l4.74-4.24c-3.9-4.05-9.26-6.09-14.71-6.09s-10.58,1.88-14.8,5.66l4.4,4.57c6.01-5.38,15.15-5.33,20.37.1"/>
  <polygon class="cls-1" points="157.7 48.6 147.4 48.6 147.4 45.89 156.11 45.89 156.11 40.89 147.4 40.89 147.4 38.47 157.32 38.47 157.32 33.23 140.57 33.23 140.57 53.84 157.7 53.84 157.7 52.33 157.7 51.52 157.7 48.6"/>
  <path class="cls-1" d="M176.21,43.83c-.8-.86-1.73-1.49-2.81-1.87-1.08-.38-2.4-.72-3.97-1.02-1.22-.24-2.09-.46-2.63-.66-.53-.21-.79-.52-.79-.93,0-.86.89-1.3,2.68-1.3s3.72.51,5.74,1.53l2.09-5.03c-1.04-.59-2.25-1.04-3.61-1.34-1.37-.3-2.75-.45-4.16-.45-2.06,0-3.82.3-5.26.91-1.44.61-2.53,1.44-3.25,2.5-.72,1.06-1.09,2.24-1.09,3.53,0,1.49.39,2.67,1.18,3.55.78.87,1.71,1.5,2.77,1.88,1.06.39,2.38.74,3.97,1.08,1.23.25,2.12.49,2.66.71.54.22.81.54.81.97,0,.37-.21.65-.62.84-.41.19-1.1.28-2.06.28-1.12,0-2.29-.17-3.5-.51-1.22-.34-2.32-.8-3.3-1.37l-.86,1.95-1.38,3.11c.3.18.62.34.94.49.87.42,1.87.78,3.05,1.06,1.62.38,3.28.58,4.99.58,2.06,0,3.81-.31,5.26-.93,1.44-.62,2.52-1.45,3.25-2.5.73-1.05,1.09-2.22,1.09-3.52,0-1.49-.39-2.67-1.19-3.53"/>
</svg>