<?xml version="1.0" encoding="UTF-8"?>
<svg id="Capa_1" data-name="Capa 1" xmlns="http://www.w3.org/2000/svg" viewBox="0 0 150 80">
  <defs>
    <style>
      .cls-1 {
        fill: #0c6735;
      }

      .cls-2 {
        fill: #666665;
      }

      .cls-3 {
        fill: #00953b;
      }
    </style>
  </defs>
  <polyline class="cls-1" points="55.88 30.56 53.31 30.56 53.31 23.03 45.76 23.01 45.77 20.43 55.88 20.48"/>
  <path class="cls-3" d="M45.3,41.62c-5.83,0-10.58-4.75-10.58-10.58s4.75-10.56,10.58-10.56v2.55c-4.42,0-8.01,3.6-8.01,8.01s3.59,8.03,8.01,8.03,8.01-3.6,8.01-8.03h2.56c0,5.83-4.74,10.58-10.58,10.58"/>
  <polyline class="cls-2" points="88.81 20.41 88.81 41.55 86.66 41.55 86.66 24.64 78.36 38.84 77.31 38.84 69.01 24.74 69.01 41.55 66.86 41.55 66.86 20.41 68.7 20.41 77.88 36.07 86.96 20.41"/>
  <path class="cls-2" d="M116.18,35.89h-11.77l-2.53,5.65h-2.32l9.66-21.14h2.2l9.66,21.14h-2.35M115.36,34.09l-5.07-11.36-5.07,11.36h10.14Z"/>
  <polyline class="cls-2" points="134.86 22.33 127.43 22.33 127.43 20.41 144.52 20.41 144.52 22.33 137.09 22.33 137.09 41.55 134.86 41.55"/>
  <path class="cls-2" d="M5.53,20.38h8.75c2.27,0,4.28.48,6.01,1.38,1.74.9,3.09,2.18,4.05,3.8.96,1.63,1.44,3.48,1.44,5.58s-.48,3.93-1.44,5.55c-.96,1.63-2.31,2.9-4.05,3.8-1.74.93-3.74,1.38-6.01,1.38H5.53M14.15,39.92c1.88,0,3.53-.38,4.94-1.13,1.41-.75,2.5-1.78,3.28-3.1.78-1.33,1.17-2.85,1.17-4.55s-.39-3.25-1.17-4.55c-.78-1.33-1.87-2.35-3.28-3.1-1.41-.75-3.06-1.13-4.94-1.13h-6.35v17.56h6.35Z"/>
  <g>
    <path class="cls-2" d="M5.48,59.48v-7.75h1.11v7.75h-1.11ZM6.4,55.98v-.91h4.25v.91h-4.25ZM10.41,59.48v-7.75h1.11v7.75h-1.11Z"/>
    <path class="cls-2" d="M17.27,59.48l2.86-7.75h1.21l2.84,7.75h-1.17l-2.27-6.42-2.29,6.42h-1.16ZM18.57,57.57l.3-.89h3.66l.3.89h-4.25Z"/>
    <path class="cls-2" d="M29.93,59.48v-7.75h2.87c.54,0,.99.09,1.35.26.36.17.63.41.81.71.18.3.27.64.27,1.01s-.08.72-.25.99-.39.47-.67.61c-.28.14-.57.23-.89.25l.16-.11c.34,0,.65.1.93.27.28.17.5.4.66.69.16.29.24.61.24.95,0,.4-.1.76-.29,1.08-.19.32-.48.57-.85.76-.38.18-.84.28-1.38.28h-2.96ZM31.04,55.08h1.64c.47,0,.82-.11,1.06-.33.24-.22.37-.52.37-.9s-.12-.66-.37-.88c-.24-.22-.61-.33-1.1-.33h-1.61v2.44ZM31.04,58.57h1.71c.49,0,.87-.11,1.14-.34.27-.22.4-.54.4-.96s-.14-.73-.42-.97c-.28-.24-.66-.37-1.15-.37h-1.68v2.64Z"/>
    <path class="cls-2" d="M41.36,59.48v-7.75h1.11v7.75h-1.11Z"/>
    <path class="cls-2" d="M50.54,59.48v-6.85h-2.3v-.91h5.7v.91h-2.29v6.85h-1.11Z"/>
    <path class="cls-2" d="M58.35,59.48l2.86-7.75h1.21l2.84,7.75h-1.17l-2.27-6.42-2.29,6.42h-1.16ZM59.64,57.57l.3-.89h3.66l.3.89h-4.25ZM60.62,51.25v-.81l2.39-1.38v.93l-2.39,1.26Z"/>
    <path class="cls-2" d="M80.24,59.48v-7.33h-2.35v-.42h5.18v.42h-2.34v7.33h-.5Z"/>
    <path class="cls-2" d="M91.56,59.62c-.5,0-.96-.1-1.37-.3s-.74-.52-.98-.94c-.24-.42-.37-.97-.37-1.64v-5h.5v4.99c0,.58.1,1.04.29,1.41.19.36.46.63.79.79.34.17.71.25,1.14.25s.82-.08,1.14-.25c.32-.17.58-.43.77-.79s.28-.83.28-1.41v-4.99h.5v5c0,.67-.12,1.22-.35,1.64-.24.43-.56.74-.96.94-.41.2-.86.3-1.37.3Z"/>
    <path class="cls-2" d="M110.23,59.48l-3.01-7.75h.55l2.75,7.18,2.76-7.18h.54l-3.02,7.75h-.57Z"/>
    <path class="cls-2" d="M119.58,59.48v-7.75h.5v7.75h-.5Z"/>
    <path class="cls-2" d="M126.42,59.48v-7.75h2.14c.92,0,1.67.15,2.26.46.59.31,1.03.75,1.31,1.33.28.58.42,1.29.42,2.12,0,.76-.14,1.43-.4,2.01-.27.58-.69,1.03-1.27,1.35-.58.32-1.33.48-2.27.48h-2.18ZM126.92,59.06h1.67c.8,0,1.46-.14,1.97-.42.51-.28.88-.67,1.11-1.18s.35-1.12.35-1.83-.11-1.33-.34-1.86c-.23-.52-.6-.92-1.1-1.21s-1.17-.43-1.99-.43h-1.67v6.91Z"/>
    <path class="cls-2" d="M137.47,59.48l2.85-7.75h.53l2.81,7.75h-.52l-2.56-7.11-2.58,7.11h-.53ZM138.69,57.04l.17-.42h3.44l.17.42h-3.78Z"/>
  </g>
</svg>