<?xml version="1.0" encoding="UTF-8"?>
<svg id="Capa_1" data-name="Capa 1" xmlns="http://www.w3.org/2000/svg" xmlns:xlink="http://www.w3.org/1999/xlink" viewBox="0 0 154 80">
  <defs>
    <style>
      .cls-1 {
        fill: #dedbad;
      }

      .cls-2 {
        fill: none;
      }

      .cls-3 {
        fill: #c4bd85;
      }

      .cls-4 {
        fill: #dad5a6;
      }

      .cls-5 {
        fill: #c3bb84;
      }

      .cls-6 {
        fill: #d5d09f;
      }

      .cls-7 {
        fill: #bfb67c;
      }

      .cls-8 {
        fill: #d6d2a1;
      }

      .cls-9 {
        fill: #b7ad71;
      }

      .cls-10 {
        fill: #b6ac70;
      }

      .cls-11 {
        fill: #bcb379;
      }

      .cls-12 {
        fill: #c6be88;
      }

      .cls-13 {
        fill: #c7bf88;
      }

      .cls-14 {
        fill: #d0ca97;
      }

      .cls-15 {
        fill: #d8d4a4;
      }

      .cls-16 {
        fill: #beb579;
      }

      .cls-17 {
        fill: #bfb77d;
      }

      .cls-18 {
        fill: #d1cc9a;
      }

      .cls-19 {
        fill: #ccc692;
      }

      .cls-20 {
        fill: #d3cf9e;
      }

      .cls-21 {
        fill: #cac38d;
      }

      .cls-22 {
        fill: #b4ab6d;
      }

      .cls-23 {
        fill: #dedbae;
      }

      .cls-24 {
        fill: #c1b980;
      }

      .cls-25 {
        fill: #e2deb2;
      }

      .cls-26 {
        fill: #c0b87e;
      }

      .cls-27 {
        fill: #beb57b;
      }

      .cls-28 {
        fill: #000001;
      }

      .cls-29 {
        fill: #cbc48e;
      }

      .cls-30 {
        fill: #cec895;
      }

      .cls-31 {
        fill: #cec793;
      }

      .cls-32 {
        fill: #b7ae72;
      }

      .cls-33 {
        fill: #e0ddb1;
      }

      .cls-34 {
        fill: #d0cb98;
      }

      .cls-35 {
        fill: #b9b074;
      }

      .cls-36 {
        fill: #b3a96c;
      }

      .cls-37 {
        fill: #e0dcaf;
      }

      .cls-38 {
        fill: #b9b073;
      }

      .cls-39 {
        fill: #d7d3a3;
      }

      .cls-40 {
        fill: #e2e0b4;
      }

      .cls-41 {
        fill: #c2ba80;
      }

      .cls-42 {
        fill: #cbc38d;
      }

      .cls-43 {
        fill: #c5bf87;
      }

      .cls-44 {
        fill: #e1deb2;
      }

      .cls-45 {
        fill: #bbb378;
      }

      .cls-46 {
        fill: #bbb376;
      }

      .cls-47 {
        fill: #cbc58f;
      }

      .cls-48 {
        fill: #b8af73;
      }

      .cls-49 {
        fill: #c3bb81;
      }

      .cls-50 {
        fill: #dddaac;
      }

      .cls-51 {
        fill: #c8c18a;
      }

      .cls-52 {
        fill: #bdb57a;
      }

      .cls-53 {
        fill: #d1cd9b;
      }

      .cls-54 {
        fill: #cec894;
      }

      .cls-55 {
        fill: #d6d1a2;
      }

      .cls-56 {
        fill: #bab176;
      }

      .cls-57 {
        fill: #ccc591;
      }

      .cls-58 {
        fill: #d5bc8c;
      }

      .cls-59 {
        fill: #d9d5a6;
      }

      .cls-60 {
        fill: #c5bd85;
      }

      .cls-61 {
        fill: #d3ce9c;
      }

      .cls-62 {
        fill: #d3cf9d;
      }

      .cls-63 {
        fill: #cfc996;
      }

      .cls-64 {
        fill: #cac38c;
      }

      .cls-65 {
        fill: #dad6a7;
      }

      .cls-66 {
        fill: #c0b87f;
      }

      .cls-67 {
        fill: #d4d09f;
      }

      .cls-68 {
        fill: #dcd9ab;
      }

      .cls-69 {
        fill: #e2dfb4;
      }

      .cls-70 {
        fill: #d0cb99;
      }

      .cls-71 {
        fill: #b5ac6f;
      }

      .cls-72 {
        fill: #dfdbae;
      }

      .cls-73 {
        fill: #c2ba83;
      }

      .cls-74 {
        fill: #dbd7a9;
      }

      .cls-75 {
        fill: #dcd8aa;
      }

      .cls-76 {
        fill: #c1bc8c;
      }

      .cls-77 {
        clip-path: url(#clippath);
      }
    </style>
    <clipPath id="clippath">
      <path class="cls-2" d="M88.37,15.04s-.07.02-.1.02c0,0,0-.02.01-.03.06,0,.09,0,.09,0ZM84.7,20.34c.38-.36.74-.73,1.08-1.13-.39.38-.74.75-1.08,1.13ZM68.1,22.68c1.65.85,3.48,1.39,5.42,1.55,1.16-1.71,5.37-6.91,14.76-9.17,0,0,0-.02.01-.03-1.09-.08-12.27-.69-20.19,7.65ZM77.05,24.1c2.93-.47,5.57-1.82,7.64-3.76.33-.37.69-.75,1.08-1.13.85-1,1.57-2.1,2.14-3.3-3.13,1.27-7.49,3.7-10.86,8.19ZM88.25,13.75s-14.13-.69-22.89,7.11c-1.6-1.35-2.91-3.04-3.81-4.97.8.24,1.5.49,2.11.74.5-.22,1.03-.45,1.59-.68-1.36-.81-2.91-1.41-4.39-1.83-.13-.39-.23-.79-.32-1.19,3.4.31,5.96,1.32,7.42,2.04.57-.19,1.17-.37,1.78-.54-3.05-2.07-7.44-2.87-9.47-3.14,0-.08-.02-.16-.02-.25,1.88-.17,3.59-.11,5.11.09v-.79c-.19-.09-.38-.22-.5-.35-.57-.56-.77-1.48-.47-2.22.12-.3.31-.57.35-.89.07-.51-.25-1.01-.18-1.51.13-1.02,1.52-1.23,1.94-.29.16.35.14.76.08,1.13-.07.37-.18.77-.05,1.12.09.24.29.42.35.67.07.31.11.63.08.94-.03.38-.16.75-.41,1.04-.17.19-.43.38-.7.43v.8c1.12.17,2.13.42,3.02.69v-1.84c-.21-.09-.42-.25-.56-.39-.64-.63-.85-1.65-.52-2.48.13-.33.34-.64.39-.99.08-.57-.28-1.12-.21-1.69.14-1.14,1.69-1.36,2.16-.33.18.39.16.84.09,1.26-.08.42-.2.85-.05,1.25.1.26.33.47.39.74.08.34.12.7.09,1.05-.04.42-.18.84-.45,1.15-.19.22-.48.42-.78.48v1.95c1.78.6,2.99,1.27,3.52,1.6.26-.05.52-.1.78-.15v-5.03l-.91-.03,2.03-3.17,5.11-2.47,5.11,2.52,1.76,3.17h-.82v4.81c.74.11,1.49.25,2.24.42ZM78.95,6.65c0,.48.39.88.88.88s.88-.4.88-.88-.4-.88-.88-.88-.88.4-.88.88ZM82.66,10.2h-5.67v2.88h5.67v-2.88Z"/>
    </clipPath>
  </defs>
  <g>
    <path class="cls-76" d="M18.09,47.26c-.86-.95-1.73-1.81-2.48-2.77-1.2-1.53-1.95-3.28-2.07-5.25-.12-1.79.34-3.48,1.11-5.08,1.41-2.94,3.68-5.05,6.49-6.63,2.79-1.56,5.79-2.42,8.98-2.54,2.65-.1,5.17.39,7.47,1.8,2.01,1.23,3.18,3.01,3.56,5.35.46,2.88.01,5.65-.96,8.36-2.08,5.75-5.77,10.21-11,13.37-2.95,1.79-6.16,2.79-9.61,2.97-.49.03-.97.04-1.46.06-.93.05-1.64.48-2.23,1.19-.81.98-1.6,2-2.5,2.9-1.52,1.51-3.37,2.36-5.56,2.38-.94,0-1.85-.13-2.71-.49-1.77-.74-2.51-2.24-2.04-4.13.4-1.6,1.44-2.69,2.82-3.48,2.03-1.16,4.24-1.57,6.55-1.57.4,0,.79.01,1.19,0,1.13-.03,1.84-.68,2.29-1.64.63-1.35,1.22-2.72,1.83-4.08.13-.29.27-.57.36-.75ZM38.64,33.51c-.01-.16-.02-.32-.04-.47-.25-1.84-1.09-3.29-2.78-4.16-1.37-.71-2.84-1.09-4.38-1.2-1.13-.08-1.71.29-2.19,1.33-.29.64-.58,1.27-.87,1.91-2.18,4.81-4.37,9.63-6.55,14.44-.17.37-.12.72.21.93.28.18.63.28.96.35.42.1.86.09,1.27.21.88.27,1.1,1.13.48,1.81-.38.42-.87.62-1.43.58-.66-.05-1.32-.15-1.98-.24-.71-.09-1.32.21-1.6.87-.39.89-.77,1.78-1.12,2.69-.42,1.09-.07,1.6,1.1,1.53.89-.06,1.78-.2,2.64-.4,3.91-.93,7.2-2.96,10.05-5.75,2.76-2.7,4.51-5.99,5.59-9.66.46-1.56.75-3.14.63-4.78ZM16.23,39.39c.03.61.27,1.41.66,2.18.4.8.85,1.57,1.55,2.16.56.47,1.01.39,1.34-.26.31-.62.59-1.25.86-1.88,1.53-3.51,3.05-7.02,4.58-10.53.22-.51.49-1,.65-1.52.08-.26.05-.63-.09-.85-.16-.25-.5-.12-.75-.01-.46.19-.92.37-1.36.6-2.44,1.25-4.57,2.87-6.11,5.17-.95,1.42-1.47,2.97-1.31,4.95ZM7.44,60.9c1.03-.11,1.74-.36,2.41-.72,1.04-.55,1.93-1.3,2.7-2.18.31-.35.48-.76.27-1.22-.21-.45-.64-.4-1.03-.38-1.52.07-2.96.47-4.32,1.15-.7.35-1.27.86-1.69,1.53-.44.7-.31,1.21.45,1.51.46.18.97.25,1.21.31Z"/>
    <path class="cls-58" d="M50.7,52.27c-.74-.1-1.45-.17-2.16-.28-.54-.09-.86.18-1.19.54-.61.67-1.21,1.34-1.87,1.95-.72.66-1.59,1.09-2.57,1.21-2.6.31-4.64-1.64-4.52-4.26.12-2.49.76-4.81,2.02-6.96,1.05-1.8,2.44-3.28,4.39-4.13.79-.34,1.61-.43,2.45-.24.97.22,1.37,1.39.75,2.17-.24.31-.59.44-.94.34-1.47-.4-2.48.35-3.34,1.35-1.8,2.06-2.73,4.5-2.98,7.21-.04.39.04.82.14,1.2.15.54.55.8,1.12.8,1.44,0,2.43-.78,3.24-1.87.25-.33.2-.7.01-1.06-.22-.42-.5-.83-.61-1.27-.46-1.75.17-3.24,1.23-4.6.42-.54.97-.92,1.63-1.11.84-.24,1.66-.16,2.43.27.87.49,1.02,1.31.94,2.2-.08.95-.43,1.82-.83,2.67-.04.09-.09.18-.13.27-.24.61.12,1.08.76.94.33-.08.66-.26.91-.48.58-.5.97-1.15,1.28-1.85,1-2.27,1.99-4.55,2.99-6.83.35-.79,1.16-1.05,1.84-.61.29.19.46.43.38.79-.02.08-.03.16-.01.24.04.14.07.35.17.4.1.06.31,0,.42-.08.79-.54,1.58-1.09,2.5-1.4.71-.24,1.42-.34,2.16-.09,1.18.4,1.65,1.14,1.5,2.39-.18,1.46-.74,2.81-1.3,4.16-.52,1.25-.99,2.52-1.48,3.78-.07.18-.09.37-.11.56-.05.48.13.67.58.52.4-.13.84-.3,1.12-.59.62-.64,1.18-1.34,1.69-2.06,1.08-1.51,1.86-3.19,2.68-4.86.82-1.65,1.97-3.06,3.52-4.1,1.38-.92,2.88-1.27,4.47-.59.5.21.96.55,1.4.88.55.41.81.39,1.18-.18.24-.37.45-.76.72-1.1.44-.56,1.01-.65,1.55-.29.59.39.74.94.4,1.59-.99,1.88-2,3.75-2.98,5.63-.44.86-.94,1.71-1.04,2.7-.05.49-.03.98.41,1.29.44.32.92.16,1.35-.05.63-.3,1.11-.78,1.5-1.35.63-.92,1.23-1.87,1.83-2.81.21-.33.4-.68.6-1.02.38-.63.86-.83,1.4-.55.63.32.92,1.04.62,1.66-.26.53-.56,1.03-.86,1.54-.85,1.43-1.73,2.84-2.91,4.03-.75.75-1.58,1.41-2.66,1.6-1.01.18-1.96.04-2.74-.72-.11-.11-.23-.21-.36-.31-.43-.36-.73-.34-1.11.07-.28.3-.51.63-.8.92-1.12,1.09-2.47,1.59-4.02,1.4-1.51-.19-2.4-1.14-2.86-2.55-.04-.13-.08-.26-.12-.41-.38.4-.73.79-1.1,1.16-1,.96-2.15,1.6-3.57,1.69-.26.02-.52.01-.78-.02-.67-.07-1.13-.53-1.29-1.26-.24-1.09-.11-2.17.21-3.21.32-1.06.76-2.07,1.17-3.1.37-.93.77-1.86,1.12-2.8.15-.4.27-.85-.13-1.2-.38-.33-.8-.16-1.18,0-1.59.67-2.85,1.76-3.89,3.13-1.75,2.32-2.97,4.93-4.07,7.6-.14.33-.27.67-.41,1-.24.58-.55.8-1.07.74-.49-.06-1.02-.52-1.05-1.01-.02-.33.1-.68.16-1.02.02-.12.07-.24.08-.3ZM76.68,42.87c-.06-.23-.09-.39-.15-.53-.53-1.17-2.17-1.78-3.28-1.16-.51.28-.98.69-1.38,1.13-1.44,1.61-2.36,3.52-3.04,5.55-.24.71-.38,1.44-.28,2.2.1.75.58,1.26,1.28,1.4.48.09.95,0,1.32-.28.59-.45,1.19-.92,1.66-1.48,1.51-1.78,2.61-3.82,3.61-5.92.14-.3.19-.64.26-.91ZM46.76,47.77c.13.21.25.41.38.62.18-.15.42-.27.51-.47.22-.45.4-.93.55-1.41.04-.14,0-.39-.11-.47-.11-.08-.35-.06-.49,0-.16.07-.32.22-.42.37-.27.39-.38.84-.42,1.36Z"/>
    <path class="cls-76" d="M113.9,17.41c1.77-.1,3.72.13,5.62.85,4.1,1.56,5.57,7.74,1.22,10.9-1.55,1.12-3.25,1.66-5.17,1.29-1.85-.36-3.15-1.72-3.39-3.58-.08-.6-.09-1.22-.08-1.82.02-.85.4-1.28,1.1-1.3.79-.02,1.49.56,1.55,1.31.03.31,0,.63.02.95.1,1.14.83,1.84,1.98,1.78,1.73-.1,3.03-.94,3.78-2.51.57-1.19.16-2.7-.93-3.73-.91-.86-2.03-1.28-3.24-1.4-3.44-.35-6.52.58-9.17,2.79-1.33,1.11-2.09,2.56-2.14,4.33-.05,1.57.51,2.91,1.68,3.95.95.85,2.03,1.51,3.26,1.89.43.13.88.19,1.33.21,1.02.04,1.66.79,1.44,1.75-.12.52-.5.9-1.03.93-.55.03-1.11,0-1.66-.01-4.64-.09-8.71,1.38-12.12,4.54-1.5,1.4-2.6,3.1-3.16,5.1-.72,2.52.11,4.62,2.33,6,1.3.81,2.74,1.15,4.26,1.19,2.95.09,5.65-.81,8.24-2.12,3.11-1.57,5.84-3.68,8.42-6,.15-.14.3-.27.47-.39.43-.3.89-.42,1.36-.14.48.29.67.75.62,1.3-.05.54-.34.95-.74,1.29-1.27,1.05-2.52,2.14-3.82,3.15-2.19,1.7-4.54,3.15-7.13,4.2-2.07.84-4.2,1.39-6.45,1.42-2.06.02-4.05-.29-5.92-1.21-3.58-1.75-5.3-5.63-4.23-9.47.82-2.92,2.57-5.19,4.87-7.09,1.99-1.64,4.23-2.8,6.68-3.56.1-.03.19-.06.29-.1.63-.28.77-.73.4-1.31-.2-.31-.44-.6-.65-.91-1.75-2.64-1.97-5.37-.46-8.2.84-1.58,2.03-2.85,3.49-3.86,1.99-1.37,4.39-2.2,7.07-2.4Z"/>
    <path class="cls-76" d="M133.47,45.24c-.65.36-1.26.79-1.93,1.05-1.33.5-2.58.24-3.67-.69-.59-.5-.77-.52-1.32.06-1.26,1.35-2.71,2.46-4.28,3.41-.11.06-.21.13-.32.18-.75.36-1.23.2-1.62-.54-1.25-2.34-1.53-4.82-1.05-7.4.4-2.19,1.25-4.21,2.4-6.12.4-.66,1.07-.87,1.72-.57.63.3.82.85.46,1.45-.72,1.2-1.34,2.43-1.75,3.77-.56,1.84-.81,3.7-.42,5.62.19.92.51,1.03,1.23.42.62-.52,1.26-1.03,1.88-1.56.26-.23.5-.49.71-.77.25-.33.3-.72.22-1.13-.6-2.89.19-5.38,2.22-7.5.5-.53,1.06-.98,1.78-1.19,1.13-.32,1.9.14,2.17,1.29.36,1.53.08,2.98-.55,4.39-.48,1.08-1.15,2.05-1.88,2.97-.52.65-.32,1.26.51,1.47.73.18,1.46.11,1.99-.46.53-.57,1.03-1.18,1.41-1.85.61-1.06,1.1-2.2,1.68-3.28.87-1.62,1.98-3.06,3.53-4.09,1.38-.92,2.88-1.26,4.47-.58.48.2.93.52,1.34.84.6.47.84.45,1.24-.18.24-.37.45-.76.73-1.1.43-.53,1-.61,1.53-.26.58.39.73.93.4,1.56-.89,1.69-1.79,3.37-2.68,5.06-.35.67-.68,1.35-1,2.04-.25.54-.41,1.1-.35,1.71.07.78.54,1.12,1.3.96.6-.13,1.09-.47,1.46-.93.51-.61.98-1.24,1.42-1.9.54-.82,1.02-1.68,1.52-2.53.37-.62.85-.81,1.38-.56.61.29.91.97.68,1.59-.01.03-.02.06-.04.09-1.11,1.97-2.2,3.96-3.8,5.59-.74.75-1.57,1.38-2.64,1.57-1,.18-1.94.04-2.71-.7-.12-.12-.25-.23-.38-.34-.43-.35-.73-.34-1.11.08-.28.3-.51.64-.8.92-1.12,1.09-2.47,1.57-4.02,1.4-1.52-.17-2.65-1.35-2.97-2.98-.02-.12-.05-.23-.06-.29ZM135.55,44.31c.08,1.07.49,1.61,1.23,1.79.49.12.94.01,1.37-.22.68-.37,1.21-.9,1.7-1.49,1.2-1.43,2.14-3.03,2.99-4.68.27-.53.56-1.07.74-1.63.1-.33.11-.77-.03-1.08-.51-1.2-2.18-1.78-3.3-1.14-.5.28-.95.69-1.34,1.12-1.29,1.42-2.12,3.11-2.81,4.88-.33.85-.57,1.71-.54,2.44ZM127.77,39.97c.12.15.21.35.31.35.14,0,.33-.1.41-.22.59-.89.96-1.86,1.16-2.9.02-.12-.09-.28-.13-.41-.12.07-.28.12-.34.23-.34.52-.69,1.04-.96,1.59-.2.42-.3.89-.44,1.36Z"/>
    <path class="cls-76" d="M62.65,36.52c-.54.07-1.06-.12-1.53-.47-.31-.23-.59-.49-.89-.73-.52-.41-1.01-.28-1.27.34-.09.22-.15.45-.24.67-.21.49-.65.61-1.07.27-.34-.27-.48-.65-.36-1.06.13-.43.28-.86.52-1.24.69-1.11,2.11-1.34,3.15-.53.3.24.58.51.87.75.54.44,1.01.38,1.41-.18.16-.23.29-.48.46-.71.13-.17.26-.35.43-.46.48-.3.98-.01,1,.55.04,1.41-1.05,2.66-2.49,2.8Z"/>
  </g>
  <g>
    <path class="cls-28" d="M17.09,46.43c-.86-.95-1.73-1.81-2.48-2.77-1.2-1.53-1.95-3.28-2.07-5.25-.12-1.79.34-3.48,1.11-5.08,1.41-2.94,3.68-5.05,6.49-6.63,2.79-1.56,5.79-2.42,8.98-2.54,2.65-.1,5.17.39,7.47,1.8,2.01,1.23,3.18,3.01,3.56,5.35.46,2.88.01,5.65-.96,8.36-2.08,5.75-5.77,10.21-11,13.37-2.95,1.79-6.16,2.79-9.61,2.97-.49.03-.97.04-1.46.06-.93.05-1.64.48-2.23,1.19-.81.98-1.6,2-2.5,2.9-1.52,1.51-3.37,2.36-5.56,2.38-.94,0-1.85-.13-2.71-.49-1.77-.74-2.51-2.24-2.04-4.13.4-1.6,1.44-2.69,2.82-3.48,2.03-1.16,4.24-1.57,6.55-1.57.4,0,.79.01,1.19,0,1.13-.03,1.84-.68,2.29-1.64.63-1.35,1.22-2.72,1.83-4.08.13-.29.27-.57.36-.75ZM37.65,32.68c-.01-.16-.02-.32-.04-.47-.25-1.84-1.09-3.29-2.78-4.16-1.37-.71-2.84-1.09-4.38-1.2-1.13-.08-1.71.29-2.19,1.33-.29.64-.58,1.27-.87,1.91-2.18,4.81-4.37,9.63-6.55,14.44-.17.37-.12.72.21.93.28.18.63.28.96.35.42.1.86.09,1.27.21.88.27,1.1,1.13.48,1.81-.38.42-.87.62-1.43.58-.66-.05-1.32-.15-1.98-.24-.71-.09-1.32.21-1.6.87-.39.89-.77,1.78-1.12,2.69-.42,1.09-.07,1.6,1.1,1.53.89-.06,1.78-.2,2.64-.4,3.91-.93,7.2-2.96,10.05-5.75,2.76-2.7,4.51-5.99,5.59-9.66.46-1.56.75-3.14.63-4.78ZM15.23,38.55c.03.61.27,1.41.66,2.18.4.8.85,1.57,1.55,2.16.56.47,1.01.39,1.34-.26.31-.62.59-1.25.86-1.88,1.53-3.51,3.05-7.02,4.58-10.53.22-.51.49-1,.65-1.52.08-.26.05-.63-.09-.85-.16-.25-.5-.12-.75-.01-.46.19-.92.37-1.36.6-2.44,1.25-4.57,2.87-6.11,5.17-.95,1.42-1.47,2.97-1.31,4.95ZM6.45,60.06c1.03-.11,1.74-.36,2.41-.72,1.04-.55,1.93-1.3,2.7-2.18.31-.35.48-.76.27-1.22-.21-.45-.64-.4-1.03-.38-1.52.07-2.96.47-4.32,1.15-.7.35-1.27.86-1.69,1.53-.44.7-.31,1.21.45,1.51.46.18.97.25,1.21.31Z"/>
    <path class="cls-28" d="M49.71,51.44c-.74-.1-1.45-.17-2.16-.28-.54-.09-.86.18-1.19.54-.61.67-1.21,1.34-1.87,1.95-.72.66-1.59,1.09-2.57,1.21-2.6.31-4.64-1.64-4.52-4.26.12-2.49.76-4.81,2.02-6.96,1.05-1.8,2.44-3.28,4.39-4.13.79-.34,1.61-.43,2.45-.24.97.22,1.37,1.39.75,2.17-.24.31-.59.44-.94.34-1.47-.4-2.48.35-3.34,1.35-1.8,2.06-2.73,4.5-2.98,7.21-.04.39.04.82.14,1.2.15.54.55.8,1.12.8,1.44,0,2.43-.78,3.24-1.87.25-.33.2-.7.01-1.06-.22-.42-.5-.83-.61-1.27-.46-1.75.17-3.24,1.23-4.6.42-.54.97-.92,1.63-1.11.84-.24,1.66-.16,2.43.27.87.49,1.02,1.31.94,2.2-.08.95-.43,1.82-.83,2.67-.04.09-.09.18-.13.27-.24.61.12,1.08.76.94.33-.08.66-.26.91-.48.58-.5.97-1.15,1.28-1.85,1-2.27,1.99-4.55,2.99-6.83.35-.79,1.16-1.05,1.84-.61.29.19.46.43.38.79-.02.08-.03.16-.01.24.04.14.07.35.17.4.1.06.31,0,.42-.08.79-.54,1.58-1.09,2.5-1.4.71-.24,1.42-.34,2.16-.09,1.18.4,1.65,1.14,1.5,2.39-.18,1.46-.74,2.81-1.3,4.16-.52,1.25-.99,2.52-1.48,3.78-.07.18-.09.37-.11.56-.05.48.13.67.58.52.4-.13.84-.3,1.12-.59.62-.64,1.18-1.34,1.69-2.06,1.08-1.51,1.86-3.19,2.68-4.86.82-1.65,1.97-3.06,3.52-4.1,1.38-.92,2.88-1.27,4.47-.59.5.21.96.55,1.4.88.55.41.81.39,1.18-.18.24-.37.45-.76.72-1.1.44-.56,1.01-.65,1.55-.29.59.39.74.94.4,1.59-.99,1.88-2,3.75-2.98,5.63-.44.86-.94,1.71-1.04,2.7-.05.49-.03.98.41,1.29.44.32.92.16,1.35-.05.63-.3,1.11-.78,1.5-1.35.63-.92,1.23-1.87,1.83-2.81.21-.33.4-.68.6-1.02.38-.63.86-.83,1.4-.55.63.32.92,1.04.62,1.66-.26.53-.56,1.03-.86,1.54-.85,1.43-1.73,2.84-2.91,4.03-.75.75-1.58,1.41-2.66,1.6-1.01.18-1.96.04-2.74-.72-.11-.11-.23-.21-.36-.31-.43-.36-.73-.34-1.11.07-.28.3-.51.63-.8.92-1.12,1.09-2.47,1.59-4.02,1.4-1.51-.19-2.4-1.14-2.86-2.55-.04-.13-.08-.26-.12-.41-.38.4-.73.79-1.1,1.16-1,.96-2.15,1.6-3.57,1.69-.26.02-.52.01-.78-.02-.67-.07-1.13-.53-1.29-1.26-.24-1.09-.11-2.17.21-3.21.32-1.06.76-2.07,1.17-3.1.37-.93.77-1.86,1.12-2.8.15-.4.27-.85-.13-1.2-.38-.33-.8-.16-1.18,0-1.59.67-2.85,1.76-3.89,3.13-1.75,2.32-2.97,4.93-4.07,7.6-.14.33-.27.67-.41,1-.24.58-.55.8-1.07.74-.49-.06-1.02-.52-1.05-1.01-.02-.33.1-.68.16-1.02.02-.12.07-.24.08-.3ZM75.68,42.04c-.06-.23-.09-.39-.15-.53-.53-1.17-2.17-1.78-3.28-1.16-.51.28-.98.69-1.38,1.13-1.44,1.61-2.36,3.52-3.04,5.55-.24.71-.38,1.44-.28,2.2.1.75.58,1.26,1.28,1.4.48.09.95,0,1.32-.28.59-.45,1.19-.92,1.66-1.48,1.51-1.78,2.61-3.82,3.61-5.92.14-.3.19-.64.26-.91ZM45.76,46.94c.13.21.25.41.38.62.18-.15.42-.27.51-.47.22-.45.4-.93.55-1.41.04-.14,0-.39-.11-.47-.11-.08-.35-.06-.49,0-.16.07-.32.22-.42.37-.27.39-.38.84-.42,1.36Z"/>
    <path class="cls-28" d="M112.9,16.58c1.77-.1,3.72.13,5.62.85,4.1,1.56,5.57,7.74,1.22,10.9-1.55,1.12-3.25,1.66-5.17,1.29-1.85-.36-3.15-1.72-3.39-3.58-.08-.6-.09-1.22-.08-1.82.02-.85.4-1.28,1.1-1.3.79-.02,1.49.56,1.55,1.31.03.31,0,.63.02.95.1,1.14.83,1.84,1.98,1.78,1.73-.1,3.03-.94,3.78-2.51.57-1.19.16-2.7-.93-3.73-.91-.86-2.03-1.28-3.24-1.4-3.44-.35-6.52.58-9.17,2.79-1.33,1.11-2.09,2.56-2.14,4.33-.05,1.57.51,2.91,1.68,3.95.95.85,2.03,1.51,3.26,1.89.43.13.88.19,1.33.21,1.02.04,1.66.79,1.44,1.75-.12.52-.5.9-1.03.93-.55.03-1.11,0-1.66-.01-4.64-.09-8.71,1.38-12.12,4.54-1.5,1.4-2.6,3.1-3.16,5.1-.72,2.52.11,4.62,2.33,6,1.3.81,2.74,1.15,4.26,1.19,2.95.09,5.65-.81,8.24-2.12,3.11-1.57,5.84-3.68,8.42-6,.15-.14.3-.27.47-.39.43-.3.89-.42,1.36-.14.48.29.67.75.62,1.3-.05.54-.34.95-.74,1.29-1.27,1.05-2.52,2.14-3.82,3.15-2.19,1.7-4.54,3.15-7.13,4.2-2.07.84-4.2,1.39-6.45,1.42-2.06.02-4.05-.29-5.92-1.21-3.58-1.75-5.3-5.63-4.23-9.47.82-2.92,2.57-5.19,4.87-7.09,1.99-1.64,4.23-2.8,6.68-3.56.1-.03.19-.06.29-.1.63-.28.77-.73.4-1.31-.2-.31-.44-.6-.65-.91-1.75-2.64-1.97-5.37-.46-8.2.84-1.58,2.03-2.85,3.49-3.86,1.99-1.37,4.39-2.2,7.07-2.4Z"/>
    <path class="cls-28" d="M132.48,44.41c-.65.36-1.26.79-1.93,1.05-1.33.5-2.58.24-3.67-.69-.59-.5-.77-.52-1.32.06-1.26,1.35-2.71,2.46-4.28,3.41-.11.06-.21.13-.32.18-.75.36-1.23.2-1.62-.54-1.25-2.34-1.53-4.82-1.05-7.4.4-2.19,1.25-4.21,2.4-6.12.4-.66,1.07-.87,1.72-.57.63.3.82.85.46,1.45-.72,1.2-1.34,2.43-1.75,3.77-.56,1.84-.81,3.7-.42,5.62.19.92.51,1.03,1.23.42.62-.52,1.26-1.03,1.88-1.56.26-.23.5-.49.71-.77.25-.33.3-.72.22-1.13-.6-2.89.19-5.38,2.22-7.5.5-.53,1.06-.98,1.78-1.19,1.13-.32,1.9.14,2.17,1.29.36,1.53.08,2.98-.55,4.39-.48,1.08-1.15,2.05-1.88,2.97-.52.65-.32,1.26.51,1.47.73.18,1.46.11,1.99-.46.53-.57,1.03-1.18,1.41-1.85.61-1.06,1.1-2.2,1.68-3.28.87-1.62,1.98-3.06,3.53-4.09,1.38-.92,2.88-1.26,4.47-.58.48.2.93.52,1.34.84.6.47.84.45,1.24-.18.24-.37.45-.76.73-1.1.43-.53,1-.61,1.53-.26.58.39.73.93.4,1.56-.89,1.69-1.79,3.37-2.68,5.06-.35.67-.68,1.35-1,2.04-.25.54-.41,1.1-.35,1.71.07.78.54,1.12,1.3.96.6-.13,1.09-.47,1.46-.93.51-.61.98-1.24,1.42-1.9.54-.82,1.02-1.68,1.52-2.53.37-.62.85-.81,1.38-.56.61.29.91.97.68,1.59-.01.03-.02.06-.04.09-1.11,1.97-2.2,3.96-3.8,5.59-.74.75-1.57,1.38-2.64,1.57-1,.18-1.94.04-2.71-.7-.12-.12-.25-.23-.38-.34-.43-.35-.73-.34-1.11.08-.28.3-.51.64-.8.92-1.12,1.09-2.47,1.57-4.02,1.4-1.52-.17-2.65-1.35-2.97-2.98-.02-.12-.05-.23-.06-.29ZM134.55,43.48c.08,1.07.49,1.61,1.23,1.79.49.12.94.01,1.37-.22.68-.37,1.21-.9,1.7-1.49,1.2-1.43,2.14-3.03,2.99-4.68.27-.53.56-1.07.74-1.63.1-.33.11-.77-.03-1.08-.51-1.2-2.18-1.78-3.3-1.14-.5.28-.95.69-1.34,1.12-1.29,1.42-2.12,3.11-2.81,4.88-.33.85-.57,1.71-.54,2.44ZM126.77,39.14c.12.15.21.35.31.35.14,0,.33-.1.41-.22.59-.89.96-1.86,1.16-2.9.02-.12-.09-.28-.13-.41-.12.07-.28.12-.34.23-.34.52-.69,1.04-.96,1.59-.2.42-.3.89-.44,1.36Z"/>
    <path class="cls-28" d="M61.65,35.69c-.54.07-1.06-.12-1.53-.47-.31-.23-.59-.49-.89-.73-.52-.41-1.01-.28-1.27.34-.09.22-.15.45-.24.67-.21.49-.65.61-1.07.27-.34-.27-.48-.65-.36-1.06.13-.43.28-.86.52-1.24.69-1.11,2.11-1.34,3.15-.53.3.24.58.51.87.75.54.44,1.01.38,1.41-.18.16-.23.29-.48.46-.71.13-.17.26-.35.43-.46.48-.3.98-.01,1,.55.04,1.41-1.05,2.66-2.49,2.8Z"/>
  </g>
  <g>
    <path class="cls-28" d="M45.54,69.08c-1.17-.62-1.75-.94-2.9-1.62.84-1.42,1.26-2.13,2.1-3.55.18.11.27.16.45.26-.74,1.27-1.11,1.91-1.84,3.18.95.55,1.44.82,2.41,1.33-.08.16-.13.24-.21.4Z"/>
    <path class="cls-28" d="M50.98,69.89c-.44,1.03-1.46,1.19-2.44.73s-1.52-1.34-1.02-2.34c.45-.9.67-1.35,1.12-2.24.18.09.27.14.46.23-.44.89-.65,1.33-1.09,2.22-.38.77-.01,1.39.72,1.73.73.34,1.43.22,1.78-.57.4-.91.6-1.36.99-2.26.19.08.28.12.47.2-.4.92-.59,1.38-.99,2.3Z"/>
    <path class="cls-28" d="M57.16,71.72c-.16.51-.48.9-.9,1.13.15.34.22.52.37.86-.24-.08-.36-.12-.6-.19-.09-.19-.13-.29-.21-.48-.48.14-1.03.12-1.6-.08-1.32-.47-1.95-1.68-1.49-2.83.46-1.15,1.69-1.6,2.92-1.16,1.24.44,1.89,1.57,1.51,2.75ZM53.24,70.34c-.36.92.14,1.84,1.13,2.2.44.16.87.17,1.25.05-.25-.6-.37-.9-.61-1.5.24.08.35.13.59.21.17.43.26.65.45,1.08.27-.19.47-.46.59-.82.31-.94-.21-1.81-1.15-2.15-.94-.34-1.89,0-2.25.93Z"/>
    <path class="cls-28" d="M62.29,73.59c-.25,1.09-1.21,1.44-2.24,1.17s-1.7-1.04-1.39-2.11c.28-.96.42-1.44.7-2.41.19.06.29.08.48.14-.27.95-.4,1.43-.67,2.38-.23.83.23,1.37,1,1.56.77.2,1.43-.05,1.63-.88.23-.96.34-1.44.57-2.4.2.05.29.07.49.11-.22.98-.34,1.47-.56,2.44Z"/>
    <path class="cls-28" d="M67.11,76.13c-1.3-.19-1.94-.3-3.23-.56.32-1.62.48-2.42.8-4.04,1.2.24,1.8.34,3,.52-.03.18-.04.26-.07.44-1.01-.15-1.52-.24-2.53-.43-.1.54-.15.81-.26,1.36,1,.19,1.5.27,2.5.42l-.07.44c-1.01-.15-1.51-.24-2.52-.43-.11.55-.16.83-.26,1.38,1.07.2,1.61.29,2.68.45l-.07.44Z"/>
    <path class="cls-28" d="M69.62,75.72c-.2.58-.31.87-.52,1.44-.17-.02-.26-.03-.43-.05.15-.58.23-.87.38-1.46.23.03.34.04.57.07Z"/>
    <path class="cls-28" d="M77.82,73.53c-.17.11-.25.16-.42.27-.29-.41-.79-.66-1.37-.67-.98-.02-1.76.62-1.81,1.61-.04.99.72,1.7,1.75,1.71.61,0,1.13-.24,1.44-.65.17.11.26.17.43.28-.37.52-1.07.84-1.87.83-1.38-.02-2.35-.96-2.29-2.19.06-1.23,1.06-2.06,2.35-2.04.76.01,1.43.33,1.79.86Z"/>
    <path class="cls-28" d="M83.85,74.44c.13,1.23-.79,2.22-2.17,2.32-1.38.1-2.43-.76-2.47-1.99-.04-1.24.88-2.14,2.17-2.23,1.29-.09,2.33.68,2.46,1.91ZM79.75,74.74c.04.99.86,1.63,1.89,1.56,1.04-.07,1.76-.82,1.66-1.81-.1-.99-.91-1.58-1.89-1.51-.98.07-1.7.77-1.66,1.76ZM80.93,72.31c.24-.37.35-.55.58-.92.23-.02.35-.03.58-.04-.28.38-.42.56-.7.94-.18.01-.27.02-.46.03Z"/>
    <path class="cls-28" d="M87,71.95c.97-.15,1.58.15,1.72.88.13.7-.39,1.26-1.34,1.41-.03,0-.04,0-.07.01.76.61,1.14.9,1.93,1.49-.26.05-.39.07-.65.12-.77-.59-1.15-.9-1.88-1.51-.23.03-.34.05-.57.08.1.71.15,1.06.25,1.77-.21.03-.32.04-.53.07-.22-1.63-.32-2.45-.54-4.08.68-.09,1.02-.14,1.69-.25ZM85.86,72.57c.08.58.12.86.2,1.44.49-.07.74-.11,1.23-.18.68-.11.98-.42.9-.9-.08-.47-.48-.64-1.13-.54-.48.08-.72.11-1.2.18Z"/>
    <path class="cls-28" d="M91.74,71.01c1.39-.33,2.48.19,2.82,1.4.34,1.21-.38,2.25-1.86,2.61-.68.16-1.03.24-1.71.39-.34-1.61-.51-2.42-.85-4.03.64-.14.97-.21,1.61-.36ZM90.72,71.7c.28,1.26.42,1.89.69,3.15.47-.1.71-.16,1.18-.27,1.22-.29,1.69-1.1,1.44-2.03-.25-.94-1.03-1.39-2.19-1.11-.45.11-.67.16-1.12.26Z"/>
    <path class="cls-28" d="M100.44,70.46c.44,1.15-.2,2.35-1.53,2.81-1.32.45-2.56-.1-2.92-1.28s.31-2.3,1.55-2.73c1.24-.43,2.46.05,2.9,1.2ZM96.51,71.83c.3.95,1.26,1.35,2.25,1.01.99-.34,1.51-1.25,1.16-2.18-.35-.93-1.3-1.29-2.24-.96-.94.32-1.47,1.19-1.17,2.13Z"/>
    <path class="cls-28" d="M102.87,67.22c.85-.38,1.59-.4,1.93.3.2.42.09.83-.23,1.12.47-.07.92.08,1.14.54.35.72-.12,1.33-1.07,1.76-.7.32-1.05.47-1.76.76-.63-1.52-.95-2.28-1.58-3.81.63-.26.95-.4,1.58-.68ZM101.94,68.12l.53,1.26c.45-.19.68-.29,1.13-.49.58-.26.96-.59.73-1.09-.23-.49-.72-.41-1.29-.16-.44.2-.66.29-1.1.48ZM102.64,69.78c.22.52.33.79.56,1.31.49-.21.74-.32,1.23-.54.64-.29,1-.64.76-1.14-.23-.5-.71-.45-1.34-.16-.48.22-.72.32-1.21.53Z"/>
    <path class="cls-28" d="M111.36,67.46c-.2.12-.31.18-.51.3-.42-.29-.63-.43-1.04-.73-.81.46-1.22.68-2.04,1.12.03.5.04.76.05,1.26-.2.1-.3.16-.51.26-.04-1.82-.08-2.73-.22-4.53.22-.12.34-.18.56-.31,1.44,1.08,2.18,1.61,3.7,2.63ZM107.74,67.66c.67-.35,1.01-.54,1.67-.91-.74-.53-1.1-.8-1.82-1.34.07.9.1,1.35.15,2.25Z"/>
  </g>
  <g class="cls-77">
    <polygon class="cls-4" points="82.66 10.3 82.56 10.2 82.66 10.2 82.66 10.3"/>
    <polygon class="cls-59" points="82.66 10.79 82.07 10.2 82.56 10.2 82.66 10.3 82.66 10.79"/>
    <polygon class="cls-15" points="82.66 11.28 81.58 10.2 82.07 10.2 82.66 10.79 82.66 11.28"/>
    <polygon class="cls-39" points="82.66 11.77 81.09 10.2 81.58 10.2 82.66 11.28 82.66 11.77"/>
    <polygon class="cls-55" points="82.66 12.26 80.6 10.2 81.09 10.2 82.66 11.77 82.66 12.26"/>
    <polygon class="cls-8" points="82.66 12.75 80.11 10.2 80.6 10.2 82.66 12.26 82.66 12.75"/>
    <polygon class="cls-6" points="82.5 13.08 79.62 10.2 80.11 10.2 82.66 12.75 82.66 13.08 82.5 13.08"/>
    <polygon class="cls-67" points="82.01 13.08 79.13 10.2 79.62 10.2 82.5 13.08 82.01 13.08"/>
    <polygon class="cls-20" points="81.52 13.08 78.64 10.2 79.13 10.2 82.01 13.08 81.52 13.08"/>
    <polygon class="cls-62" points="81.03 13.08 78.15 10.2 78.64 10.2 81.52 13.08 81.03 13.08"/>
    <polygon class="cls-61" points="80.54 13.08 77.66 10.2 78.15 10.2 81.03 13.08 80.54 13.08"/>
    <polygon class="cls-53" points="80.05 13.08 77.17 10.2 77.66 10.2 80.54 13.08 80.05 13.08"/>
    <polygon class="cls-18" points="79.56 13.08 76.99 10.52 76.99 10.2 77.17 10.2 80.05 13.08 79.56 13.08"/>
    <polygon class="cls-70" points="79.07 13.08 76.99 11.01 76.99 10.52 79.56 13.08 79.07 13.08"/>
    <polygon class="cls-34" points="78.58 13.08 76.99 11.5 76.99 11.01 79.07 13.08 78.58 13.08"/>
    <polygon class="cls-14" points="78.09 13.08 76.99 11.99 76.99 11.5 78.58 13.08 78.09 13.08"/>
    <polygon class="cls-63" points="77.6 13.08 76.99 12.48 76.99 11.99 78.09 13.08 77.6 13.08"/>
    <polygon class="cls-30" points="77.11 13.08 76.99 12.97 76.99 12.48 77.6 13.08 77.11 13.08"/>
    <polygon class="cls-54" points="76.99 12.97 77.11 13.08 76.99 13.08 76.99 12.97"/>
    <polygon class="cls-50" points="80.71 5.9 80.58 5.77 80.71 5.77 80.71 5.9"/>
    <polygon class="cls-68" points="80.71 6.39 80.09 5.77 80.58 5.77 80.71 5.9 80.71 6.39"/>
    <polygon class="cls-75" points="80.71 6.88 79.6 5.77 80.09 5.77 80.71 6.39 80.71 6.88"/>
    <polygon class="cls-74" points="80.71 7.37 79.11 5.77 79.6 5.77 80.71 6.88 80.71 7.37"/>
    <polygon class="cls-65" points="80.38 7.53 78.95 6.1 78.95 5.77 79.11 5.77 80.71 7.37 80.71 7.53 80.38 7.53"/>
    <polygon class="cls-4" points="79.89 7.53 78.95 6.59 78.95 6.1 80.38 7.53 79.89 7.53"/>
    <polygon class="cls-59" points="79.4 7.53 78.95 7.08 78.95 6.59 79.89 7.53 79.4 7.53"/>
    <polygon class="cls-15" points="78.95 7.08 79.4 7.53 78.95 7.53 78.95 7.08"/>
    <polygon class="cls-40" points="88.25 8.54 82.54 2.83 88.25 2.83 88.25 8.54"/>
    <polygon class="cls-40" points="88.25 9.03 82.05 2.83 82.54 2.83 88.25 8.54 88.25 9.03"/>
    <polygon class="cls-69" points="88.25 9.52 81.56 2.83 82.05 2.83 88.25 9.03 88.25 9.52"/>
    <polygon class="cls-25" points="88.25 10.01 81.07 2.83 81.56 2.83 88.25 9.52 88.25 10.01"/>
    <polygon class="cls-44" points="88.25 10.5 80.58 2.83 81.07 2.83 88.25 10.01 88.25 10.5"/>
    <polygon class="cls-33" points="88.25 10.99 80.09 2.83 80.58 2.83 88.25 10.5 88.25 10.99"/>
    <polygon class="cls-37" points="88.25 11.48 79.6 2.83 80.09 2.83 88.25 10.99 88.25 11.48"/>
    <polygon class="cls-72" points="88.25 11.97 79.11 2.83 79.6 2.83 88.25 11.48 88.25 11.97"/>
    <polygon class="cls-23" points="88.25 12.46 78.62 2.83 79.11 2.83 88.25 11.97 88.25 12.46"/>
    <polygon class="cls-1" points="88.25 12.95 78.13 2.83 78.62 2.83 88.25 12.46 88.25 12.95"/>
    <polygon class="cls-50" points="88.25 13.44 77.64 2.83 78.13 2.83 88.25 12.95 88.25 13.44"/>
    <polygon class="cls-68" points="88.25 13.93 77.15 2.83 77.64 2.83 88.25 13.44 88.25 13.93"/>
    <polygon class="cls-75" points="88.25 14.42 76.66 2.83 77.15 2.83 88.25 13.93 88.25 14.42"/>
    <polygon class="cls-74" points="88.25 14.51 88.05 14.71 76.17 2.83 76.66 2.83 88.25 14.42 88.25 14.51"/>
    <polygon class="cls-65" points="88.05 14.71 87.81 14.96 75.68 2.83 76.17 2.83 88.05 14.71"/>
    <polygon class="cls-4" points="87.81 14.96 87.56 15.2 75.19 2.83 75.68 2.83 87.81 14.96"/>
    <polygon class="cls-59" points="87.56 15.2 87.32 15.45 74.7 2.83 75.19 2.83 87.56 15.2"/>
    <polygon class="cls-15" points="87.32 15.45 87.07 15.69 74.21 2.83 74.7 2.83 87.32 15.45"/>
    <polygon class="cls-39" points="87.07 15.69 86.83 15.94 73.72 2.83 74.21 2.83 87.07 15.69"/>
    <polygon class="cls-55" points="86.83 15.94 86.58 16.18 73.23 2.83 73.72 2.83 86.83 15.94"/>
    <polygon class="cls-8" points="86.58 16.18 86.34 16.43 72.74 2.83 73.23 2.83 86.58 16.18"/>
    <polygon class="cls-6" points="86.34 16.43 86.09 16.67 72.25 2.83 72.74 2.83 86.34 16.43"/>
    <polygon class="cls-67" points="86.09 16.67 85.85 16.92 71.76 2.83 72.25 2.83 86.09 16.67"/>
    <polygon class="cls-20" points="85.85 16.92 85.6 17.16 71.27 2.83 71.76 2.83 85.85 16.92"/>
    <polygon class="cls-62" points="85.6 17.16 85.36 17.41 70.78 2.83 71.27 2.83 85.6 17.16"/>
    <polygon class="cls-61" points="85.36 17.41 85.11 17.65 70.29 2.83 70.78 2.83 85.36 17.41"/>
    <polygon class="cls-53" points="85.11 17.65 84.87 17.9 69.8 2.83 70.29 2.83 85.11 17.65"/>
    <polygon class="cls-18" points="84.87 17.9 84.62 18.14 69.31 2.83 69.8 2.83 84.87 17.9"/>
    <polygon class="cls-70" points="84.62 18.14 84.38 18.39 68.82 2.83 69.31 2.83 84.62 18.14"/>
    <polygon class="cls-34" points="84.38 18.39 84.13 18.63 68.33 2.83 68.82 2.83 84.38 18.39"/>
    <polygon class="cls-14" points="84.13 18.63 83.89 18.88 67.84 2.83 68.33 2.83 84.13 18.63"/>
    <polygon class="cls-63" points="83.89 18.88 83.64 19.12 67.35 2.83 67.84 2.83 83.89 18.88"/>
    <polygon class="cls-30" points="83.64 19.12 83.4 19.37 66.86 2.83 67.35 2.83 83.64 19.12"/>
    <polygon class="cls-54" points="83.4 19.37 83.15 19.61 66.37 2.83 66.86 2.83 83.4 19.37"/>
    <polygon class="cls-31" points="83.15 19.61 82.91 19.86 65.88 2.83 66.37 2.83 83.15 19.61"/>
    <polygon class="cls-19" points="82.91 19.86 82.66 20.1 65.42 2.86 65.45 2.83 65.88 2.83 82.91 19.86"/>
    <rect class="cls-57" x="73.75" y="-.58" width=".35" height="24.38" transform="translate(13.44 55.67) rotate(-45)"/>
    <rect class="cls-47" x="73.5" y="-.34" width=".35" height="24.38" transform="translate(13.2 55.57) rotate(-45)"/>
    <rect class="cls-29" x="73.26" y="-.09" width=".35" height="24.38" transform="translate(12.95 55.46) rotate(-45)"/>
    <polygon class="cls-42" points="81.93 20.84 81.9 20.87 81.46 20.87 64.44 3.84 64.69 3.6 81.93 20.84"/>
    <polygon class="cls-21" points="80.97 20.87 64.2 4.09 64.44 3.84 81.46 20.87 80.97 20.87"/>
    <polygon class="cls-64" points="80.48 20.87 63.95 4.33 64.2 4.09 80.97 20.87 80.48 20.87"/>
    <polygon class="cls-51" points="79.99 20.87 63.71 4.58 63.95 4.33 80.48 20.87 79.99 20.87"/>
    <polygon class="cls-13" points="79.5 20.87 63.46 4.82 63.71 4.58 79.99 20.87 79.5 20.87"/>
    <polygon class="cls-12" points="79.01 20.87 63.22 5.07 63.46 4.82 79.5 20.87 79.01 20.87"/>
    <polygon class="cls-43" points="78.52 20.87 62.97 5.31 63.22 5.07 79.01 20.87 78.52 20.87"/>
    <polygon class="cls-3" points="78.03 20.87 62.73 5.56 62.97 5.31 78.52 20.87 78.03 20.87"/>
    <polygon class="cls-60" points="77.54 20.87 62.48 5.8 62.73 5.56 78.03 20.87 77.54 20.87"/>
    <polygon class="cls-5" points="77.05 20.87 62.24 6.05 62.48 5.8 77.54 20.87 77.05 20.87"/>
    <polygon class="cls-73" points="76.56 20.87 61.99 6.29 62.24 6.05 77.05 20.87 76.56 20.87"/>
    <polygon class="cls-49" points="76.07 20.87 61.75 6.54 61.99 6.29 76.56 20.87 76.07 20.87"/>
    <polygon class="cls-41" points="75.58 20.87 61.5 6.78 61.75 6.54 76.07 20.87 75.58 20.87"/>
    <polygon class="cls-24" points="75.09 20.87 61.26 7.03 61.5 6.78 75.58 20.87 75.09 20.87"/>
    <polygon class="cls-66" points="74.6 20.87 61.01 7.27 61.26 7.03 75.09 20.87 74.6 20.87"/>
    <polygon class="cls-26" points="74.11 20.87 60.77 7.52 61.01 7.27 74.6 20.87 74.11 20.87"/>
    <polygon class="cls-17" points="73.62 20.87 60.52 7.76 60.77 7.52 74.11 20.87 73.62 20.87"/>
    <polygon class="cls-7" points="73.13 20.87 60.28 8.01 60.52 7.76 73.62 20.87 73.13 20.87"/>
    <polygon class="cls-27" points="72.64 20.87 60.25 8.47 60.25 8.03 60.28 8.01 73.13 20.87 72.64 20.87"/>
    <polygon class="cls-52" points="72.15 20.87 60.25 8.96 60.25 8.47 72.64 20.87 72.15 20.87"/>
    <polygon class="cls-16" points="71.66 20.87 60.25 9.45 60.25 8.96 72.15 20.87 71.66 20.87"/>
    <polygon class="cls-11" points="71.17 20.87 60.25 9.95 60.25 9.45 71.66 20.87 71.17 20.87"/>
    <polygon class="cls-45" points="70.68 20.87 60.25 10.44 60.25 9.95 71.17 20.87 70.68 20.87"/>
    <polygon class="cls-46" points="70.19 20.87 60.25 10.93 60.25 10.44 70.68 20.87 70.19 20.87"/>
    <polygon class="cls-56" points="69.7 20.87 60.25 11.42 60.25 10.93 70.19 20.87 69.7 20.87"/>
    <polygon class="cls-35" points="69.21 20.87 60.25 11.91 60.25 11.42 69.7 20.87 69.21 20.87"/>
    <polygon class="cls-38" points="68.72 20.87 60.25 12.4 60.25 11.91 69.21 20.87 68.72 20.87"/>
    <polygon class="cls-48" points="68.23 20.87 60.25 12.89 60.25 12.4 68.72 20.87 68.23 20.87"/>
    <polygon class="cls-32" points="67.74 20.87 60.25 13.38 60.25 12.89 68.23 20.87 67.74 20.87"/>
    <polygon class="cls-9" points="67.25 20.87 60.25 13.87 60.25 13.38 67.74 20.87 67.25 20.87"/>
    <polygon class="cls-10" points="66.76 20.87 60.25 14.36 60.25 13.87 67.25 20.87 66.76 20.87"/>
    <polygon class="cls-71" points="66.27 20.87 60.25 14.85 60.25 14.36 66.76 20.87 66.27 20.87"/>
    <polygon class="cls-22" points="65.78 20.87 60.25 15.34 60.25 14.85 66.27 20.87 65.78 20.87"/>
    <polygon class="cls-36" points="65.29 20.87 60.25 15.83 60.25 15.34 65.78 20.87 65.29 20.87"/>
    <polygon class="cls-36" points="60.25 15.83 65.29 20.87 60.25 20.87 60.25 15.83"/>
    <polygon class="cls-59" points="87.91 16.04 87.78 15.91 87.91 15.91 87.91 16.04"/>
    <polygon class="cls-15" points="87.91 16.53 87.29 15.91 87.78 15.91 87.91 16.04 87.91 16.53"/>
    <polygon class="cls-39" points="87.91 17.02 86.8 15.91 87.29 15.91 87.91 16.53 87.91 17.02"/>
    <polygon class="cls-55" points="87.91 17.51 86.31 15.91 86.8 15.91 87.91 17.02 87.91 17.51"/>
    <polygon class="cls-8" points="87.91 17.88 87.85 17.94 85.82 15.91 86.31 15.91 87.91 17.51 87.91 17.88"/>
    <polygon class="cls-6" points="87.85 17.94 87.61 18.19 85.33 15.91 85.82 15.91 87.85 17.94"/>
    <polygon class="cls-67" points="87.61 18.19 87.36 18.43 84.84 15.91 85.33 15.91 87.61 18.19"/>
    <polygon class="cls-20" points="87.36 18.43 87.12 18.68 84.35 15.91 84.84 15.91 87.36 18.43"/>
    <polygon class="cls-62" points="87.12 18.68 86.87 18.92 83.86 15.91 84.35 15.91 87.12 18.68"/>
    <polygon class="cls-61" points="86.87 18.92 86.63 19.17 83.37 15.91 83.86 15.91 86.87 18.92"/>
    <polygon class="cls-53" points="86.63 19.17 86.38 19.41 83.12 16.15 83.36 15.91 83.37 15.91 86.63 19.17"/>
    <rect class="cls-18" x="84.46" y="15.6" width=".35" height="4.61" transform="translate(12.13 65.09) rotate(-45)"/>
    <rect class="cls-70" x="84.21" y="15.84" width=".35" height="4.61" transform="translate(11.88 64.98) rotate(-45)"/>
    <rect class="cls-34" x="83.97" y="16.09" width=".35" height="4.61" transform="translate(11.64 64.88) rotate(-45)"/>
    <rect class="cls-14" x="83.72" y="16.33" width=".35" height="4.61" transform="translate(11.39 64.78) rotate(-45)"/>
    <rect class="cls-63" x="83.47" y="16.58" width=".35" height="4.61" transform="translate(11.15 64.68) rotate(-45)"/>
    <rect class="cls-30" x="83.23" y="16.82" width=".35" height="4.61" transform="translate(10.9 64.58) rotate(-45)"/>
    <rect class="cls-54" x="82.98" y="17.07" width=".35" height="4.61" transform="translate(10.66 64.48) rotate(-45)"/>
    <rect class="cls-31" x="82.74" y="17.31" width=".35" height="4.61" transform="translate(10.41 64.37) rotate(-45)"/>
    <rect class="cls-19" x="82.49" y="17.56" width=".35" height="4.61" transform="translate(10.17 64.27) rotate(-45)"/>
    <rect class="cls-57" x="82.25" y="17.8" width=".35" height="4.61" transform="translate(9.92 64.17) rotate(-45)"/>
    <rect class="cls-47" x="82" y="18.05" width=".35" height="4.61" transform="translate(9.68 64.07) rotate(-45)"/>
    <rect class="cls-29" x="81.76" y="18.29" width=".35" height="4.61" transform="translate(9.43 63.97) rotate(-45)"/>
    <rect class="cls-42" x="81.51" y="18.54" width=".35" height="4.61" transform="translate(9.19 63.87) rotate(-45)"/>
    <rect class="cls-21" x="81.27" y="18.78" width=".35" height="4.61" transform="translate(8.94 63.77) rotate(-45)"/>
    <rect class="cls-64" x="81.02" y="19.03" width=".35" height="4.61" transform="translate(8.7 63.66) rotate(-45)"/>
    <rect class="cls-51" x="80.78" y="19.27" width=".35" height="4.61" transform="translate(8.45 63.56) rotate(-45)"/>
    <rect class="cls-13" x="80.53" y="19.52" width=".35" height="4.61" transform="translate(8.21 63.46) rotate(-45)"/>
    <rect class="cls-12" x="80.29" y="19.76" width=".35" height="4.61" transform="translate(7.96 63.36) rotate(-45)"/>
    <rect class="cls-43" x="80.04" y="20.01" width=".35" height="4.61" transform="translate(7.72 63.26) rotate(-45)"/>
    <polygon class="cls-3" points="81.73 24.07 81.69 24.1 81.27 24.1 78.22 21.05 78.46 20.81 81.73 24.07"/>
    <polygon class="cls-60" points="80.78 24.1 77.97 21.3 78.22 21.05 81.27 24.1 80.78 24.1"/>
    <polygon class="cls-5" points="80.29 24.1 77.73 21.54 77.97 21.3 80.78 24.1 80.29 24.1"/>
    <polygon class="cls-73" points="79.8 24.1 77.48 21.79 77.73 21.54 80.29 24.1 79.8 24.1"/>
    <polygon class="cls-49" points="79.31 24.1 77.24 22.03 77.48 21.79 79.8 24.1 79.31 24.1"/>
    <polygon class="cls-41" points="78.82 24.1 77.05 22.34 77.05 22.22 77.24 22.03 79.31 24.1 78.82 24.1"/>
    <polygon class="cls-24" points="78.33 24.1 77.05 22.83 77.05 22.34 78.82 24.1 78.33 24.1"/>
    <polygon class="cls-66" points="77.84 24.1 77.05 23.32 77.05 22.83 78.33 24.1 77.84 24.1"/>
    <polygon class="cls-26" points="77.35 24.1 77.05 23.81 77.05 23.32 77.84 24.1 77.35 24.1"/>
    <polygon class="cls-17" points="77.05 23.81 77.35 24.1 77.05 24.1 77.05 23.81"/>
    <polygon class="cls-75" points="88.28 14.45 88.18 14.35 88.28 14.35 88.28 14.45"/>
    <polygon class="cls-74" points="88.28 14.94 87.69 14.35 88.18 14.35 88.28 14.45 88.28 14.94"/>
    <polygon class="cls-65" points="88.28 15.43 87.2 14.35 87.69 14.35 88.28 14.94 88.28 15.43"/>
    <polygon class="cls-4" points="88.28 15.81 88.23 15.87 86.71 14.35 87.2 14.35 88.28 15.43 88.28 15.81"/>
    <polygon class="cls-59" points="88.23 15.87 87.98 16.11 86.22 14.35 86.71 14.35 88.23 15.87"/>
    <polygon class="cls-15" points="87.98 16.11 87.74 16.36 85.73 14.35 86.22 14.35 87.98 16.11"/>
    <polygon class="cls-39" points="87.74 16.36 87.49 16.6 85.24 14.35 85.73 14.35 87.74 16.36"/>
    <polygon class="cls-55" points="87.49 16.6 87.25 16.85 84.75 14.35 85.24 14.35 87.49 16.6"/>
    <polygon class="cls-8" points="87.25 16.85 87 17.09 84.26 14.35 84.75 14.35 87.25 16.85"/>
    <polygon class="cls-6" points="87 17.09 86.76 17.34 83.77 14.35 84.26 14.35 87 17.09"/>
    <polygon class="cls-67" points="86.76 17.34 86.51 17.58 83.28 14.35 83.77 14.35 86.76 17.34"/>
    <polygon class="cls-20" points="86.51 17.58 86.27 17.83 82.79 14.35 83.28 14.35 86.51 17.58"/>
    <polygon class="cls-62" points="86.27 17.83 86.02 18.07 82.3 14.35 82.79 14.35 86.27 17.83"/>
    <polygon class="cls-61" points="86.02 18.07 85.78 18.32 81.81 14.35 82.3 14.35 86.02 18.07"/>
    <polygon class="cls-53" points="85.78 18.32 85.53 18.56 81.32 14.35 81.81 14.35 85.78 18.32"/>
    <polygon class="cls-18" points="85.53 18.56 85.29 18.81 80.83 14.35 81.32 14.35 85.53 18.56"/>
    <polygon class="cls-70" points="85.29 18.81 85.04 19.05 80.34 14.35 80.83 14.35 85.29 18.81"/>
    <polygon class="cls-34" points="85.04 19.05 84.8 19.3 79.84 14.35 80.34 14.35 85.04 19.05"/>
    <polygon class="cls-14" points="84.8 19.3 84.55 19.54 79.35 14.35 79.84 14.35 84.8 19.3"/>
    <polygon class="cls-63" points="84.55 19.54 84.31 19.79 78.86 14.35 79.35 14.35 84.55 19.54"/>
    <polygon class="cls-30" points="84.31 19.79 84.06 20.03 78.37 14.35 78.86 14.35 84.31 19.79"/>
    <polygon class="cls-54" points="84.06 20.03 83.82 20.28 77.88 14.35 78.37 14.35 84.06 20.03"/>
    <polygon class="cls-31" points="83.82 20.28 83.57 20.52 77.39 14.35 77.88 14.35 83.82 20.28"/>
    <polygon class="cls-19" points="83.57 20.52 83.33 20.77 76.9 14.35 77.39 14.35 83.57 20.52"/>
    <polygon class="cls-57" points="83.33 20.77 83.08 21.01 76.41 14.35 76.9 14.35 83.33 20.77"/>
    <polygon class="cls-47" points="83.08 21.01 82.84 21.26 75.92 14.35 76.41 14.35 83.08 21.01"/>
    <polygon class="cls-29" points="82.84 21.26 82.59 21.5 75.43 14.35 75.92 14.35 82.84 21.26"/>
    <polygon class="cls-42" points="82.59 21.5 82.35 21.75 75.1 14.5 75.25 14.35 75.43 14.35 82.59 21.5"/>
    <rect class="cls-21" x="78.43" y="13.12" width=".35" height="10.25" transform="translate(10.12 60.92) rotate(-45)"/>
    <rect class="cls-64" x="78.18" y="13.37" width=".35" height="10.25" transform="translate(9.87 60.82) rotate(-45)"/>
    <rect class="cls-51" x="77.94" y="13.61" width=".35" height="10.25" transform="translate(9.63 60.72) rotate(-45)"/>
    <rect class="cls-13" x="77.69" y="13.86" width=".35" height="10.25" transform="translate(9.38 60.62) rotate(-45)"/>
    <rect class="cls-12" x="77.45" y="14.1" width=".35" height="10.25" transform="translate(9.14 60.52) rotate(-45)"/>
    <rect class="cls-43" x="77.2" y="14.35" width=".35" height="10.25" transform="translate(8.89 60.42) rotate(-45)"/>
    <rect class="cls-3" x="76.96" y="14.59" width=".35" height="10.25" transform="translate(8.65 60.31) rotate(-45)"/>
    <rect class="cls-60" x="76.71" y="14.84" width=".35" height="10.25" transform="translate(8.4 60.21) rotate(-45)"/>
    <rect class="cls-5" x="76.47" y="15.08" width=".35" height="10.25" transform="translate(8.16 60.11) rotate(-45)"/>
    <rect class="cls-73" x="76.22" y="15.33" width=".35" height="10.25" transform="translate(7.91 60.01) rotate(-45)"/>
    <polygon class="cls-49" points="79.9 24.2 79.86 24.23 79.44 24.23 72.4 17.2 72.65 16.95 79.9 24.2"/>
    <polygon class="cls-41" points="78.95 24.23 72.16 17.44 72.4 17.2 79.44 24.23 78.95 24.23"/>
    <polygon class="cls-24" points="78.46 24.23 71.91 17.69 72.16 17.44 78.95 24.23 78.46 24.23"/>
    <polygon class="cls-66" points="77.97 24.23 71.67 17.93 71.91 17.69 78.46 24.23 77.97 24.23"/>
    <polygon class="cls-26" points="77.48 24.23 71.42 18.18 71.67 17.93 77.97 24.23 77.48 24.23"/>
    <polygon class="cls-17" points="76.99 24.23 71.18 18.42 71.42 18.18 77.48 24.23 76.99 24.23"/>
    <polygon class="cls-7" points="76.5 24.23 70.93 18.67 71.18 18.42 76.99 24.23 76.5 24.23"/>
    <polygon class="cls-27" points="76.01 24.23 70.69 18.91 70.93 18.67 76.5 24.23 76.01 24.23"/>
    <polygon class="cls-52" points="75.52 24.23 70.44 19.16 70.69 18.91 76.01 24.23 75.52 24.23"/>
    <polygon class="cls-16" points="75.03 24.23 70.2 19.4 70.44 19.16 75.52 24.23 75.03 24.23"/>
    <polygon class="cls-11" points="74.54 24.23 69.95 19.65 70.2 19.4 75.03 24.23 74.54 24.23"/>
    <polygon class="cls-45" points="74.05 24.23 69.71 19.89 69.95 19.65 74.54 24.23 74.05 24.23"/>
    <polygon class="cls-46" points="73.56 24.23 69.46 20.14 69.71 19.89 74.05 24.23 73.56 24.23"/>
    <polygon class="cls-56" points="73.07 24.23 69.22 20.38 69.46 20.14 73.56 24.23 73.07 24.23"/>
    <polygon class="cls-35" points="72.58 24.23 68.97 20.63 69.22 20.38 73.07 24.23 72.58 24.23"/>
    <polygon class="cls-38" points="72.09 24.23 68.73 20.87 68.97 20.63 72.58 24.23 72.09 24.23"/>
    <polygon class="cls-48" points="71.6 24.23 68.48 21.12 68.73 20.87 72.09 24.23 71.6 24.23"/>
    <polygon class="cls-32" points="71.11 24.23 68.24 21.36 68.48 21.12 71.6 24.23 71.11 24.23"/>
    <polygon class="cls-9" points="70.62 24.23 68.1 21.71 68.1 21.5 68.24 21.36 71.11 24.23 70.62 24.23"/>
    <polygon class="cls-10" points="70.13 24.23 68.1 22.2 68.1 21.71 70.62 24.23 70.13 24.23"/>
    <polygon class="cls-71" points="69.64 24.23 68.1 22.69 68.1 22.2 70.13 24.23 69.64 24.23"/>
    <polygon class="cls-22" points="69.15 24.23 68.1 23.18 68.1 22.69 69.64 24.23 69.15 24.23"/>
    <polygon class="cls-36" points="68.66 24.23 68.1 23.67 68.1 23.18 69.15 24.23 68.66 24.23"/>
    <polygon class="cls-36" points="68.1 23.67 68.66 24.23 68.1 24.23 68.1 23.67"/>
    <polygon class="cls-18" points="85.77 19.29 85.69 19.21 85.77 19.21 85.77 19.29"/>
    <polygon class="cls-70" points="85.77 19.79 85.2 19.21 85.69 19.21 85.77 19.29 85.77 19.79"/>
    <polygon class="cls-34" points="85.77 20.04 85.66 20.16 84.86 19.36 85 19.21 85.2 19.21 85.77 19.79 85.77 20.04"/>
    <polygon class="cls-14" points="85.66 20.16 85.48 20.34 85.35 20.34 84.7 19.69 84.7 19.52 84.86 19.36 85.66 20.16"/>
    <polygon class="cls-63" points="84.86 20.34 84.7 20.18 84.7 19.69 85.35 20.34 84.86 20.34"/>
    <polygon class="cls-30" points="84.7 20.18 84.86 20.34 84.7 20.34 84.7 20.18"/>
    <rect class="cls-65" x="88.27" y="15.04" width=".1" height=".03"/>
  </g>
  <circle class="cls-28" cx="40.43" cy="64.09" r=".72"/>
  <circle class="cls-28" cx="112.48" cy="64.31" r=".72"/>
</svg>