<?xml version="1.0" encoding="UTF-8"?>
<svg id="Capa_1" data-name="Capa 1" xmlns="http://www.w3.org/2000/svg" viewBox="0 0 170 80">
  <defs>
    <style>
      .cls-1 {
        fill: #141c47;
      }
    </style>
  </defs>
  <path class="cls-1" d="M50.06,30.1h7.4c1.64,0,5.89,1.14,5.89,5.89,0,3.42-2.42,5.82-5.89,5.82h-7.4v-11.72ZM61.88,54.27h7.28l-7.7-8.36,1.29-.54c1.81-.77,6.03-3.51,6.03-9.38s-4.41-10.25-10.25-10.25h-13.88v28.53h5.42v-8.06h4.5l7.32,8.06Z"/>
  <polygon class="cls-1" points="95.06 42.19 95.06 37.81 81.54 37.81 81.54 30.21 95.45 30.21 95.45 25.73 76.11 25.73 76.11 54.27 95.63 54.27 95.63 49.81 81.54 49.81 81.54 42.19 95.06 42.19"/>
  <path class="cls-1" d="M114.25,31.47l5.37,14.25h-10.74l5.37-14.25ZM121.26,50.1l1.58,4.16h5.72l-11.66-28.53h-5.34l-11.65,28.53h5.72l1.58-4.16h14.05Z"/>
  <polygon class="cls-1" points="158.62 54.27 158.62 25.74 153.2 25.74 153.2 46.13 137.56 25.74 132.86 25.74 132.86 54.27 138.28 54.27 138.28 33.88 153.92 54.27 158.62 54.27"/>
  <path class="cls-1" d="M23.43,25.73h-12.05v4.38h12.5c4.63,0,8.38,4.48,8.38,9.89s-3.74,9.9-8.38,9.9h-7.07v-13.71h-5.44v18.08h12.05c7.89,0,14.27-6.38,14.27-14.27s-6.38-14.27-14.27-14.27"/>
</svg>