<?xml version="1.0" encoding="UTF-8"?>
<svg id="Capa_1" data-name="Capa 1" xmlns="http://www.w3.org/2000/svg" viewBox="0 0 146 80">
  <defs>
    <style>
      .cls-1 {
        fill: #005dba;
      }

      .cls-2 {
        fill: #c81275;
      }

      .cls-3 {
        fill: #25a3d2;
      }
    </style>
  </defs>
  <path class="cls-1" d="M64.51,40.96c-.21,1.17-.28,2.14-.2,2.92.07.78.29,1.41.65,1.89.36.48.88.82,1.58,1.01.69.2,1.57.29,2.63.29,1.31,0,2.54-.03,3.69-.1,1.15-.07,2.13-.14,2.96-.21,1.01-.07,1.67.08,1.99.45.33.37.42,1.04.29,1.99l-.06.32c-.14,1-.43,1.71-.88,2.13-.45.43-1.18.73-2.2.9-.98.14-2.17.28-3.56.4-1.39.12-2.9.19-4.52.19-2.13,0-3.9-.27-5.31-.8-1.41-.53-2.49-1.39-3.24-2.57-.75-1.19-1.17-2.72-1.27-4.57-.1-1.86.09-4.12.56-6.78.45-2.55,1.03-4.76,1.75-6.62.71-1.86,1.64-3.39,2.77-4.58,1.13-1.19,2.51-2.07,4.14-2.66,1.63-.58,3.58-.88,5.85-.88s3.92.29,5.28.85c1.35.57,2.36,1.38,3.02,2.45.66,1.06,1.02,2.37,1.09,3.93.06,1.56-.1,3.34-.48,5.32l-.48,2.45c-.19.84-.49,1.44-.93,1.78-.43.34-1.07.51-1.93.51h-13.18ZM71.19,29.32c-.85,0-1.6.08-2.25.24-.65.16-1.21.49-1.69,1.01-.48.51-.89,1.25-1.24,2.21-.35.96-.66,2.24-.94,3.83h9.14c.08-.25.14-.52.2-.8.05-.28.1-.57.15-.85.21-1.2.29-2.17.25-2.9-.05-.73-.22-1.29-.5-1.7-.28-.41-.69-.68-1.21-.83-.53-.14-1.16-.21-1.9-.21Z"/>
  <path class="cls-1" d="M85.6,52.61c-1,0-1.67-.2-1.99-.59-.32-.39-.4-1.08-.22-2.07l4.07-23.07c.17-1,.49-1.69.95-2.07.46-.39,1.18-.59,2.18-.59h1.38c.71,0,1.22.12,1.53.37.31.25.53.73.65,1.44.16-.11.52-.29,1.08-.53.55-.25,1.21-.5,1.97-.77.76-.27,1.61-.51,2.55-.72.95-.21,1.9-.32,2.85-.32,1.81,0,3.2.27,4.15.8.95.53,1.66,1.13,2.1,1.81.23-.11.62-.31,1.17-.61.55-.3,1.22-.59,1.99-.87.78-.29,1.65-.55,2.62-.77.96-.23,1.98-.35,3.04-.35,1.49,0,2.7.24,3.63.72.93.48,1.61,1.19,2.04,2.15.44.96.65,2.16.65,3.59,0,1.43-.18,3.11-.52,5.02l-2.6,14.78c-.18.99-.49,1.68-.95,2.07-.46.39-1.19.59-2.19.59h-2.14c-1,0-1.66-.2-1.98-.59-.33-.39-.4-1.08-.22-2.07l2.52-14.3c.21-1.21.32-2.2.31-2.98,0-.78-.12-1.38-.34-1.81-.22-.42-.55-.71-.98-.87-.43-.16-.96-.24-1.59-.24-.81,0-1.62.13-2.42.4-.81.26-1.37.48-1.67.66l-3.38,19.14c-.18.99-.5,1.68-.96,2.07-.46.39-1.19.59-2.19.59h-2.14c-1,0-1.66-.2-1.99-.59-.32-.39-.4-1.08-.22-2.07l3.33-18.87c-.09-.29-.38-.58-.85-.88-.48-.3-1.23-.45-2.24-.45-.95,0-1.82.1-2.61.29-.79.19-1.35.38-1.65.56l-3.41,19.35c-.17.99-.49,1.68-.95,2.07-.47.39-1.19.59-2.19.59h-2.14Z"/>
  <path class="cls-1" d="M128.95,52.61c-.98,0-1.64-.2-1.96-.59-.32-.39-.39-1.08-.21-2.07l4.07-23.07c.18-1,.49-1.69.95-2.07.46-.39,1.18-.59,2.16-.59h2.22c.99,0,1.64.2,1.96.59.32.39.39,1.08.22,2.07l-4.07,23.07c-.17.99-.49,1.68-.95,2.07-.46.39-1.18.59-2.17.59h-2.22Z"/>
  <path class="cls-1" d="M139.73,18.74c-.1.53-.19.97-.28,1.31-.1.33-.28.61-.54.82-.26.21-.66.35-1.18.42-.52.07-1.24.11-2.16.11s-1.61-.04-2.09-.11c-.48-.07-.83-.21-1.03-.42-.21-.21-.3-.49-.28-.82.02-.34.08-.77.18-1.31.1-.57.2-1.04.3-1.41.1-.37.29-.67.57-.88.29-.21.68-.35,1.19-.42.5-.07,1.21-.11,2.13-.11s1.62.04,2.12.11c.5.07.84.21,1.03.42.19.22.27.51.24.88-.03.37-.1.84-.19,1.41Z"/>
  <g>
    <path class="cls-3" d="M24.74,51.59h-8.17c-.26,0-.5.16-.59.4-.1.24-.05.51.13.7l11.21,11.2c.12.12.29.19.46.19.08,0,.16-.02.24-.05.24-.1.4-.33.4-.59v-8.16c0-2.03-1.65-3.69-3.68-3.69Z"/>
    <path class="cls-3" d="M53.68,37.54l-11.2-11.2c-.19-.18-.46-.24-.7-.14-.24.1-.4.34-.4.6v8.17c0,2.03,1.65,3.68,3.68,3.68h8.17c.35,0,.64-.29.64-.65,0-.17-.07-.33-.19-.45Z"/>
    <path class="cls-2" d="M39.44,23.3l-6.82-6.87c-.12-.12-.28-.19-.45-.19h-8.17c-2.03,0-3.68,1.65-3.68,3.68v8.16c0,1.32-1.08,2.4-2.4,2.4h-8.17c-2.03,0-3.68,1.65-3.68,3.68v8.17c0,.17.07.34.19.45l6.82,6.87c.12.13.29.19.45.19.08,0,.17-.02.25-.05.24-.1.4-.33.4-.6v-8.16c0-1.32,1.07-2.4,2.4-2.4h8.17c2.03,0,3.68-1.65,3.68-3.68v-8.17c0-1.32,1.08-2.4,2.4-2.4h8.16c.26,0,.5-.15.59-.4.1-.24.05-.51-.14-.7Z"/>
  </g>
</svg>