<?xml version="1.0" encoding="UTF-8"?>
<svg id="Capa_1" data-name="Capa 1" xmlns="http://www.w3.org/2000/svg" viewBox="0 0 133 80">
  <defs>
    <style>
      .cls-1 {
        stroke: #90aa61;
        stroke-miterlimit: 10;
        stroke-width: .05px;
      }

      .cls-1, .cls-2, .cls-3, .cls-4, .cls-5, .cls-6, .cls-7, .cls-8, .cls-9 {
        fill-rule: evenodd;
      }

      .cls-1, .cls-5 {
        fill: #90aa61;
      }

      .cls-2 {
        fill: #b1c493;
      }

      .cls-3 {
        fill: #4b7a80;
      }

      .cls-4 {
        fill: #9eb6bc;
      }

      .cls-6 {
        fill: #809ea8;
      }

      .cls-7 {
        fill: #8ea9b4;
      }

      .cls-8 {
        fill: #b4c48b;
      }

      .cls-9 {
        fill: #788f9c;
      }
    </style>
  </defs>
  <path class="cls-5" d="M50.07,24.35c.23-.27,5.67-.08,6.58-.15.04-1.14-.23-5.86.15-6.46.15-.8.8-1.41,1.79-1.26,2.25.38.76,4.26,1.29,7.8h4.64c1.52,0,3.16-.11,3.12,1.64-.08,1.64-1.71,1.52-3.2,1.52s-3.08-.04-4.6-.04c0,.87.11,6.46-.11,7.07-.23.49-.72.91-1.45.91s-1.26-.46-1.45-1.03c-.19-.57-.11-6.12-.11-6.96-1.79,0-4.79.08-6.43.04-2.24-.15-2.05-2.92-.23-3.08h0ZM48.75,29.79c1.29.08,4.64-.15,5.59.08-.04.72,0,1.48,0,2.21,0,.34.15,1.94-.11,2.05.11,1.37.3,2.09,1.06,2.93.53.65,1.37,1.22,2.51,1.41,2.25.34,4.38-1.33,4.64-3.08.34-1.1.08-4.03.12-5.51,1.1-.3,4.34.23,5.32-.15,2.32-.27,4.11-3.46,2.59-6.12-1.02-2.74-3.69-1.82-7.83-2.05-.08-1.37-.04-2.81-.04-4.22,0-1.6-.12-2.47.5-3.92,2.05-4.87,6.35-3.91,7.99-4.83,3.2-1.83,2.09-7.34-2.21-7.04-2.55.19-4.87.84-6.81,1.83-2.13,1.07-3.46,2.39-4.68,4.03-1.14,1.52-2.24,3.65-2.74,5.86l-.34,8.29c-3.08,0-6.69-.68-8.25,2.01-1.37,2.32-.46,5.36,2.7,6.24h0Z"/>
  <path class="cls-3" d="M74.38,1.84c-.15.04-.11,0-.11.15.76.88,1.22,2.62,1.03,4.07l-1.71,3.43c.95.68,2.89.99,4.11,4.1.72,1.82.42,5.78.42,7.99v16.77c4.22.04,7.26-2.32,7.76-6.2.15-1.45.04-11.52.04-13.88,0-4.03-.04-7.8-2.66-11.26-1.03-1.33-2.09-2.4-3.65-3.35-1.14-.69-3.69-1.79-5.21-1.82h0Z"/>
  <path class="cls-3" d="M54.83,52.15c-.15.19.23.11-.15.15l-.08-.07c-.12-.42-.04.04.08-.11.07-1.06-.61-1.48-1.71-1.48-3.38-.08-2.62,1.86-2.81,3.31-.31,2.25-1.37,8.22-1.86,10.53-.19.91-.61,1.71.11,2.4.68.61,3.65.91,3.96-1.52.27-2.66.99-7.95,2.28-10.12.57-.95,1.94-2.85,3.61-2.47l-.68,9.02c-.11.68-.84,4.03-.76,4.41.12.57.88,1.03,1.6,1.1,3.12.31,2.81-2.81,3.08-4.68.23-1.45.5-2.93.84-4.34.38-1.52.84-2.59,1.6-3.61.65-.91,3.42-3.58,3.57-.54.08,1.75-1.21,8.29-1.52,9.89-.19.76-.68,1.98-.27,2.63.5.68,1.63.84,2.59.57.84-.23,1.48-.76,1.6-1.68.12-.99.19-1.98.38-2.93.26-1.9.65-3.73.99-5.59.3-1.67,1.06-4.22,0-5.59-.95-1.26-3.08-1.75-4.98-1.1-1.45.49-2.78,1.83-3.43,3l-.07.19-.15-.23c-.23-1.75-1.6-3.12-3.39-3.23-1.98-.11-3.84,1.03-4.41,2.09h0Z"/>
  <path class="cls-3" d="M32.92,52.65c-.15,1.41-1.33,7.19-1.79,8.48-1.37,3.84-4.52,4.83-5.59,2.93-1.45-2.58,0-13.77,7.38-11.41h0ZM30.94,64.44l.15-.23c.04.42.07.15-.08.42-.04.72-.3,1.52.08,2.05.3.46.95.72,1.64.72,2.36.04,2.17-1.48,2.28-2.44.23-3.04,1.33-8.71,2.01-11.94.15-.64.42-1.33.04-1.86-.34-.42-.91-.72-1.64-.57-1.18.23-.76.08-1.86-.19-1.86-.5-4.22-.23-5.93.53-3.99,1.86-6.92,7.49-6.92,11.68,0,2.81,1.75,4.72,4.26,5.09,1.6.19,2.66-.19,3.73-.95.76-.53,1.67-1.52,2.24-2.32h0Z"/>
  <path class="cls-3" d="M84.8,52.61c-.15,1.41-.53,2.93-.76,4.34-.27,1.44-.53,2.85-.99,4.22-1.37,3.8-4.56,4.87-5.63,2.85-1.37-2.55.07-9.47,3.23-11.18,1.6-.91,2.47-.61,4.14-.23h0ZM82.97,64.29c-.04.61-.3,1.6-.11,2.17.34,1.03,2.32,1.25,3.34.53.61-.42.61-.8.65-1.67.19-2.66.76-5.48,1.25-8.1.27-1.29.53-2.66.8-3.99.11-.57.42-1.41.11-1.94-.23-.42-.8-.8-1.56-.72-1.37.15,0,.38-1.82-.11-1.9-.53-4.41-.3-6.05.49-1.14.53-2.13,1.25-2.81,1.94-.65.69-1.44,1.71-2.02,2.66-1.07,1.87-2.2,4.6-2.17,7.19.08,2.78,1.86,4.72,4.45,4.98,3.27.34,4.64-1.97,5.93-3.42h0Z"/>
  <path class="cls-3" d="M121.61,52.61c-.23,1.49-.53,2.93-.84,4.42-.42,2.47-.99,5.74-3.04,7.23-4.33,3.19-5.09-3.99-2.66-8.71,1.6-3.08,3.46-3.73,6.54-2.93h0ZM119.75,64.25c.04.64-.31,1.48-.12,2.13.27,1.06,2.24,1.33,3.31.65.65-.38.65-.8.72-1.67.15-2.74,1.37-9.05,2.02-12.13.11-.57.42-1.41.15-1.94-.68-1.22-2.02-.49-2.51-.57-.49-.08-1.14-.53-3-.57-4.11-.04-6.7,2.09-8.75,5.4-1.03,1.67-2.28,4.91-2.17,7.3.19,4.9,5.93,6.81,9.35,2.62.19-.23.88-.99.99-1.22h0Z"/>
  <path class="cls-3" d="M19.54,50.14c.23-1.75,1.03-4.68,2.32-5.18.46-.15,1.14-.11,1.64-.27.42-.11.95-.42,1.1-.72.53-1.14-.95-1.56-1.94-1.49-4.45.38-6.51,3.23-7.15,7.57l-1.52.91c-.12.8.61.87.99,1.25l-2.32,14c-1.52,8.14-4.3,5.06-5.44,6.73-.38.57-.15,1.94,1.9,1.68,4.45-.61,6.62-4.22,7.64-8.6.34-1.56,2.21-13.5,2.43-13.77.15-.11.38-.11.57-.11.91-.04,4.07.15,3.23-1.45-.42-.87-2.36-.57-3.46-.57h0Z"/>
  <path class="cls-3" d="M103.81,52.12c.34-.76-.23-1.45-.72-1.67-1.6-.68-5.1-.11-6.54.38-7.95,2.89-10.15,15.44-.95,16.89,6.62,1.03,6.81-2.96,4.3-2.32-3.27.87-5.36-.5-5.67-3.65-.27-2.93.76-6.16,2.28-7.68,3.65-3.54,6.39.11,7.3-1.94h0Z"/>
  <path class="cls-3" d="M44.45,52.46c-.19.23-.11.11-.19.27-.15-.3-.08-.19,0-.3.08-.84.08-1.14-.5-1.48-.45-.27-.95-.3-1.52-.23-1.14.11-2.21.27-2.36,1.45-.08.53-.04,1.22-.08,1.82-.23,1.9-1.79,10.31-2.09,11.41-.76,2.51,3.65,2.47,4.18.57.42-1.44.61-6.58,1.98-9.58.38-.84,1.03-1.83,1.56-2.25,1.14-.95,5.25-1.56,3.88-3.46-1.14-1.56-4.49,1.03-4.87,1.79h0Z"/>
  <path class="cls-3" d="M109.02,52.31c.12-.91-.26-1.52-1.1-1.67-.45-.12-2.17.15-2.55.3-.76.38-.76,1.18-.8,2.13-.11,2.89-1.56,9.39-2.09,12.47-.3,1.68,1.86,2.32,3.54,1.33.8-.46.72-1.03.84-2.13.11-.84.23-1.71.38-2.51.26-1.67.57-3.27.87-4.98.27-1.56.72-3.39.92-4.95h0Z"/>
  <path class="cls-3" d="M107.2,44.78c-1.03.3-2.05,1.22-1.94,2.55.19,2.43,4.94,1.86,4.87-1.14-.04-1.33-1.56-1.83-2.93-1.41h0Z"/>
  <path class="cls-8" d="M50.07,24.35c1.22,0,5.86.15,6.69-.08l.04-6.54c-.38.61-.11,5.32-.15,6.46-.91.08-6.35-.12-6.58.15h0Z"/>
  <path class="cls-2" d="M54.22,34.13c.26-.11.11-1.71.11-2.05,0-.72-.04-1.49,0-2.21-.95-.23-4.3,0-5.59-.08.15.27.65.12,1.26.12l4.22.04v4.18Z"/>
  <path class="cls-2" d="M62.43,35.38c.38-.38.23-1.71.23-2.59v-2.85c.72-.08,4.68.04,4.94-.04.27-.08.19-.12.27-.19-.99.38-4.22-.15-5.32.15-.04,1.48.23,4.41-.12,5.51h0Z"/>
  <path class="cls-5" d="M94.91,71.7c4.07-.84,4.95,4.83,1.45,5.63-4.07.95-5.25-4.83-1.45-5.63h0ZM99.71,75.24c.42-2.43-1.26-4.3-3.27-4.64-2.51-.42-4.56,1.03-4.94,3.08-1.03,5.63,7.34,6.51,8.22,1.56h0Z"/>
  <path class="cls-5" d="M122.6,74.9c-.57,3.8-6.43,3.12-5.93-.8.23-1.56,1.6-2.66,3.42-2.47,1.48.19,2.78,1.56,2.51,3.27h0ZM115.49,75.01c.57,5.1,8.94,4.41,8.29-1.02-.26-2.17-2.21-3.69-4.72-3.43-2.13.23-3.84,2.05-3.57,4.45h0Z"/>
  <path class="cls-5" d="M66.47,72.54c1.41,1.52,2.86,3.23,4.22,4.83.76.87.68,1.18,1.87.99v-7.64l-1.11-.08v5.85c-1.06-1.06-1.59-1.78-2.62-2.89l-2.47-2.93-.95-.04v7.76h1.03l.04-5.86Z"/>
  <path class="cls-5" d="M20.75,71.66c2.47-.19,4.83.23,4.83,2.81s-2.32,3.16-4.83,2.85v-5.67ZM19.61,78.36c1.26.19,4.11.08,5.1-.46,2.97-1.6,2.51-5.63-.04-6.84-.87-.38-3.99-.61-5.06-.34v7.64Z"/>
  <path class="cls-5" d="M103.97,74.02v-2.39c1.07,0,2.17,0,2.17,1.18s-1.15,1.22-2.17,1.22h0ZM106.09,74.67c1.6-.72,1.41-2.47.76-3.23-.8-.95-2.55-.84-4.07-.8v7.76l1.14-.04.04-3.35,2.17,1.37c.38.53.95,1.83,1.48,2.02h1.14l-1.26-1.9c-.91-1.52-.95-1.25-1.41-1.82h0Z"/>
  <path class="cls-1" d="M58.9,72.43c.38.45,1.18,2.28,1.22,2.66h-2.28l1.06-2.66ZM55.28,78.4c1.71-.04.8.38,2.09-2.25l3.23-.04,1.07,2.28h1.14c-.46-1.07-3.16-7.38-3.5-7.8l-.76.04c-.46,1.1-3.16,7.11-3.27,7.76h0Z"/>
  <path class="cls-5" d="M78.79,72.46l1.1,2.62h-2.28c.11-.34.87-2.32,1.18-2.62h0ZM77.15,76.11h3.2l1.1,2.28h1.1l-3.42-7.8h-.76l-3.35,7.76,1.14.04.99-2.28Z"/>
  <path class="cls-5" d="M29.92,78.4h4.37v-1.03h-3.38v-2.36h3.16l.04-1.02h-3.2v-2.32h3.31l-.04-.95h-4.34c0,1.48-.19,6.62.08,7.68h0Z"/>
  <path class="cls-5" d="M48.86,77.79c.57.3.87.61,1.79.68,2.51.2,3.35-2.2,1.79-3.76-.65-.69-2.55-1.25-2.55-2.24,0-.69.8-.95,1.52-.88.76.11,1.03.49,1.52.72v-1.18c-.11-.11-.77-.75-1.81-.73-1.06.02-1.7.73-1.81.84-.55.91-.53,1.52-.42,1.9.5,1.75,4.03,2.17,3.12,3.77-.26.53-1.1.68-1.79.46-.68-.23-.91-.76-1.37-.99v1.41Z"/>
  <path class="cls-5" d="M85.94,71.66c.12,2.09-.04,4.6.04,6.73h1.1l.04-6.73h2.66v-1.02h-6.47v1.02h2.62Z"/>
  <polygon class="cls-5" points="37.14 78.4 41.74 78.4 41.78 77.33 38.28 77.33 38.28 70.72 37.14 70.64 37.14 78.4"/>
  <polygon class="cls-5" points="111.3 78.4 112.44 78.4 112.44 70.68 111.3 70.64 111.3 78.4"/>
  <path class="cls-6" d="M30.94,64.44l.08.19c.15-.27.11,0,.08-.42l-.15.23Z"/>
  <path class="cls-4" d="M44.45,52.46l-.19-.04c-.08.11-.15,0,0,.3.08-.15,0-.04.19-.27h0Z"/>
  <path class="cls-9" d="M54.83,52.15l-.15-.04c-.12.15-.19-.31-.08.11l.08.07c.38-.04,0,.04.15-.15h0Z"/>
  <path class="cls-7" d="M74.26,1.99c0-.15-.04-.11.11-.15l-.23-.11c-.04.57-.04.04.12.27h0Z"/>
  <polygon class="cls-7" points="62.85 53.33 62.63 53.29 62.78 53.53 62.85 53.33"/>
</svg>