<?xml version="1.0" encoding="UTF-8"?>
<svg id="Capa_1" data-name="Capa 1" xmlns="http://www.w3.org/2000/svg" xmlns:xlink="http://www.w3.org/1999/xlink" viewBox="0 0 152 80">
  <defs>
    <style>
      .cls-1 {
        fill: none;
      }

      .cls-2 {
        fill-rule: evenodd;
      }

      .cls-2, .cls-3 {
        fill: #fff;
      }

      .cls-4 {
        clip-path: url(#clippath-1);
      }

      .cls-5 {
        clip-path: url(#clippath-2);
      }

      .cls-6 {
        fill: url(#Degradado_sin_nombre_5);
      }

      .cls-7 {
        fill: url(#Degradado_sin_nombre_4);
      }

      .cls-8 {
        fill: url(#Degradado_sin_nombre_3);
      }

      .cls-9 {
        clip-path: url(#clippath);
      }
    </style>
    <clipPath id="clippath">
      <path class="cls-1" d="M5.41,40c0,18.77,31.6,33.99,70.59,33.99s70.59-15.22,70.59-33.99c0-18.77-31.6-33.99-70.59-33.99S5.41,21.23,5.41,40Z"/>
    </clipPath>
    <linearGradient id="Degradado_sin_nombre_4" data-name="Degradado sin nombre 4" x1="55.16" y1="-6738.49" x2="55.63" y2="-6738.49" gradientTransform="translate(-16536.75 2020955.69) scale(299.91)" gradientUnits="userSpaceOnUse">
      <stop offset="0" stop-color="#c4902d"/>
      <stop offset=".06" stop-color="#c99737"/>
      <stop offset=".24" stop-color="#d6ad57"/>
      <stop offset=".4" stop-color="#e0ba6a"/>
      <stop offset=".5" stop-color="#e4c072"/>
      <stop offset=".63" stop-color="#e2bd6f"/>
      <stop offset=".73" stop-color="#dab565"/>
      <stop offset=".82" stop-color="#cfaa55"/>
      <stop offset=".9" stop-color="#c29940"/>
      <stop offset=".97" stop-color="#b18728"/>
      <stop offset="1" stop-color="#a98020"/>
    </linearGradient>
    <clipPath id="clippath-1">
      <path class="cls-1" d="M7.93,40c0,15.71,30.47,28.46,68.07,28.46s68.07-12.75,68.07-28.46-30.47-28.45-68.07-28.45S7.93,24.28,7.93,40Z"/>
    </clipPath>
    <linearGradient id="Degradado_sin_nombre_5" data-name="Degradado sin nombre 5" x1="55.04" y1="-6737.52" x2="55.51" y2="-6737.52" gradientTransform="translate(-15909.14 1948424.28) scale(289.18)" gradientUnits="userSpaceOnUse">
      <stop offset="0" stop-color="#a01114"/>
      <stop offset=".19" stop-color="#c0161a"/>
      <stop offset=".52" stop-color="#f81921"/>
      <stop offset=".77" stop-color="#ca171d"/>
      <stop offset="1" stop-color="#a01114"/>
    </linearGradient>
    <clipPath id="clippath-2">
      <path class="cls-1" d="M65.28,23.91c-.03,1.73-.58,2.68-1.6,2.85-.97.16-1.77-.61-2.32-2.32-.58.17-1.17.33-1.75.5.08,1.06.31,2.09-.72,2.63-1.11.58-1.76-.35-2.5-1.04-.4.32-.76.61-1.32,1.06,2.08.96,1.93,2.83,2.07,4.49h18.54c-.52-2.08.44-3.52,2.04-4.74-.5-.39-.88-.7-1.29-1.02-.24.3-.39.52-.58.71-.57.56-1.2.97-2.02.56-.73-.36-1-1.15-.73-2.09.07-.25.21-.64.21-.64,0,0-1.51-.45-1.91-.56-.5,1.8-1.25,2.6-2.26,2.48-1.06-.13-1.65-1.12-1.66-2.87h-2.21Z"/>
    </clipPath>
    <linearGradient id="Degradado_sin_nombre_3" data-name="Degradado sin nombre 3" x1="38.95" y1="-6600.45" x2="39.42" y2="-6600.45" gradientTransform="translate(-1818.99 317637.26) scale(48.12)" gradientUnits="userSpaceOnUse">
      <stop offset="0" stop-color="#d6901e"/>
      <stop offset=".02" stop-color="#d6901e"/>
      <stop offset=".18" stop-color="#e9bf7d"/>
      <stop offset=".26" stop-color="#f2daa7"/>
      <stop offset=".38" stop-color="#e7bd79"/>
      <stop offset=".56" stop-color="#d6901e"/>
      <stop offset=".73" stop-color="#e9bf7d"/>
      <stop offset=".83" stop-color="#f2daa7"/>
      <stop offset=".88" stop-color="#e7bd79"/>
      <stop offset=".97" stop-color="#d6901e"/>
      <stop offset="1" stop-color="#e99f08"/>
    </linearGradient>
  </defs>
  <g class="cls-9">
    <rect class="cls-7" x="5.41" y="6.01" width="141.18" height="67.98"/>
  </g>
  <g class="cls-4">
    <rect class="cls-6" x="7.93" y="11.55" width="136.13" height="56.91"/>
  </g>
  <g class="cls-5">
    <rect class="cls-8" x="55.07" y="23.91" width="22.65" height="8.17"/>
  </g>
  <path class="cls-2" d="M114.85,26.67c-2.92-.94-5.76-1.93-8.64-2.75-5.58-1.59-11.29-2.49-17.05-3.1-6.17-.65-12.36-.86-18.55-.65-10.38.36-22.35,2.42-34.37,8.16-2.92,1.42-4.02,3.83-3.71,7.07h12.79v4.51h-12.8v15.96c-1.28-.73-5.18-2.85-5.18-2.85,0,0,0-12.6,0-17.97,0-4.24,1.89-7.29,5.39-9.4,3.77-2.28,7.89-3.77,12.09-5.02,10.79-3.23,21.85-4.27,33.05-3.98,12.14.32,24.05,2.15,35.65,5.79.67.21,1.32.42,1.32.42,0,0,0,3.04,0,3.81"/>
  <polygon class="cls-2" points="92.38 35.45 96.92 35.45 96.91 53.86 92.39 53.84 87.65 44.89 87.65 53.85 82.95 53.86 82.95 35.45 88.42 35.45 92.38 44.59 92.38 35.45"/>
  <path class="cls-2" d="M74.54,46.23v3.78h6.25l-.8,3.85s-6.76.02-9.98.02v-18.42c.36-.03,10.01,0,10.01,0,0,0,.59,2.85.79,3.88h-6.23v3.42h4.31v3.47h-4.34Z"/>
  <path class="cls-2" d="M123.33,53.85h-9.95v-18.4h9.97s.78,3.86.78,3.86h-6.3v3.4c1.22,0,4.4,0,4.4,0,0,0,0,2.57,0,3.5h-4.39v3.81h6.28c-.27,1.3-.53,2.53-.79,3.81"/>
  <path class="cls-2" d="M52.08,35.39v18.41h-4.57s-.02-18.42-.02-18.42c0,0,3.38.01,4.59.01"/>
  <path class="cls-2" d="M49.82,32.75c-1.48,0-2.74-1.24-2.75-2.68-.02-1.57,1.26-2.82,2.83-2.79,1.43.03,2.7,1.22,2.7,2.53,0,1.71-1.17,2.95-2.77,2.94"/>
  <path class="cls-3" d="M111.49,48.82v-.17h0c-.07-1.89-1.05-3.36-2.94-4.31-.54-.28-1.16-.38-2.07-.66,1.13-1.04,4.7-4.58,4.7-4.58v-3.64s-11.59,0-11.59,0v3.63h6.57l-4.75,5.15-.02,3.04s1.14-.56,1.67-.75c1.61-.56,3.09.12,3.64,1.72,0,.02,0,.04.01.06.12.5.89,4.31-4.34,7.78l-1.52.91c-1.22.66-2.68,1.29-4.44,1.87,0,0-.21.06-.58.16-2.89.86-6.14,1.33-9.58,1.3-2.02-.02-3.97-.21-5.82-.55-.72-.13-1.45-.28-2.17-.47-.11-.02-.21-.05-.31-.08-.15-.04-.31-.09-.46-.14-4.5-1.28-8.17-3.49-10.39-6.22h-.01s-.11-.14-.27-.37c-.21-.29-.41-.57-.6-.87-.67-1.01-1.56-2.5-2.11-3.92,3.46-.89,3.49-5.76,3.49-5.76.01-.16,0-.3,0-.45h0c-.52-5.17-4.05-6-4.99-6.13-.31-.03-.63-.04-.97-.04h-7.36v18.11h4.92v-5.3h.58s.14.49.5,1.29c3.78,9.02,12.61,14.47,26.1,14.6,5.88.06,11.25-1.31,15.6-3.45,1.54-.71,3.02-1.58,4.35-2.61v.04c3.53-2.42,4.64-5.68,4.99-7.64.11-.54.17-1.05.16-1.54M59.69,45.39h-.47v-6.47h.47c1.61,0,3.42.41,3.42,3.24,0,2.83-1.81,3.24-3.42,3.24"/>
</svg>