<?xml version="1.0" encoding="UTF-8"?>
<svg id="Capa_1" data-name="Capa 1" xmlns="http://www.w3.org/2000/svg" viewBox="0 0 180 80">
  <defs>
    <style>
      .cls-1 {
        fill: #005b94;
      }

      .cls-2 {
        fill: #c6007f;
      }
    </style>
  </defs>
  <g>
    <path class="cls-2" d="M64.22,21.81c-.08.47-.17.85-.25,1.14-.08.3-.25.54-.48.73-.24.19-.58.31-1.04.37-.46.07-1.1.1-1.9.1s-1.42-.03-1.85-.1c-.42-.06-.73-.19-.91-.37-.19-.19-.27-.43-.25-.73.02-.29.08-.68.16-1.14.09-.5.18-.92.27-1.25.09-.33.26-.58.51-.77.25-.19.6-.31,1.05-.38.44-.07,1.07-.1,1.88-.1s1.43.03,1.87.1c.44.07.74.19.91.38.17.18.24.44.21.77-.03.33-.08.75-.17,1.25Z"/>
    <g>
      <path class="cls-1" d="M54.7,51.72c-.87,0-1.45-.17-1.73-.52-.28-.35-.35-.96-.19-1.83l3.59-20.38c.16-.88.43-1.49.83-1.83.4-.35,1.04-.52,1.91-.52h1.96c.87,0,1.45.17,1.73.52.28.34.34.95.19,1.83l-3.6,20.38c-.15.87-.43,1.48-.83,1.83-.41.34-1.04.52-1.91.52h-1.96Z"/>
      <path class="cls-1" d="M66.33,51.72c-.88,0-1.47-.17-1.75-.52-.29-.35-.35-.96-.2-1.83l3.59-20.38c.15-.88.43-1.49.84-1.83.4-.35,1.05-.52,1.93-.52h1.22c.63,0,1.08.11,1.35.33.28.22.47.64.58,1.27.17-.06.5-.2.99-.42.49-.22,1.1-.45,1.81-.7.71-.25,1.51-.47,2.37-.66.86-.18,1.77-.28,2.7-.28,1.44,0,2.59.22,3.45.66.86.44,1.48,1.09,1.87,1.95.38.86.55,1.93.53,3.21-.02,1.29-.18,2.77-.48,4.46l-2.28,12.92c-.15.87-.43,1.48-.84,1.83-.4.34-1.05.52-1.92.52h-1.92c-.87,0-1.46-.17-1.74-.52-.29-.35-.35-.96-.19-1.83l2.18-12.35c.2-1.15.31-2.1.33-2.82.02-.71-.07-1.27-.27-1.67-.2-.39-.5-.66-.91-.8-.41-.13-.96-.21-1.64-.21-.84,0-1.63.09-2.36.28-.73.18-1.25.34-1.55.47l-3.02,17.1c-.15.87-.43,1.48-.84,1.83-.41.34-1.05.52-1.94.52h-1.89Z"/>
      <path class="cls-1" d="M103.26,50.18c-.17.06-.5.19-.99.4-.49.2-1.09.43-1.79.67-.7.25-1.49.47-2.35.66-.86.19-1.77.28-2.7.28-1.44,0-2.59-.2-3.44-.62-.85-.4-1.48-1.04-1.87-1.92-.39-.87-.58-1.99-.57-3.34.02-1.35.2-2.96.52-4.84l.78-4.41c.33-1.88.73-3.5,1.21-4.87.47-1.36,1.07-2.49,1.79-3.38.72-.89,1.58-1.55,2.58-1.99,1-.44,2.21-.66,3.62-.66.85,0,1.62.07,2.34.22.71.13,1.33.3,1.86.49.53.19.97.37,1.33.54.36.17.61.27.72.3l1.14-6.48c.15-.88.43-1.49.84-1.83.4-.35,1.04-.52,1.92-.52h1.97c.88,0,1.46.17,1.74.52.29.34.35.95.2,1.83l-4.96,28.13c-.16.87-.44,1.48-.84,1.83-.4.34-1.05.52-1.92.52h-1.27c-.63,0-1.07-.11-1.33-.33-.26-.22-.44-.63-.56-1.22ZM96.88,40.6c-.24,1.38-.38,2.47-.42,3.28-.03.81.04,1.44.21,1.88.17.43.48.73.9.87.43.14.97.21,1.63.21.85,0,1.63-.07,2.36-.23.73-.16,1.25-.3,1.55-.42l2.45-13.9c-.26-.12-.72-.28-1.39-.47-.67-.19-1.43-.28-2.28-.28-.65,0-1.23.08-1.71.23-.48.16-.89.45-1.22.9-.33.44-.62,1.07-.88,1.92-.26.85-.51,1.94-.74,3.28l-.48,2.73Z"/>
      <path class="cls-1" d="M135.77,39.18c-.42,2.35-.9,4.34-1.45,5.99-.56,1.64-1.31,2.99-2.27,4.04-.95,1.05-2.16,1.81-3.62,2.27-1.46.47-3.29.71-5.48.71s-3.93-.24-5.21-.71c-1.28-.47-2.21-1.23-2.79-2.27-.58-1.05-.87-2.4-.86-4.04,0-1.64.22-3.64.63-5.99.42-2.35.91-4.35,1.48-6.01.58-1.66,1.34-3,2.29-4.04.95-1.04,2.15-1.78,3.59-2.26,1.45-.47,3.26-.7,5.46-.7s3.94.23,5.23.7c1.29.47,2.23,1.22,2.82,2.26.58,1.03.86,2.38.84,4.04-.03,1.66-.24,3.66-.66,6.01ZM121.36,39.18c-.3,1.66-.49,3-.6,4.02-.1,1.02-.06,1.79.11,2.32.17.53.5.88.98,1.06.48.17,1.18.25,2.08.25s1.59-.08,2.15-.25c.56-.18,1.02-.53,1.4-1.06.37-.53.69-1.3.95-2.32.26-1.02.53-2.36.82-4.02.3-1.66.49-2.99.59-3.99.1-1,.06-1.78-.12-2.33-.18-.55-.52-.91-1.03-1.08-.5-.17-1.18-.26-2.05-.26s-1.62.09-2.17.26c-.54.17-.99.53-1.35,1.08-.36.55-.67,1.32-.92,2.33-.25,1-.53,2.33-.82,3.99Z"/>
      <path class="cls-1" d="M139.68,51.72c-.89,0-1.47-.17-1.75-.52-.28-.35-.35-.96-.2-1.83l3.6-20.38c.16-.88.43-1.49.84-1.83.4-.35,1.05-.52,1.92-.52h1.22c.63,0,1.08.11,1.35.33.27.22.47.64.58,1.27.14-.09.46-.25.95-.47.49-.22,1.08-.44,1.74-.68.67-.23,1.42-.45,2.25-.63.83-.18,1.67-.28,2.52-.28,1.6,0,2.82.23,3.66.7.84.47,1.46,1,1.86,1.6.2-.09.55-.28,1.03-.54.48-.27,1.07-.53,1.76-.77.69-.26,1.45-.48,2.3-.68.85-.2,1.75-.31,2.69-.31,1.32,0,2.38.22,3.2.63.82.42,1.42,1.06,1.8,1.9.38.85.57,1.9.57,3.17,0,1.27-.15,2.74-.45,4.44l-2.3,13.06c-.15.87-.43,1.48-.85,1.83-.4.34-1.05.52-1.94.52h-1.89c-.89,0-1.47-.17-1.76-.52-.29-.35-.35-.96-.2-1.83l2.23-12.63c.19-1.07.28-1.94.28-2.63s-.1-1.23-.3-1.6c-.19-.37-.49-.64-.87-.77-.38-.13-.85-.21-1.41-.21-.72,0-1.43.11-2.14.35-.71.23-1.2.43-1.48.59l-2.98,16.9c-.15.87-.43,1.48-.84,1.83-.41.34-1.06.52-1.94.52h-1.89c-.89,0-1.47-.17-1.75-.52-.29-.35-.35-.96-.2-1.83l2.94-16.67c-.08-.25-.33-.51-.75-.77-.42-.27-1.08-.4-1.98-.4-.84,0-1.61.09-2.31.26-.7.17-1.18.33-1.46.49l-3.02,17.1c-.15.87-.43,1.48-.84,1.83-.41.34-1.05.52-1.93.52h-1.89Z"/>
    </g>
  </g>
  <g>
    <path class="cls-2" d="M23.52,50.36h-7.49c-.24,0-.45.14-.54.34-.09.21-.04.44.13.6l10.27,9.64c.11.11.27.16.42.16.08,0,.15-.02.22-.04.22-.08.37-.29.37-.51v-7.03c0-1.74-1.52-3.17-3.37-3.17Z"/>
    <path class="cls-2" d="M50.04,38.26l-10.27-9.64c-.17-.16-.42-.21-.64-.12-.22.08-.36.29-.36.51v7.03c0,1.75,1.52,3.17,3.37,3.17h7.49c.33,0,.59-.25.59-.55,0-.15-.06-.29-.17-.39Z"/>
    <path class="cls-2" d="M36.99,26.01l-6.25-5.91c-.11-.11-.26-.16-.42-.16h-7.48c-1.86,0-3.37,1.42-3.37,3.17v7.03c0,1.14-.99,2.06-2.2,2.06h-7.48c-1.86,0-3.37,1.42-3.37,3.17v7.03c0,.14.06.28.17.39l6.25,5.91c.11.11.27.16.42.16.07,0,.15-.01.22-.04.22-.08.37-.28.37-.51v-7.03c0-1.14.98-2.06,2.2-2.06h7.49c1.86,0,3.37-1.42,3.37-3.17v-7.03c0-1.14.99-2.06,2.2-2.06h7.48c.24,0,.45-.14.54-.34.09-.2.04-.44-.13-.6Z"/>
  </g>
</svg>