<?xml version="1.0" encoding="UTF-8"?>
<svg id="Capa_1" data-name="Capa 1" xmlns="http://www.w3.org/2000/svg" viewBox="0 0 118 80">
  <defs>
    <style>
      .cls-1 {
        fill: #0a73b9;
      }
    </style>
  </defs>
  <polygon class="cls-1" points="6.97 52.37 6.11 52.37 6.11 58.5 9.89 58.5 9.89 57.76 6.97 57.76 6.97 52.37"/>
  <path class="cls-1" d="M17.22,52.37l-2.3,6.12h.88l.5-1.43h2.72l.5,1.43h.91l-2.3-6.12h-.91ZM16.54,56.39l1.12-3.15,1.12,3.15h-2.24Z"/>
  <path class="cls-1" d="M29.65,55.32c.53-.22.85-.63.85-1.3,0-1.09-.79-1.66-2.16-1.66h-2.19v6.12h2.36c1.43,0,2.25-.59,2.25-1.72,0-.79-.42-1.24-1.1-1.45ZM27,53.08h1.28c1,0,1.34.34,1.34.97s-.34.98-1.34.98h-1.28v-1.94ZM28.43,57.78h-1.44v-2.07h1.44c1.08,0,1.44.36,1.44,1.04s-.36,1.03-1.44,1.03Z"/>
  <path class="cls-1" d="M39.24,52.26c-1.85,0-2.77,1.27-2.77,3.17s.91,3.17,2.77,3.17,2.77-1.27,2.77-3.17-.91-3.17-2.77-3.17ZM39.24,57.86c-1.51,0-1.89-1.23-1.89-2.43s.37-2.43,1.89-2.43,1.89,1.23,1.89,2.43-.38,2.43-1.89,2.43Z"/>
  <path class="cls-1" d="M52.42,54.29c0-1.29-.89-1.92-2.47-1.92h-1.91v6.12h.86v-2.28h1.16l1.69,2.28h1.04l-1.83-2.43c.9-.21,1.46-.78,1.46-1.78ZM49.93,55.49h-1.03v-2.39h1.03c1.22,0,1.61.4,1.61,1.2s-.42,1.2-1.61,1.2Z"/>
  <path class="cls-1" d="M59.98,52.37l-2.3,6.12h.88l.5-1.43h2.72l.5,1.43h.91l-2.3-6.12h-.91ZM59.3,56.39l1.12-3.15,1.12,3.15h-2.24Z"/>
  <polygon class="cls-1" points="67.64 53.11 69.54 53.11 69.54 58.5 70.4 58.5 70.4 53.11 72.3 53.11 72.3 52.37 67.64 52.37 67.64 53.11"/>
  <path class="cls-1" d="M80.06,52.26c-1.85,0-2.77,1.27-2.77,3.17s.91,3.17,2.77,3.17,2.77-1.27,2.77-3.17-.91-3.17-2.77-3.17ZM80.06,57.86c-1.51,0-1.89-1.23-1.89-2.43s.37-2.43,1.89-2.43,1.89,1.23,1.89,2.43-.38,2.43-1.89,2.43Z"/>
  <path class="cls-1" d="M93.24,54.29c0-1.29-.89-1.92-2.47-1.92h-1.91v6.12h.86v-2.28h1.16l1.69,2.28h1.04l-1.83-2.43c.9-.21,1.46-.78,1.46-1.78ZM90.75,55.49h-1.03v-2.39h1.03c1.22,0,1.61.4,1.61,1.2s-.42,1.2-1.61,1.2Z"/>
  <path class="cls-1" d="M109.63,52.26c-1.85,0-2.77,1.27-2.77,3.17s.91,3.17,2.77,3.17,2.77-1.27,2.77-3.17-.91-3.17-2.77-3.17ZM109.63,57.86c-1.51,0-1.89-1.23-1.89-2.43s.37-2.43,1.89-2.43,1.89,1.23,1.89,2.43-.38,2.43-1.89,2.43Z"/>
  <rect class="cls-1" x="99.72" y="52.37" width=".79" height="6.12"/>
  <path class="cls-1" d="M37.13,37.37c4.11.21,8.54,0,12.69,0,1.14,0,3.81-1.97,4.5-3.01,2.96-4.5.75-10.45-4.38-12.05-8.24-2.56-18.95.1-20.11,9.8-1.41,11.87,6.25,16.27,17.21,15.49,3.77-.27,8.93-.94,7.74-5.9-5.69.25-16.79,3.55-18.62-4.16-.28-1.19.84-.18.97-.17ZM46.62,26.79c4.24.6,2.75,5.86.83,5.86h-11.3c.28-5.78,5.61-6.55,10.47-5.86Z"/>
  <path class="cls-1" d="M111.9,46.62v-15.73c0-2.24-1.94-5.56-3.77-6.88-3.5-2.53-12.85-2.81-16.84-1.37-2.86,1.04-2.49,2.12-2.39,4.91,5.71-.3,17.12-3.82,17.05,5.11-6.87-.59-19.06-3.5-19.06,6.88,0,8.02,10.52,9.48,16.56,7.35,1.47-.52,2.81-2.7,2.5.32,1.12-.2,5.61.51,5.95-.59ZM102.09,42.4c-2.35.47-8.51.78-9.15-2.16-1.34-6.11,9.81-2.96,13.01-3.25-.38,2.3-1.24,4.89-3.86,5.41Z"/>
  <path class="cls-1" d="M71.46,32.67l-.02,4.7h5.75c1.83,2.99,0,4.83-3.15,5.13-6.77.66-10.36-2.45-9.75-9.28.78-8.82,12.64-6.66,18.65-5.29.88-4.6-1.53-5.07-5.45-5.8-7.55-1.39-17.11.29-19.03,8.85-2.82,12.56,7.45,18.81,18.96,16.04,4.07-.98,6.45-3.23,6.72-7.5.55-8.71-6.1-7.62-12.66-6.86Z"/>
  <path class="cls-1" d="M28.15,44.98l.06-3.67c-2.66,1.18-14.81,2.13-16.07-.39-.85-5.57.47-12.07-.17-17.53-.07-.57-.05-1.01-.62-1.36h-5.75v19.47c0,.17,1.03,2.35,1.25,2.69,3.33,5.05,16.76,4.23,21.29.79Z"/>
</svg>