<?xml version="1.0" encoding="UTF-8"?>
<svg id="Capa_1" data-name="Capa 1" xmlns="http://www.w3.org/2000/svg" viewBox="0 0 184 80">
  <defs>
    <style>
      .cls-1 {
        fill: #0081ae;
      }
    </style>
  </defs>
  <path class="cls-1" d="M22.39,33.27h.11c2.45-3.26,5.46-4.64,9.21-4.64,4.21,0,7.84,1.72,9.95,5.6,1.99-3.66,5.91-5.6,9.89-5.6,7.4,0,9.96,4.86,9.96,11.61v18.71h-10.35v-14.01c0-3.04.11-8.02-4.26-8.02-4.78,0-4.95,4.52-4.95,8.02v14.01h-10.34v-14.01c0-3.27,0-8.24-4.61-8.24s-4.6,4.97-4.6,8.24v14.01h-10.35v-29.35h10.35v3.67Z"/>
  <path class="cls-1" d="M98.79,58.96h-10.35v-3.26h-.11c-1.82,2.92-5.4,4.23-8.82,4.23-8.64,0-14.72-7.27-14.72-15.68s5.97-15.62,14.61-15.62c3.36,0,6.89,1.26,9.04,3.83v-2.86h10.35v29.35ZM75.49,44.31c0,3.72,2.44,6.59,6.65,6.59s6.64-2.87,6.64-6.59-2.44-6.64-6.64-6.64-6.65,3.03-6.65,6.64"/>
  <path class="cls-1" d="M102.87,11.46h10.35v21c2.22-2.57,5.68-3.83,9.05-3.83,8.63,0,14.6,7.2,14.6,15.62s-6.02,15.68-14.71,15.68c-3.42,0-6.94-1.31-8.82-4.23h-.11v3.26h-10.35V11.46ZM112.89,44.31c0,3.72,2.44,6.59,6.65,6.59s6.65-2.87,6.65-6.59-2.44-6.64-6.65-6.64-6.65,3.03-6.65,6.64"/>
  <path class="cls-1" d="M171.96,46.02h-21.77c0,4.24,2.22,6.53,6.48,6.53,2.22,0,3.81-.74,4.95-2.69h9.95c-1.65,6.92-8.2,10.07-14.85,10.07-9.67,0-16.89-5.49-16.89-15.62s6.66-15.68,16.16-15.68c10.11,0,15.97,6.29,15.97,16.31v1.08ZM162.36,40.02c-.51-2.8-3.08-4.64-5.86-4.64-3.01,0-5.52,1.6-6.15,4.64h12Z"/>
</svg>