<?xml version="1.0" encoding="UTF-8"?>
<svg id="Capa_1" data-name="Capa 1" xmlns="http://www.w3.org/2000/svg" viewBox="0 0 140 80">
  <defs>
    <style>
      .cls-1 {
        fill: #00a98f;
      }
    </style>
  </defs>
  <polygon class="cls-1" points="8.53 54.85 10.14 54.85 12.94 62.31 15.75 54.85 17.37 54.85 17.37 63.72 16.24 63.72 16.24 56.33 16.23 56.33 13.45 63.72 12.44 63.72 9.68 56.33 9.65 56.33 9.65 63.72 8.53 63.72 8.53 54.85"/>
  <polygon class="cls-1" points="19.88 54.85 26.01 54.85 26.01 55.85 21.06 55.85 21.06 58.66 25.66 58.66 25.66 59.66 21.06 59.66 21.06 62.73 26.05 62.73 26.05 63.72 19.88 63.72 19.88 54.85"/>
  <path class="cls-1" d="M28.03,54.85h3.05c2.72,0,4.26,1.37,4.26,4.22s-1.31,4.65-4.26,4.65h-3.05v-8.87ZM29.21,62.73h1.97c.8,0,2.97-.23,2.97-3.49,0-2.11-.77-3.38-2.96-3.38h-1.98v6.88Z"/>
  <rect class="cls-1" x="37.37" y="54.85" width="1.18" height="8.87"/>
  <path class="cls-1" d="M47.33,57.53c-.24-1.26-1.26-1.9-2.48-1.9-2.11,0-3,1.75-3,3.59,0,2.02.9,3.72,3.02,3.72,1.54,0,2.44-1.1,2.56-2.57h1.18c-.23,2.22-1.61,3.56-3.84,3.56-2.77,0-4.11-2.05-4.11-4.62s1.47-4.67,4.21-4.67c1.85,0,3.37.99,3.65,2.89h-1.19Z"/>
  <rect class="cls-1" x="50.68" y="54.85" width="1.18" height="8.87"/>
  <polygon class="cls-1" points="54.39 54.85 55.64 54.85 60.31 62.04 60.35 62.04 60.35 54.85 61.45 54.85 61.45 63.72 60.16 63.72 55.54 56.6 55.5 56.6 55.5 63.72 54.39 63.72 54.39 54.85"/>
  <path class="cls-1" d="M66.33,54.85h1.31l3.47,8.87h-1.3l-.97-2.67h-3.76l-1,2.67h-1.2l3.45-8.87ZM65.45,60.06h3.01l-1.48-4.14h-.02l-1.51,4.14Z"/>
  <path class="cls-1" d="M76.55,54.85h3.88c1.76,0,2.72.98,2.72,2.62s-.96,2.63-2.72,2.62h-2.71v3.63h-1.17v-8.87ZM77.72,59.1h2.31c1.34.01,1.94-.56,1.94-1.63s-.61-1.62-1.94-1.62h-2.31v3.25Z"/>
  <path class="cls-1" d="M85.16,54.85h4.17c1.66,0,2.7.91,2.7,2.33,0,1.07-.49,1.95-1.55,2.24v.02c1.03.19,1.25.96,1.33,1.82.07.88.02,1.85.53,2.46h-1.32c-.33-.36-.15-1.31-.33-2.19-.12-.87-.33-1.6-1.48-1.6h-2.88v3.79h-1.18v-8.87ZM88.8,58.94c1.1,0,2.04-.29,2.04-1.58,0-.87-.46-1.51-1.57-1.51h-2.93v3.09h2.46Z"/>
  <rect class="cls-1" x="94.26" y="54.85" width="1.18" height="8.87"/>
  <polygon class="cls-1" points="101.47 63.72 100.15 63.72 97.01 54.85 98.29 54.85 100.82 62.54 100.84 62.54 103.4 54.85 104.63 54.85 101.47 63.72"/>
  <path class="cls-1" d="M108.54,54.85h1.31l3.47,8.87h-1.31l-.97-2.67h-3.76l-.99,2.67h-1.21l3.46-8.87ZM107.67,60.06h3.01l-1.49-4.14h-.03l-1.5,4.14Z"/>
  <path class="cls-1" d="M114.73,54.85h3.05c2.73,0,4.26,1.37,4.26,4.22s-1.3,4.65-4.26,4.65h-3.05v-8.87ZM115.92,62.73h1.97c.81,0,2.98-.23,2.98-3.49,0-2.11-.78-3.38-2.96-3.38h-1.99v6.88Z"/>
  <path class="cls-1" d="M126.45,54.85h1.31l3.46,8.87h-1.29l-.98-2.67h-3.75l-.99,2.67h-1.21l3.46-8.87ZM125.56,60.06h3.02l-1.49-4.14h-.02l-1.51,4.14Z"/>
  <polygon class="cls-1" points="8.52 16.07 21.51 16.07 31.33 37.71 31.44 37.71 40.73 16.07 53.72 16.07 53.72 47.53 45.08 47.53 45.08 25.23 44.97 25.23 34.68 47.53 27.56 47.53 17.27 25.45 17.16 25.45 17.16 47.53 8.52 47.53 8.52 16.07"/>
  <polygon class="cls-1" points="62.05 16.07 93.45 16.07 93.45 21.88 71.29 21.88 71.29 28.62 91.63 28.62 91.63 34.01 71.29 34.01 71.29 41.72 93.92 41.72 93.92 47.53 62.05 47.53 62.05 16.07"/>
  <polygon class="cls-1" points="109.67 21.88 97.08 21.88 97.08 16.07 131.48 16.07 131.48 21.88 118.9 21.88 118.9 47.53 109.67 47.53 109.67 21.88"/>
</svg>