<?xml version="1.0" encoding="UTF-8"?>
<svg id="Capa_1" data-name="Capa 1" xmlns="http://www.w3.org/2000/svg" viewBox="0 0 192 80">
  <defs>
    <style>
      .cls-1 {
        fill: #1c1c1b;
      }
    </style>
  </defs>
  <g>
    <path class="cls-1" d="M29.31,44.92c-.32.75-.37,1.44-.6,2.18l-3.17,10h-4.64s-2.84-9.39-2.84-9.39c-.29-.94-.34-1.84-.58-2.84-.34.71-.17,1.34-.28,2.03l-1,10.21h-7.69s3.53-22.19,3.53-22.19h8.17s3.05,11.76,3.05,11.76c.41-1,.34-1.92.64-2.87l2.51-8.89h8.09s3.59,22.19,3.59,22.19h-7.69s-1.09-12.18-1.09-12.18Z"/>
    <path class="cls-1" d="M47.35,41.89c-2.45.42-3.97,2.77-3.55,5.13.42,2.36,2.64,3.94,4.95,3.56,2.36-.39,3.97-2.67,3.59-5.04-.38-2.37-2.56-4.06-4.99-3.65M46.76,34.62c6.37-.74,12.03,3.95,12.72,10.32.69,6.4-3.84,12.19-10.15,12.9-6.27.71-11.92-3.85-12.67-10.22-.75-6.37,3.72-12.25,10.1-12.99"/>
    <path class="cls-1" d="M174.5,57.09l-7.58.03-7.1-11.8c-.02,1.43.39,2.62.39,3.96v7.82s-7.59,0-7.59,0v-22.19h7.62s7.02,12.13,7.02,12.13c.09.11.2.16.28.11-.28-1.66-.53-3.19-.64-4.84v-7.4h7.59v22.17Z"/>
    <path class="cls-1" d="M81.81,57.11h-7.59s-7.07-11.78-7.07-11.78c-.03,1.44.38,2.62.38,3.96v7.82s-7.58,0-7.58,0v-22.19h7.61s7.23,12.42,7.23,12.42c-.05-1.78-.52-3.25-.55-4.91v-7.52s7.58,0,7.58,0v22.19Z"/>
    <path class="cls-1" d="M121.23,42.74c-.05-.82-.46-1.44-1.24-1.61-.6-.13-1.23-.14-1.89-.14v3.76c.66,0,1.28-.01,1.88-.15.87-.2,1.31-.94,1.25-1.87M124.71,48.48c.51.48.98.79,1.32,1.3l4.81,7.32h-9.16s-3.54-7.19-3.54-7.19l-.06,7.2h-7.77s0-22.19,0-22.19l10.22.02c1.6,0,3.07.36,4.49.98,1.9.89,3.26,2.49,3.73,4.58.3,1.36.32,2.74.04,4.1-.47,2.3-2.12,3.09-4.09,3.88"/>
    <path class="cls-1" d="M139.89,41.88c-2.45.41-3.99,2.76-3.56,5.14.43,2.35,2.63,3.94,4.95,3.56,2.35-.39,3.96-2.65,3.58-5.03-.37-2.37-2.55-4.07-4.98-3.66M139.3,34.62c6.37-.73,12.02,3.97,12.7,10.33.69,6.4-3.84,12.17-10.13,12.88-6.27.71-11.92-3.84-12.68-10.2-.76-6.39,3.72-12.28,10.11-13.01"/>
    <polygon class="cls-1" points="95.55 57.1 87.63 57.11 87.63 41.95 83.26 42.14 83.26 34.92 99.92 34.92 99.92 42.14 95.55 41.94 95.55 57.1"/>
    <rect class="cls-1" x="175.55" y="34.92" width="7.94" height="22.18"/>
    <polygon class="cls-1" points="109.14 57.1 101.2 57.11 101.2 34.92 109.14 34.92 109.14 57.1"/>
  </g>
  <g>
    <path class="cls-1" d="M56.13,26.23c-.03-.98-.57-1.79-1.29-2.17-.84-.44-1.83-.38-2.57.2-.79.62-1.09,1.64-.9,2.63.25,1.31,1.41,2.13,2.66,1.98,1.24-.15,2.14-1.26,2.09-2.64M53.62,30.57c-2.19-.05-3.94-1.6-4.15-3.77-.23-2.37,1.39-4.41,3.71-4.67,1.28-.15,2.53.19,3.51,1.09,1.31,1.2,1.67,3.11.99,4.77-.65,1.6-2.23,2.62-4.06,2.58"/>
    <path class="cls-1" d="M23.52,26.18c.72,0,1.11-.62,1.08-1.22-.03-.58-.48-1.05-1.13-1.06l-2-.02v2.32l2.06-.02ZM26.64,30.41l-2.08.02-1.7-2.59-1.39-.02v2.61s-1.79,0-1.79,0v-8.18h4.05c.73.01,1.42.31,1.95.77.53.51.7,1.18.73,1.9.05,1.2-.61,2.16-1.7,2.6l1.93,2.89Z"/>
    <path class="cls-1" d="M14.45,27.3l-1.76-.02v-1.57s3.51,0,3.51,0v3.56c-1.25,1.09-2.8,1.51-4.4,1.21-1.86-.34-3.13-1.86-3.27-3.76-.2-2.62,1.79-4.72,4.38-4.62,1.11.04,2.15.34,3,1.14l-1.12,1.37c-.77-.65-1.71-1.02-2.68-.74-1.05.31-1.7,1.31-1.71,2.41-.02,1.01.43,1.95,1.33,2.39.88.43,1.91.3,2.72-.22v-1.16Z"/>
    <path class="cls-1" d="M34.92,22.25h1.78s-.02,5.14-.02,5.14c0,1.1-.57,2.14-1.47,2.67-.89.53-1.9.57-2.9.42-1.5-.23-2.58-1.43-2.59-3.01l-.03-5.22h1.78s.03,5.01.03,5.01c0,1.02.8,1.64,1.74,1.63.89-.01,1.65-.62,1.66-1.59l.02-5.03Z"/>
    <path class="cls-1" d="M43.82,26.32c.74-.08,1.11-.73,1.06-1.37-.05-.61-.55-1.06-1.23-1.06h-1.54s0,2.47,0,2.47c.61,0,1.14.01,1.71-.05M43.71,27.96l-1.6.02v2.44s-1.8,0-1.8,0v-8.17s3.83.04,3.83.04c1.55.02,2.63,1.35,2.54,2.89.03,1.69-1.39,2.78-2.97,2.8"/>
  </g>
</svg>