<?xml version="1.0" encoding="UTF-8"?>
<svg id="Capa_1" data-name="Capa 1" xmlns="http://www.w3.org/2000/svg" viewBox="0 0 134 80">
  <defs>
    <style>
      .cls-1 {
        fill: #86764f;
      }
    </style>
  </defs>
  <path class="cls-1" d="M39.82,12.56v15.55s.01,8.07.01,8.07c0,0,0,1.21.46,1.74,0,0,1.18,1.66,2.48,2.81,0,0,.08.1.24-.03,0,0,3.81-3.52,4.73-4.29,0,0,1.28-1.02,1.57-1.27.32-.28.04-.65.05-.64,0,0-.33-.3-.63-.07,0,0-.99.8-1.44.5,0,0-.31-.27-.45-.52,0,0-.36-.35-.36-1.38v-5.14l.08-17.69c0-1.76-.88-2.32-.88-2.32-1.5-1.73-4.7-5.05-4.7-5.05-.22-.25-.41-.3-.41-.3-.17,0-.61.51-.61.51-.64.71-3.69,3.48-6.27,5.8l-.66.57c-.3.29-.43-.03-.43-.03-1.48-1.87-5.61-6.48-5.61-6.48-.22-.24-.41-.29-.41-.29-.16,0-.61.51-.61.51-1.04,1.15-8.42,7.74-9.85,9.01-1.64,1.45-1.78,1.7-2.34,2.48-.95,1.31-1.5,4.42-1.1,7.49,0,0-3.11.46-3.57,4.26,0,0-.05.45.25.56,0,0,.24.08.54-.4,0,0,1.19-1.52,3.58-1.49,0,0,.08.19.74.93,0,0,1.24,1.28,1.35,3.13,0,0,.23,1.71-.54,2.94,0,0-.11.23.11.43,0,0,.46.19,1.4-.67,0,0,1.02-.74,2.03-2.85.5-1.04.68-2.29.83-3.78.23-2.33-.37-5.15-.37-5.15-.46-3.13-.02-5.66-.02-5.66,0,0,.18-1.38.82-2.84.41-.94,1.05-1.82,1.87-2.71,0,0,.46-.54.9-.54,0,0,.33.11.55.41,0,0,2.14,2.33,2.55,2.93,0,0,.4.29.4,1.43v23.31s0,1.02.46,1.55c0,0,1.63,2.06,2.42,2.8,0,0,.08.1.23-.03,0,0,3.81-3.51,4.73-4.29,0,0,.34-.27.63-.51.21-.17.47-.43.32-.71-.13-.24-.42-.22-.41-.2,0,0-.14.05-.34.1,0,0-.37.02-.59-.19,0,0-.3-.23-.44-.49,0,0-.36-.35-.36-1.38V12.15s0-.78.68-1.38c0,0,1.52-1.47,2.5-2.21,0,0,.26-.31.59-.31,0,0,.17-.06.52.33,0,0,1.48,1.81,2.48,3,0,0,.28.18.28.98"/>
  <path class="cls-1" d="M19.47,29.88c-.3,0-.45.53-.45.53,0,0-1.35,2.79-4.53,3.8,0,0-1.31.39-2.66.76-1.28.36-2.27.81-2.58,1.02,0,0-2.33,1.25-2.77,3.65,0,0-.49,2.82,1.57,4.09,0,0,.49.29.71-.08,0,0,.05-.21-.12-.4,0,0-.89-.91-.36-2.06,0,0,.57-1.28,2.09-1.31,0,0,.43-.03,1.55.1,0,0,2.17.33,4.06-.64,0,0,3.44-1.44,3.92-5.75,0,0,.2-2.03-.06-3.14-.07-.29-.14-.58-.38-.58"/>
  <path class="cls-1" d="M51.61,20.51s.22-.12.42-.08c0,0,.4.12.87.99,0,0,.28.31.26,1.16v11.4s-.06,1.99.65,2.87c0,0,2.46,2.9,3.67,3.94,0,0,.31.36.68.06,0,0,5.14-4.94,5.86-5.44,0,0,.36-.31.34.03v1.57s0,.89.56,1.6c0,0,1.74,2.07,1.96,2.21,0,0,.28.28.7,0,0,0,4.32-3.88,4.58-4.12.27-.25.09-.52.09-.52-.15-.19-.38-.07-.38-.07-.49.34-1,.11-1,.11-.32-.08-.68-.61-.68-.61-.41-.43-.32-.93-.32-.93v-13.46c0-.69.24-.8.24-.8.09-.09.52-.51.52-.51.18-.14.16-.25.16-.25,0-.1-.12-.21-.12-.21-.25-.22-3.16-3.58-3.16-3.58-.12-.14-.23-.17-.23-.17-.19.02-.25.12-.35.21-.33.28-3.94,3.59-3.94,3.59-.22.17-.12.44-.12.44.18.33.24.11.57.35.21.15.57.54.57.54.44.56.34,1.29.34,1.29v10.57c0,.85-.19,1.02-.19,1.02-.34.67-2.62,2.36-2.62,2.36-.3.23-.6-.09-.6-.09-.72-.62-1.82-2.08-1.82-2.08-.46-.63-.41-2.08-.41-2.08v-11.84c0-1.3-.88-2.17-.88-2.17-.7-.86-1.74-2.06-1.74-2.06-.22-.22-.36.03-.36.03-1.24,1.2-4.62,4.08-4.62,4.08,0,0-.33.28-.05.66.16.21.56.02.56.02"/>
  <path class="cls-1" d="M127.48,35.98c-.14-.19-.53-.13-.53-.13-.93.75-1.38.56-1.38.56-.32-.08-.68-.61-.68-.61-.41-.43-.32-.93-.32-.93l.02-5.75.02-20.47c0-1.3-.88-2.17-.88-2.17-.7-.86-1.74-2.06-1.74-2.06-.22-.23-.36.03-.36.03-1.25,1.2-4.7,4.14-4.7,4.14,0,0-.15.29,0,.56.15.28.5.08.5.08,0,0,.3-.16.5-.12,0,0,.4.13.86,1.01,0,0,.28.31.26,1.16v25.93s0,.9.56,1.6c0,0,1.74,2.07,1.96,2.21,0,0,.28.28.7,0,0,0,4.84-4.17,5.11-4.4.34-.3.1-.62.1-.62"/>
  <path class="cls-1" d="M119.34,57.87c-.18-1.19-1.06-4.16-5.16-5.59-.16-.07-2.49-1.1-7-1.1-3.19,0-7.47.52-12.87,2.25h0s-1.27.39-1.84.57c-1.29.4-3.56,1.13-5.85,1.9h-.02s-.02,0-.02,0c-1.93-1-2.88-1.51-4.48-2.41-3.52-1.96-7.79-3.66-7.97-8.43,0-.08,0-.16,0-.23,0-.02,0-.03,0-.03,0-3.78,3.3-5.3,3.99-5.58.92-.38,1.74-.42,2.08-.42.1,0,.16,0,.16,0h0c1.43.02,2.53.48,3.27.95.65.41,1.03.82,1.1.9h0l.02.02c.05.07.02.05.06.19.08.3.34.33.36.33h.02s0,0,0,0c0,0,.02,0,.02,0,.2-.02.38-.19.47-.28.03-.02.02-.03.05-.05.76-.82,4.28-3.77,4.29-3.77,1.09-.91,1.8-1.81,2.41-2.65.97-1.36,1.1-3.01,1.1-3.82,0-.23-.01-.39-.02-.45,0-.02,0-.02,0-.03-.42-3.98-3.98-5.82-3.98-5.82h-.02s-.06-.01-.09-.01c-.25,0-.37.17-.38.18-.14.15-3.85,3.32-4.09,3.53h-.01c-.06.06-.13.08-.18.08s-.09-.02-.11-.02c-.01,0-.02-.01-.03-.02h0c-2.51-.91-3.81-2.83-4.12-4.14-.13-.52-.17-.96-.17-1.31,0-.68.16-1.03.2-1.12h0s0,0,0-.02c.31-.83.97-1.18,1.01-1.21,0,0,0,0,0,0,.03-.02.06-.04.09-.04h.02s.06.02.09.03c0,0,.01.01.02.02h.02l.02.02c1.48,2.08,3.21,2.66,4.66,2.67h.01c1.74,0,3.04-.83,3.06-.84,2.79-1.63,4.06-4.17,4.07-4.19.62-.9.73-1.73.73-2.18,0-.24-.03-.39-.03-.4-.24-1.71-1.46-2.01-2.17-2.02h-.04c-.3,0-.51.05-.51.05-1.48.45-1.74,1.57-1.75,2.24,0,0,0,.02,0,.03,0,.32.05.53.05.54.38,1.31,1.4,1.52,1.96,1.52h.02c.21,0,.35-.02.35-.02.06-.02.09-.03.1-.04h.06s0,.06,0,.06h0s0,.05,0,.06c-.38.98-1.16,1.48-1.8,1.69-.37.12-.7.14-.86.14-.05,0-.08,0-.1,0h-.1c-1.96-.01-3.61-2.94-3.94-3.61-.03-.05-.04-.13-.05-.16v-.02h0c-.06-.16-.19-.27-.36-.27h-.01c-.29,0-.44.22-.45.24-.14.16-2.54,2.28-4.3,3.94-1,.93-1.86,1.79-1.96,1.9h0s-.02.02-.02.02c0,0-1.98,1.74-1.98,4.77,0,.32.02.65.07.99,0,0,.11,1.28,1.14,2.73.74,1.04,1.85,2.11,3.45,2.5.02,0,.09.02.19.02.12,0,.28-.02.38-.14,0,0,0-.01.01-.01h0s.01-.02.01-.02c0,0,.02-.01.03-.03.03-.02.06-.05.11-.09.09-.08.22-.2.37-.34.31-.28.73-.66,1.15-1.05.87-.77,1.78-1.59,2.01-1.75,0,0,.06-.06.06-.06.02-.01.08-.03.16-.03.07,0,.15.01.25.05.02,0,2.99.75,3.89,3.81,0,.03.17.57.17,1.31,0,.39-.05.84-.2,1.25-.15.39-.43.69-.8,1.03-.01,0-.1.1-.23.1h0c-.06,0-.12-.02-.19-.07-.02-.01-2.01-1.93-5.01-1.96h-.01s-.05,0-.12,0c-.8,0-5.06.17-8.11,3.65-1.23,1.41-2.03,3.3-2.28,5.45-.04.38-.06.74-.06,1.09h0c0,3.3,1.85,5.46,3.87,6.81,1.09.73,6.34,3.62,8.42,4.67l.13.07-.14.05c-.07.02-.14.04-.24.07-1.27.44-2.62.91-4.04,1.43h0s-.03.02-.06.02c-.05.02-.11.04-.21.08-.18.06-.45.16-.77.27-.12.04-.23.08-.36.12l-.03.02-.02-.02c-1.5-1.16-3.08-2.16-4.68-3.01-1.46-.78-2.94-1.44-4.38-2-1.6-.62-3.15-1.12-4.6-1.51-4.55-1.24-7.94-1.41-7.95-1.41-.84-.07-1.64-.1-2.38-.1-5.53,0-8.77,1.59-8.78,1.6-5.09,2.35-4.5,6.46-4.49,6.62.16,1.62,1.1,2.87,2.19,3.76,1.52,1.25,3.53,1.84,3.54,1.84,3.05,1.31,6.93,1.7,10.46,1.7,5.11,0,9.47-.82,9.48-.82,5.42-.93,11.04-2.85,13.18-3.62h.03s.02.01.02.01c.25.27.5.54.73.81,0,.01.86.85,1.71,2.24.86,1.39,1.72,3.32,1.75,5.5v.09h0v.02h0c0,4.26-3.4,6.02-4.88,6.12-.03,0-.15.02-.38.02-.89,0-3.13-.21-3.98-2.26-.19-.45-.26-.82-.26-1.13,0-.47.16-.78.32-.97.14-.17.28-.25.31-.27,0,0,.02-.01.02-.01h0c.09-.04.17-.06.24-.06,0,0,.01,0,.01,0,0,0,0,0,0,0,.12,0,.2.05.26.09.03.02.06.05.07.07h0l.02.02c.51.68,1.45.69,1.48.7.05,0,.11,0,.16,0t.02,0h0c1.52,0,2.58-1.22,2.61-2.85v-.05c0-1.55-1.27-2.77-2.78-2.8-.47,0-.6-.02-.59-.02-1.9.38-2.98,1.59-3.46,2.83-.32.83-.4,1.66-.4,2.25,0,.53.06.87.06.88.27,1.65,1.11,2.87,2.02,3.57,1.36,1.04,3,1.18,3.78,1.18.29,0,.46-.02.46-.02,5.53-.55,6.16-6.36,6.16-6.37.04-.34.05-.68.05-1,0-.01,0-.02,0-.02,0-2.75-1.11-5.02-2.09-6.49-.78-1.18-1.49-1.86-1.5-1.86-.2-.22-.4-.44-.61-.65l-.06-.07.09-.03c1.5-.56,4.26-1.67,6.54-2.58l.02-.02.02.02c1.01.52,11.28,6.62,19.78,6.62.41,0,.82-.01,1.23-.04.02,0,3.32-.16,5.82-1.47,1.95-1.01,3.33-2.61,3.57-4.49.02-.2.04-.39.04-.58,0-.01,0-.02,0-.02,0-.01,0-.2-.06-.53M76.74,58.91c-3.16,1.09-8.22,2.78-11.01,3.4h-.01s-1.52.38-3.77.77c-2.26.38-5.26.77-8.26.77,0,0,0,0-.02,0h0c-2.89,0-5.77-.36-7.93-1.42-.02,0-2.5-1.11-3.05-3.61-.07-.3-.11-.61-.11-.93,0-.02,0-.05,0-.07,0-.01,0-.02,0-.05,0-.06,0-.2.03-.4.15-1.15.63-3.29,5.38-5.03,1.37-.5,3.49-.81,6.19-.81.84,0,1.75.04,2.72.13.01,0,3.21.2,7.46,1.36.98.27,2.02.59,3.09.96,1.49.52,3.03,1.16,4.56,1.92,1.63.81,3.24,1.77,4.74,2.9l.09.07-.11.04ZM117.7,58.25c0,.37-.05.7-.13,1.03-.48,1.86-2.24,3.07-4.19,3.74h-.04c-2,.7-4.23.74-4.74.74h-.02c-.06,0-.09,0-.09,0-.19,0-.38,0-.56,0h-.1c-4.94,0-9.77-1.96-13.8-3.94-.27-.13-3.08-1.62-3.91-2.05l-.11-.06.12-.05c1.59-.64,2.89-1.11,2.89-1.11.67-.27,1.28-.51,1.87-.73.47-.18.92-.35,1.34-.5,3.7-1.36,5.6-1.75,5.6-1.75,2.32-.57,4.47-.76,6.22-.76,0,0,.01,0,0,0,.02,0,.03,0,.04,0,.73,0,1.38.03,1.95.09,2,.19,3.16.66,3.3.72h0s0,0,.01.01h0c4.08,1.36,4.3,4.21,4.32,4.58v.04h0Z"/>
  <path class="cls-1" d="M97.86,24.93s.09,5.07-.02,9.35c0,0-.03.24-.06.29-.1.16-.16.44.05.74,0,0,4.62,4.34,6.96,5.74,0,0,.28.41.82.03,0,0,4.94-3.56,6.84-5.38,0,0,1-1,1.62-1.86.98-1.36.92-2.63.92-2.63,0-1.29-1.02-2.27-2.28-2.27s-2.28.98-2.28,2.27c0,.85.35,1.56,1.1,1.94,0,0,.24.07.33.38,0,0,.18.69-.36,1.46-.72,1.03-2.2,1.86-2.2,1.86-.6.35-.92.01-.92.01-1.85-1.1-4.67-3.88-4.67-3.88-.29-.27-.26-.7-.26-.7v-1.17c.03-.27.26-.33.26-.33,1.03-.79,3.76-2.87,3.76-2.87,1.85-1.37,6.1-4.92,6.1-4.92.13-.12.23-.36.08-.52-.11-.12-.06-.13-.26-.2-.19-.06-.29-.25-.29-.25-.19-.19-.84-1.06-.84-1.06-1.84-2.31-4.58-5.13-4.58-5.13-.43-.27-.58,0-.58,0-.36.22-1.51,1.1-1.51,1.1-.93.69-3.4,2.71-5.29,4.41-1.4,1.25-2.5,2.22-2.5,2.22-.37.33-.2.64-.05.79.14.15.11.58.11.58M102.91,19.63c.23-.12.36.05.59.26,0,0,2.69,2.72,4.19,4.97.29.43.04.77.04.77-.55.82-4.65,3.74-4.65,3.74-.33.25-.38-.17-.38-.17v-8.98s-.06-.44.22-.58"/>
</svg>