<?xml version="1.0" encoding="UTF-8"?>
<svg id="Capa_1" data-name="Capa 1" xmlns="http://www.w3.org/2000/svg" viewBox="0 0 166 80">
  <defs>
    <style>
      .cls-1 {
        fill: #f8af00;
      }

      .cls-2 {
        fill: #0072b5;
      }

      .cls-3 {
        fill: #13a438;
      }

      .cls-4 {
        fill: #e3032e;
      }
    </style>
  </defs>
  <path class="cls-1" d="M29.62,34.46v20.09c0,.34.05.66.18.98.13.31.3.59.53.82.22.23.48.42.79.57.3.14.63.22.99.22h12.43v-4.41h-9.9v-4.2h5.22c.61,0,1.14-.21,1.59-.61.45-.41.68-.93.68-1.56s-.21-1.1-.62-1.48c-.24-.21-.49-.38-.77-.5-.28-.13-.6-.19-.93-.19h-5.16v-5.32h3.3c.61,0,1.13-.22,1.56-.65.43-.43.64-.95.64-1.56s-.21-1.13-.63-1.56c-.42-.43-.93-.65-1.54-.65,0,0-8.27.02-8.34.02"/>
  <path class="cls-3" d="M56.04,23.63c-.44.39-.77.88-.97,1.46l-5.36,17.46-4.29-12.67h-5.4l5.89,17.24c.31.92.78,1.71,1.39,2.32.62.63,1.43.96,2.37.96,1,0,1.83-.31,2.45-.9.62-.57,1.09-1.38,1.42-2.38l6.56-19.95c.16-.45.24-.84.24-1.22s-.07-.78-.22-1.13c-.14-.36-.35-.67-.62-.93-.26-.26-.56-.47-.89-.61-.33-.15-.68-.22-1.04-.22-.6,0-1.1.19-1.56.57"/>
  <path class="cls-2" d="M60.3,50.33c0,.33.05.66.18.97.12.31.29.58.51.82.22.23.48.41.77.56.3.15.62.22.97.22h10.66v-4.38h-8.19v-5.12h5.08c.6,0,1.11-.2,1.56-.61.44-.4.66-.92.66-1.55s-.21-1.1-.62-1.47c-.23-.21-.48-.38-.75-.49-.27-.13-.58-.19-.91-.19h-5.02v-4.72h5.64c.6,0,1.1-.22,1.53-.64.43-.43.63-.94.63-1.55s-.21-1.12-.62-1.55c-.41-.42-.91-.64-1.5-.64h-7.67c-.7,0-1.34,0-1.93-.02-.59,0-.91-.02-.97-.02v20.38"/>
  <path class="cls-4" d="M24.04,22.88c-.41,0-.79.09-1.12.25-.35.17-.67.4-.94.69-.27.29-.49.61-.63.98-.15.36-.2.75-.19,1.16v12.66l-9.64-13.22c-.25-.4-.6-.73-1.03-1-.43-.26-.9-.39-1.43-.39-.43,0-.82.09-1.18.26-.36.17-.68.4-.93.68-.26.29-.47.62-.62.99-.15.36-.17.75-.17,1.17v21.74l5.97-.03v-13.52l9.77,13.51c.23.34.53.6.96.79.43.2.9.31,1.37.3.87,0,1.58-.29,2.15-.88.57-.57.8-1.27.8-2.1v-21.03c0-.39-.14-.76-.29-1.13-.17-.38-.39-.71-.66-.98-.27-.27-.6-.5-.98-.66-.36-.17-.75-.25-1.16-.25"/>
  <path class="cls-4" d="M146.05,29.95h2.7c.94,0,1.8.18,2.55.54.75.36,1.4.86,1.94,1.49.53.63.94,1.38,1.22,2.23.29.85.43,1.76.43,2.72s-.14,1.91-.4,2.77c-.26.85-.66,1.62-1.17,2.26-.52.65-1.15,1.16-1.89,1.54-.73.38-1.61.57-2.6.57h-2.79v-14.12M141.17,25.57v20.3c0,.75.26,1.38.77,1.89.5.5,1.12.75,1.84.75h5.59c1.59,0,3.05-.31,4.34-.9,1.29-.59,2.4-1.42,3.3-2.45.91-1.03,1.62-2.28,2.11-3.68.49-1.4.74-2.94.74-4.56l-.05-1.25c-.03-.42-.08-.84-.16-1.26-.28-1.4-.75-2.66-1.38-3.74-.63-1.09-1.43-2.02-2.36-2.77-.94-.75-2.01-1.33-3.19-1.72-1.2-.4-2.5-.6-3.83-.6h-7.71"/>
  <path class="cls-1" d="M94.81,33.35c-.53.56-.78,1.21-.78,1.98v18.99c0,.98.02,2.91,2.65,2.8l11.61-.04v-4.12h-9v-17.64c0-.76-.25-1.42-.76-1.98-.51-.56-1.12-.84-1.86-.84s-1.35.28-1.86.84Z"/>
  <path class="cls-4" d="M80.58,28.47h3.51c.37,0,.72.08,1.06.23.33.16.62.38.85.65.24.27.43.58.58.93.14.35.22.73.22,1.14,0,.77-.25,1.44-.76,1.99-.51.56-1.11.84-1.82.84h-3.63v-5.78M75.62,23.62l.03,22.16c0,.37.06.71.2,1.03.14.33.31.63.53.89.22.26.48.46.78.61.3.15.62.22.98.22.66,0,1.24-.27,1.73-.8.48-.54.73-1.17.73-1.89v-7.72l8.05,11.7,4.04-2.99-6.49-8.98c.12-.02.24-.04.35-.06.12-.03.24-.05.35-.1.69-.21,1.32-.48,1.91-.84.59-.35,1.1-.78,1.54-1.31.43-.52.78-1.12,1.02-1.8.25-.68.37-1.46.37-2.35,0-1.2-.19-2.24-.59-3.14-.4-.9-.93-1.65-1.62-2.26-.69-.61-1.49-1.25-2.4-1.62-.91-.38-1.82-.59-2.91-.69-.18-.02-.53-.04-.96-.05h-7.65"/>
  <path class="cls-2" d="M132.41,23.15c-.64.15-1.14.47-1.51.96-.32.43-.47.92-.47,1.5,0,.09,0,.18,0,.27l.06.49c.9,4.63,2.11,10.5,2.11,10.5l-10.27-9.9c-.26-.26-.62-.45-1.06-.59-.43-.13-.82-.15-1.14-.08-.66.15-1.16.47-1.51.98-.35.5-.51,1.1-.45,1.81l.05.43,3.35,17.32c.16.84.51,1.44,1.06,1.82.55.39,1.17.49,1.87.34.64-.14,1.14-.46,1.51-.96.36-.48.52-1.08.46-1.77l-.06-.49c-.9-4.58-2.13-10.58-2.13-10.58l10.25,9.75c.28.26.64.46,1.09.59.44.13.8.16,1.12.08.65-.14,1.16-.46,1.51-.97.35-.5.51-1.1.45-1.81l-.06-.44-3.32-17.1c-.16-.84-.51-1.44-1.06-1.82-.4-.27-.82-.4-1.29-.4-.19,0-.38.02-.58.06"/>
  <path class="cls-3" d="M110.75,34.68l2.88,9.97h-5.87l2.99-9.97ZM108.52,29.87c-.58.57-1,1.31-1.3,2.19l-6.42,18.79h5.06l.6-1.99h8.44l1.5,5.43,4.72-1.38-6.83-20.85c-.32-.95-.76-1.71-1.34-2.24-.58-.55-1.33-.82-2.25-.82-.87,0-1.59.29-2.17.87Z"/>
</svg>