<?xml version="1.0" encoding="UTF-8"?>
<svg id="Capa_1" data-name="Capa 1" xmlns="http://www.w3.org/2000/svg" viewBox="0 0 164 80">
  <defs>
    <style>
      .cls-1 {
        fill: #c60000;
      }
    </style>
  </defs>
  <path class="cls-1" d="M24.51,42.83c.96.09,2.84.53,3.62,1.1.21.16.82.91.94.92,2.6-1.91,5.03-4.64,6.06-7.76,4.09-12.28-8.91-18.96-18.86-13.37-2.65,1.49-6.47,5.36-4.77,8.67.79,1.54,2.03,1.18,3.42,1.45.36,4.35-5.69,7.04-8.84,4.05-2.19-2.08-1.54-5.73-.29-8.13,6.22-11.97,30.55-16.11,35.37-1.72,3.48,10.4-7.42,18.45-15.71,21.88-1.75.72-3.59,1.18-5.35,1.88-.31.52.12,4.84.26,5.73.26,1.68,1.2,6.33,3.36,6.41.56.02,1.92-.59,1.58.78-.35,1.41-2.35,3.4-3.6,4.12-6.88,3.97-7.5-5.41-7.66-9.86-.07-2.08.04-4.16.16-6.23h-3.54c-.8,0-2.73-.64-3.38-1.18-2.26-1.86.55-4.22,2.16-5.25,1.9-1.21,4.03-1.87,6.14-2.59.54-2.02,1.2-4.01,2.01-5.94.48-1.17,1.5-3.74,2.43-4.49.59-.48,3.46-1.68,3.62-.46.06.46-1.03,2.61-1.27,3.29-.26.75-.51,1.67-.7,2.44-.23.92-.79,3.08-.8,3.93,0,.19.02.21.17.32,1.12.07,2.35-.1,3.46,0ZM27.09,45.68c-2.03-.9-4.4-.72-6.56-.47l-.34,3.6c2.47-.36,4.73-1.54,6.9-2.69v-.44ZM15,46.29c-1.17-.15-5.8,2.2-2.84,3.08,3.02.9,2.31-.87,2.84-3.08Z"/>
  <path class="cls-1" d="M75.63,32.81c1.85,1.81,1.4,5.33,1.16,7.66,1.81-1.99,4.51-5.11,7.53-3.52,2.02,1.06,1.78,4.44,1.59,6.36.23.26,1.19-1.52,1.35-1.72.94-1.2,2.27-2.52,3.92-2.38,4.01.34,4.34,7.02,5.19,9.92.43,1.46.92,2.31,2.45,2.74l.15.48c-2.13,2.7-5.35,1.01-6.8-1.54-.94-1.65-2.41-7.76-4.98-4.41-1.46,1.91-1.02,3.57-1.47,5.61-.33,1.48-5.3,2.66-5.33-.12-.01-1.37.76-3.69.94-5.22.2-1.71.6-5.8-2.36-4.1-2.31,1.33-4.29,7.71-4.52,10.27-.22,2.5.67,4.03-2.68,4.55-4.18.65-2.78-3.78-2.17-6.26.82-3.32,3.06-8.54,2.62-11.84-.34-2.56-3.13-1.24-4.39-.17-2.24,1.89-3.61,5.19-4.29,7.98-.15.61-.37,3.09-.84,3.25-1.25.43-2.27-1.12-2.27-2.26,0-4.11,3.57-10.53,6.53-13.31,2.01-1.88,6.25-4.36,8.67-1.99Z"/>
  <path class="cls-1" d="M52.44,39.97c-.06-3.02-2.65-2.76-4.57-1.3-2.92,2.22-4.25,6.65-3.92,10.2.24,2.65,1.55,4.66,4.37,3,1.78-1.05,3.22-4.2,3.78-6.13.33-1.13.57-3.7,1.26-4.52.56-.66,2.83-1.14,3.69-.77.31.22-.37,3.84-.38,4.5-.04,3.93,1.76,9.34,4.69,12.03.42.38,2.17,1.51,2.31,1.74,1.09,1.78-3.4,1.37-4.2,1.21-4.28-.85-6.22-4.26-6.89-8.3-.29-.07-.3.1-.44.26-.95,1.11-1.6,2.51-2.75,3.62-3.2,3.07-8.1,3.63-10.25-.88-3.79-7.93,5.8-21.77,14.47-20.94,3.12.3,3.46,3.36,1.34,5.27-.35.31-2.15,1.58-2.5,1Z"/>
  <path class="cls-1" d="M126.74,11.24c.44.46.74,1.1.67,1.74-.1.98-1.03,3.16-1.33,4.34-2.42,9.73-3.49,22.02-1.29,31.84.32,1.45,1.39,7.22,3.74,5.4.61-.47,1.07-2.28,1.86-1.09,1.17,1.79-.16,5.8-1.97,6.96-3.06,1.96-4.9-2.52-5.79-4.7-4.54-11.18-4.96-27.55-3.36-39.41.16-1.22.37-3.72,1.01-4.66,1.21-1.78,5.01-1.93,6.46-.43Z"/>
  <path class="cls-1" d="M145.83,41.08c-.47-3.56-3.43-2.52-5.2-.53-2.35,2.64-3.47,7.31-2.54,10.72.62,2.29,2.32,2.85,4.19,1.32,1.5-1.23,2.71-3.75,3.21-5.6.37-1.36.44-4.13,1.5-4.95.48-.37,2.24-.92,2.79-.76,1.01.28.3,1.99.27,2.72-.12,2.71,0,5.61.99,8.15,1.11,2.84,3.15,4.99,6.24,3.02.42-.27,1.59-1.69,1.95-.82.66,1.56-1.66,4.14-2.93,4.87-4.35,2.51-8.16-.44-9.61-4.6-.14-.41-.44-2.11-.64-2.2l-2.74,3.86c-7.06,6.83-12.19-.1-10.46-7.96,1.23-5.61,7.64-14.43,14.14-13.52,3.93.55,2.25,6.29-1.15,6.26Z"/>
  <path class="cls-1" d="M112.41,43.55c-.53.57-1.51,1.41-2.14,1.87-1.09.78-2.41,1.28-3.43,2.09-.15.57,1.34,2.04,1.82,2.38,2.3,1.63,5.06.91,6.72-1.24.37-.49,1.09-2.14,1.35-2.28.64-.35.99.69,1.06,1.15.89,5.73-5.04,9.34-10.14,7.64-8.03-2.67-8.48-13.96-3.65-19.8,7.3-8.83,15.69.33,8.42,8.19ZM108.04,35.78c-1.55.4-2.52,3.67-2.63,5.08-.05.63.02,4.33.56,4.48,2.77-1.06,4.85-4.52,4.46-7.46-.17-1.28-.91-2.48-2.39-2.1Z"/>
</svg>