<?xml version="1.0" encoding="UTF-8"?>
<svg id="Capa_1" data-name="Capa 1" xmlns="http://www.w3.org/2000/svg" viewBox="0 0 162 80">
  <defs>
    <style>
      .cls-1, .cls-2 {
        fill: #c5ac8d;
      }

      .cls-2 {
        fill-rule: evenodd;
      }
    </style>
  </defs>
  <g>
    <path class="cls-2" d="M88.84,31.79s.09-.17.14-.24l.27-.35c.26-.29.3-.33.57-.56,1.65-1.43,4.65-1.11,5.46-.54-8.72.19-6.23,4.78-10.61,8.19l.15.12c.74-.12,3.74-1.59,6.5.18.86.55,1.49,1.04,2.02,1.93.66,1.14.39,2.18-.61,2.68-.74-.13-.86-.49-1.23-1.01,0,1.65,1.33,2.11,2.88,1.53,1.24-.47,1.64-1.45,2.06-2.83,6.08-.93,7.61-2.65,8.28-9.08.07-.69.2-1.83.49-2.35.61-1.1,2.8-.66,1.32,1.7.74-.53,1.82-1.99,1.96-3.3.39-3.68-3.9-6.84-9.12-6.93-5.21-.08-7.89,2.58-9.41,6.69l-1.1,4.18Z"/>
    <path class="cls-2" d="M73.89,44.39c-.29-1.9-1.08-2.85-2.06-3.99-2.01-2.33-2.33-1.44-3.35-2.65-1.22-1.45-.3-2.59-3.38-2.71-2.07-.08-3.3.44-3.35,2.62-.03,1.41.68,1.45,1.08,2.12.34.57-.08,1.59-.02,2.42.3,4.31,4.93,4.14,5.58,6.54.22.83-.67,4.09,1.44,4.48-1.29-.81-.52-3.19,2.85-3.6,2.35-.28,3.51,1.37,5.84,1.75,2.07.34,4.68-.01,6.35-.89,2.39-1.26,1.88-2.62,3.26-2.46.76.09.58.48.96,1.02,1.88-1.17.6-4.01-.45-5.25-1.17-1.38-2.23-2.34-4.01-3.41-2.01-1.2-3.29-1.48-5.91-1.08-2.37.36-3.8,1.23-4.9,2.48.33.97.75,1.59.07,2.61"/>
    <path class="cls-2" d="M57.25,26.42c-.6.8-2.45,1.21-2.03,3.93.14.92.6,1.45,1.13,1.85l1.82,1.44c-.25-2.81.38-4.42,3.5-4.1,3.12.32,3.59,2.44,4.47,3.66.42-3.52-2.76-4.22-2.21-6.18.26-.92.89-.89,1.44-1.52-2.5-4.93-.92-13.06,1.86-14.91,2.05-1.37,2.88-.85,5.24-.54-1.27-4.08-11.47-6.16-15.35.38-.71,1.2-1.21,2.68-1.53,4.31-.23,1.15-1.24,2.66-1.67,4.17-.44,1.55-.65,3.38-.13,4.96.26.78.76,1.43,1.18,1.82.71.65,1.27.51,2.26.74"/>
    <path class="cls-2" d="M91.73,18.31c.63-.25.76-.5,1.5-.69.57-.15,1.23-.22,1.82-.11,1.15.23,1.62,1.2,1.8,2.49,2.61-1.63,6.63.08,5.58-4.04-.59-2.32-3.44-3.04-3.83-3.58-.58-.79-1.67-4.54-5.19-7.12-5.22-3.82-9.15.38-10.82.95-1.34.46-2.91.06-4.13.76-1.7.97-1.06,3.02-.45,3.3.53.25,2.86-.91,3.73-1.13,6.22-1.57,10.55,3.07,10,9.18"/>
    <path class="cls-2" d="M73.54,40.88c.28-.36,2.34-1.83,3.15-2.2,1.31-.61,2.86-1.03,4.51-1.02.62,0,1.86.31,2.26.18,1.51-.53,2.85-3.1,3.38-4.96.86-3.02,1.46-5.62,2.89-8.16.6-1.06,1.65-2.35,2.51-3.01,1.19-.93,2.2-1.15,3.93-1.55-.75-1.65-2.42-1.92-3.93-.51-.73.68-2.24,2.7-2.83,3.64-1.75,2.76-4.03,4.17-7.03,5.76-2.51,1.34-6.66,2.6-8.64,4.14-3.47,2.71-3.54,6.17-.19,7.7"/>
    <path class="cls-2" d="M77.24,27.28c.22.63.42.35,0,.85-.91-.04-.18-.37-1.42-.71-1.46-.4-4.14.15-6.17-.46-1.31-.4-2.15-.89-3.69-.3-1.36.52-1.51,1.68-.21,2.45.08-.13-.02-.46.16-.8,2.95.13.98,4.28,2.3,7.05.42.89.74,1.47,1.59,1.71.46-2.06,1.71-3.82,2.92-4.76,1.11-.87,3.74-1.82,5.27-2.46,2.99-1.26,8.97-4,8.42-7.23-.44-.5-.83-.67-1.81-.81-.22,1.96-1.06,3.07-2.53,3.75-1.28.59-3.41,1.43-4.81,1.72"/>
    <path class="cls-2" d="M78.71,12.09c.74.45,2.01.07,3.95,1.55.85.65,1.58,2.12,1.81,3.71.25,1.65.53,3.23,1.51,4.01,1.44,1.15,2.42.64,1.27,2.99,1.17-.65,2.2-3.28,2.57-5.23.47-2.5.28-4.64-.75-6.68-.53-1.04-.87-1.47-1.93-2.02-3.22-1.68-6.26-.61-8.42,1.67"/>
    <path class="cls-2" d="M66.59,25.47c.33-.36.17-.04.3-.6.12-.52-.24-1.75.87-4.61,1.61-4.14,4.95-8.44,10.29-8.52-.74-2.39-4.69-.85-5.7-.81-1.26.04-1.97-.72-3.47-.11-3.28,1.32-4.03,8.4-3.36,11.75.26,1.34.75,1.97,1.08,2.91"/>
    <path class="cls-2" d="M71.53,16.91c2.41.83,3.29-.14,5.11-1.04-.04-.67-.08-1.24.14-1.74.6.18.06-.18.54.58,1.09,1.71,3.81,2.18,5.74,2.21,0-1.75-2.77-4.46-5.62-4.31-2.43.13-5.4,2.73-5.91,4.31"/>
    <path class="cls-2" d="M77.1,16.56c-1.56.45-2.62,1.63-3.34,2.92-.99,1.77.01,3.55,1.68,3.9,2.03.43,5.24-3.25,3.13-5.04-.28-.24-.68-.42-.93-.64-.63-.56-.26-.54-.54-1.14"/>
    <path class="cls-2" d="M78.64,25.41c-7.91-.04-6.69-6.2-4.95-7.39-3.07.03-6.13,4.04-4.24,5.98,1.69,1.74,6.37,2.46,9.19,1.41"/>
    <path class="cls-2" d="M76.3,24.55c1.96.46,6.39.47,6.63-1.43.19-1.54-.87-5.13-3.03-5.7.67,2.02.89,2.78-.33,4.54-1.09,1.57-2.39,1.81-3.27,2.59"/>
  </g>
  <g>
    <path class="cls-1" d="M55.76,59.74c0-3.51-3.34-4.85-5.18-4.85-.84,0-1.84.17-2.51.33v8.86c.66.17,1.67.33,2.51.33,1.84,0,5.18-1.34,5.18-4.68M50.42,65.59h-2.34v10.2h-3.01v-18.06c0-2.01-.33-3.34-2.34-3.34h-.67v-.67h8.7c2.84,0,8.36.67,8.36,6.02,0,3.85-3.01,5.18-5.35,5.68l3.51,5.85c1.7,2.84,2.84,3.68,4.51,3.84v.67c-.33.17-1.17.34-2.01.34-2.34,0-3.84-1.17-6.02-4.85l-3.34-5.68Z"/>
    <path class="cls-1" d="M70.53,58.06c-3.6,0-5.82,3.32-5.82,8.58s2.21,8.59,5.82,8.59,5.81-3.33,5.81-8.59-2.22-8.58-5.81-8.58M70.53,56.95c5.26,0,8.58,4.27,8.58,9.7s-3.32,9.69-8.58,9.69-8.58-4.26-8.58-9.69,3.32-9.7,8.58-9.7"/>
    <path class="cls-1" d="M106.29,57.51c1.94,0,2.36,1.11,2.36,2.22v2.08h-.56c0-2.21-1.25-3.18-3.46-3.18h-5.15v7.2h7.48v1.11h-7.48v7.75h4.85c2.49,0,3.87-.83,4.71-3.05l.55.14-.97,2.63c-.3.83-.96,1.39-2.08,1.39h-9.55v-14.96c0-1.66-.28-2.77-1.94-2.77h-.55v-.56h11.79Z"/>
    <path class="cls-1" d="M115.67,74.68h9.83v1.11h-12.33v-14.96c0-1.66-.28-2.77-1.94-2.77h-.56v-.56h2.49c1.94,0,2.49.56,2.49,3.32v13.85Z"/>
    <path class="cls-1" d="M130.48,74.68h9.83v1.11h-12.32v-14.96c0-1.66-.28-2.77-1.94-2.77h-.55v-.56h2.49c1.94,0,2.49.56,2.49,3.32v13.85Z"/>
    <path class="cls-1" d="M144.46,69.41h6.79l-3.32-8.03-3.47,8.03ZM158.31,75.79c-.28.08-.69.14-1.11.14-1.25,0-3.49-.42-4.71-3.6l-.69-1.8h-7.75l-2.22,5.26h-1.25l7.76-18.28h.83l6.1,14.82c.86,2.08,1.52,2.77,3.05,2.91v.55Z"/>
    <path class="cls-1" d="M8.67,74.68h9.83v1.11H6.19v-14.96c0-1.66-.28-2.77-1.94-2.77h-.55v-.56h2.5c1.93,0,2.48.56,2.48,3.32v13.85Z"/>
    <path class="cls-1" d="M22.66,69.41h6.78l-3.33-8.03-3.46,8.03ZM36.5,75.79c-.28.08-.69.14-1.11.14-1.25,0-3.49-.42-4.71-3.6l-.69-1.8h-7.75l-2.22,5.26h-1.25l7.76-18.28h.83l6.09,14.82c.86,2.08,1.52,2.77,3.05,2.91v.55Z"/>
    <path class="cls-1" d="M89.82,66.56l-3.41-2.02c-2.02-1.19-3.08-2.02-3.08-3.63,0-1.72,1.58-2.8,3.21-2.8,3.1,0,4.87,1.47,5.48,5.18h.5v-2.96c0-2.08-3.24-3.32-5.98-3.32-3.24,0-5.37,1.85-5.37,4.71,0,2.05.89,3.38,3.24,4.77l3.4,2.02c.79.46,1.37.9,1.85,1.36,1.73,1.45,2.6,3.36,2.03,5.01,1.01-.89,1.56-2.18,1.56-3.74,0-2.05-1.08-3.18-3.43-4.57"/>
  </g>
</svg>