<?xml version="1.0" encoding="UTF-8"?>
<svg id="Capa_1" data-name="Capa 1" xmlns="http://www.w3.org/2000/svg" xmlns:xlink="http://www.w3.org/1999/xlink" viewBox="0 0 176 80">
  <defs>
    <style>
      .cls-1 {
        fill: none;
      }

      .cls-2 {
        clip-path: url(#clippath-17);
      }

      .cls-3 {
        clip-path: url(#clippath-19);
      }

      .cls-4 {
        clip-path: url(#clippath-11);
      }

      .cls-5 {
        clip-path: url(#clippath-16);
      }

      .cls-6 {
        clip-path: url(#clippath-18);
      }

      .cls-7 {
        clip-path: url(#clippath-10);
      }

      .cls-8 {
        clip-path: url(#clippath-15);
      }

      .cls-9 {
        clip-path: url(#clippath-13);
      }

      .cls-10 {
        clip-path: url(#clippath-14);
      }

      .cls-11 {
        clip-path: url(#clippath-12);
      }

      .cls-12 {
        clip-path: url(#clippath-61);
      }

      .cls-13 {
        clip-path: url(#clippath-67);
      }

      .cls-14 {
        clip-path: url(#clippath-68);
      }

      .cls-15 {
        clip-path: url(#clippath-60);
      }

      .cls-16 {
        clip-path: url(#clippath-65);
      }

      .cls-17 {
        clip-path: url(#clippath-62);
      }

      .cls-18 {
        clip-path: url(#clippath-64);
      }

      .cls-19 {
        clip-path: url(#clippath-66);
      }

      .cls-20 {
        clip-path: url(#clippath-63);
      }

      .cls-21 {
        clip-path: url(#clippath-76);
      }

      .cls-22 {
        clip-path: url(#clippath-78);
      }

      .cls-23 {
        clip-path: url(#clippath-75);
      }

      .cls-24 {
        clip-path: url(#clippath-79);
      }

      .cls-25 {
        clip-path: url(#clippath-50);
      }

      .cls-26 {
        clip-path: url(#clippath-55);
      }

      .cls-27 {
        clip-path: url(#clippath-52);
      }

      .cls-28 {
        clip-path: url(#clippath-57);
      }

      .cls-29 {
        clip-path: url(#clippath-54);
      }

      .cls-30 {
        clip-path: url(#clippath-56);
      }

      .cls-31 {
        clip-path: url(#clippath-53);
      }

      .cls-32 {
        clip-path: url(#clippath-70);
      }

      .cls-33 {
        clip-path: url(#clippath-77);
      }

      .cls-34 {
        clip-path: url(#clippath-74);
      }

      .cls-35 {
        clip-path: url(#clippath-71);
      }

      .cls-36 {
        clip-path: url(#clippath-73);
      }

      .cls-37 {
        clip-path: url(#clippath-72);
      }

      .cls-38 {
        clip-path: url(#clippath-51);
      }

      .cls-39 {
        clip-path: url(#clippath-58);
      }

      .cls-40 {
        clip-path: url(#clippath-59);
      }

      .cls-41 {
        clip-path: url(#clippath-31);
      }

      .cls-42 {
        clip-path: url(#clippath-32);
      }

      .cls-43 {
        clip-path: url(#clippath-33);
      }

      .cls-44 {
        clip-path: url(#clippath-34);
      }

      .cls-45 {
        clip-path: url(#clippath-35);
      }

      .cls-46 {
        clip-path: url(#clippath-39);
      }

      .cls-47 {
        clip-path: url(#clippath-30);
      }

      .cls-48 {
        clip-path: url(#clippath-36);
      }

      .cls-49 {
        clip-path: url(#clippath-37);
      }

      .cls-50 {
        clip-path: url(#clippath-38);
      }

      .cls-51 {
        clip-path: url(#clippath-27);
      }

      .cls-52 {
        clip-path: url(#clippath-29);
      }

      .cls-53 {
        clip-path: url(#clippath-26);
      }

      .cls-54 {
        clip-path: url(#clippath-28);
      }

      .cls-55 {
        clip-path: url(#clippath-20);
      }

      .cls-56 {
        clip-path: url(#clippath-21);
      }

      .cls-57 {
        clip-path: url(#clippath-22);
      }

      .cls-58 {
        clip-path: url(#clippath-23);
      }

      .cls-59 {
        clip-path: url(#clippath-24);
      }

      .cls-60 {
        clip-path: url(#clippath-25);
      }

      .cls-61 {
        clip-path: url(#clippath-69);
      }

      .cls-62 {
        clip-path: url(#clippath-41);
      }

      .cls-63 {
        clip-path: url(#clippath-42);
      }

      .cls-64 {
        clip-path: url(#clippath-43);
      }

      .cls-65 {
        clip-path: url(#clippath-44);
      }

      .cls-66 {
        clip-path: url(#clippath-45);
      }

      .cls-67 {
        clip-path: url(#clippath-49);
      }

      .cls-68 {
        clip-path: url(#clippath-40);
      }

      .cls-69 {
        clip-path: url(#clippath-46);
      }

      .cls-70 {
        clip-path: url(#clippath-47);
      }

      .cls-71 {
        clip-path: url(#clippath-48);
      }

      .cls-72 {
        clip-path: url(#clippath-90);
      }

      .cls-73 {
        clip-path: url(#clippath-95);
      }

      .cls-74 {
        clip-path: url(#clippath-93);
      }

      .cls-75 {
        clip-path: url(#clippath-99);
      }

      .cls-76 {
        clip-path: url(#clippath-94);
      }

      .cls-77 {
        clip-path: url(#clippath-96);
      }

      .cls-78 {
        clip-path: url(#clippath-85);
      }

      .cls-79 {
        clip-path: url(#clippath-86);
      }

      .cls-80 {
        clip-path: url(#clippath-87);
      }

      .cls-81 {
        clip-path: url(#clippath-80);
      }

      .cls-82 {
        clip-path: url(#clippath-89);
      }

      .cls-83 {
        clip-path: url(#clippath-81);
      }

      .cls-84 {
        clip-path: url(#clippath-82);
      }

      .cls-85 {
        clip-path: url(#clippath-83);
      }

      .cls-86 {
        clip-path: url(#clippath-84);
      }

      .cls-87 {
        clip-path: url(#clippath-88);
      }

      .cls-88 {
        clip-path: url(#clippath-92);
      }

      .cls-89 {
        clip-path: url(#clippath-97);
      }

      .cls-90 {
        clip-path: url(#clippath-91);
      }

      .cls-91 {
        clip-path: url(#clippath-98);
      }

      .cls-92 {
        clip-path: url(#clippath-1);
      }

      .cls-93 {
        clip-path: url(#clippath-3);
      }

      .cls-94 {
        clip-path: url(#clippath-4);
      }

      .cls-95 {
        clip-path: url(#clippath-2);
      }

      .cls-96 {
        clip-path: url(#clippath-7);
      }

      .cls-97 {
        clip-path: url(#clippath-6);
      }

      .cls-98 {
        clip-path: url(#clippath-9);
      }

      .cls-99 {
        clip-path: url(#clippath-8);
      }

      .cls-100 {
        clip-path: url(#clippath-5);
      }

      .cls-101 {
        clip-path: url(#clippath-102);
      }

      .cls-102 {
        clip-path: url(#clippath-101);
      }

      .cls-103 {
        clip-path: url(#clippath-104);
      }

      .cls-104 {
        clip-path: url(#clippath-109);
      }

      .cls-105 {
        clip-path: url(#clippath-106);
      }

      .cls-106 {
        clip-path: url(#clippath-103);
      }

      .cls-107 {
        clip-path: url(#clippath-105);
      }

      .cls-108 {
        clip-path: url(#clippath-100);
      }

      .cls-109 {
        clip-path: url(#clippath-108);
      }

      .cls-110 {
        clip-path: url(#clippath-107);
      }

      .cls-111 {
        clip-path: url(#clippath-118);
      }

      .cls-112 {
        clip-path: url(#clippath-114);
      }

      .cls-113 {
        clip-path: url(#clippath-119);
      }

      .cls-114 {
        clip-path: url(#clippath-111);
      }

      .cls-115 {
        clip-path: url(#clippath-110);
      }

      .cls-116 {
        clip-path: url(#clippath-113);
      }

      .cls-117 {
        clip-path: url(#clippath-112);
      }

      .cls-118 {
        clip-path: url(#clippath-117);
      }

      .cls-119 {
        clip-path: url(#clippath-115);
      }

      .cls-120 {
        clip-path: url(#clippath-116);
      }

      .cls-121 {
        clip-path: url(#clippath-140);
      }

      .cls-122 {
        clip-path: url(#clippath-120);
      }

      .cls-123 {
        clip-path: url(#clippath-125);
      }

      .cls-124 {
        clip-path: url(#clippath-122);
      }

      .cls-125 {
        clip-path: url(#clippath-121);
      }

      .cls-126 {
        clip-path: url(#clippath-123);
      }

      .cls-127 {
        clip-path: url(#clippath-124);
      }

      .cls-128 {
        clip-path: url(#clippath-129);
      }

      .cls-129 {
        clip-path: url(#clippath-126);
      }

      .cls-130 {
        clip-path: url(#clippath-128);
      }

      .cls-131 {
        clip-path: url(#clippath-127);
      }

      .cls-132 {
        clip-path: url(#clippath-130);
      }

      .cls-133 {
        clip-path: url(#clippath-132);
      }

      .cls-134 {
        clip-path: url(#clippath-131);
      }

      .cls-135 {
        clip-path: url(#clippath-134);
      }

      .cls-136 {
        clip-path: url(#clippath-133);
      }

      .cls-137 {
        clip-path: url(#clippath-136);
      }

      .cls-138 {
        clip-path: url(#clippath-139);
      }

      .cls-139 {
        clip-path: url(#clippath-137);
      }

      .cls-140 {
        clip-path: url(#clippath-138);
      }

      .cls-141 {
        clip-path: url(#clippath-135);
      }

      .cls-142 {
        fill: #00702d;
      }

      .cls-143 {
        clip-path: url(#clippath);
      }
    </style>
    <clipPath id="clippath">
      <rect class="cls-1" x="19.35" y="20.8" width="24.96" height="24.96"/>
    </clipPath>
    <clipPath id="clippath-1">
      <path class="cls-1" d="M44.25,20.82h-23.08c-.99,0-1.8.8-1.8,1.8v2.72c0,.99.8,1.8,1.8,1.8h8.45c2.1,0,2.61,1.22,1.13,2.7l-5.88,5.89c-.7.7-.7,1.85,0,2.55l1.92,1.92c.35.35.81.53,1.27.53s.92-.18,1.27-.53l2.69-2.69h0s3.2-3.2,3.2-3.2c.58-.58,1.12-.85,1.56-.85.69,0,1.15.69,1.15,1.97v8.48c0,.99.81,1.8,1.8,1.8h2.71c.99,0,1.8-.8,1.8-1.8v-23.08ZM43.13,21.94v21.96c0,.37-.31.68-.68.68h-2.71c-.37,0-.68-.3-.68-.68v-8.48c0-2.28-1.23-3.1-2.27-3.1-.77,0-1.56.4-2.35,1.18l-3.17,3.17-.02.02-.04.04v.02s-2.65,2.64-2.65,2.64c-.13.13-.3.2-.48.2s-.35-.07-.48-.2l-1.92-1.92c-.13-.13-.2-.3-.2-.48s.07-.35.2-.48l5.88-5.89c1.42-1.43,1.25-2.58,1.02-3.13-.23-.56-.92-1.49-2.95-1.49h-8.45c-.37,0-.68-.3-.68-.68v-2.72c0-.37.3-.68.68-.68h21.96Z"/>
    </clipPath>
    <clipPath id="clippath-2">
      <rect class="cls-1" x="19.2" y="19.99" width="25.28" height="26.15"/>
    </clipPath>
    <clipPath id="clippath-3">
      <rect class="cls-1" x="19.36" y="20.8" width="24.95" height="24.92"/>
    </clipPath>
    <clipPath id="clippath-4">
      <path class="cls-1" d="M44.25,20.82h-23.08c-.99,0-1.8.8-1.8,1.8v2.72c0,.99.8,1.8,1.8,1.8h8.45c2.1,0,2.61,1.22,1.13,2.7l-5.88,5.89c-.7.7-.7,1.85,0,2.55l1.92,1.92c.35.35.81.53,1.27.53s.92-.18,1.27-.53l2.69-2.69h0s3.2-3.2,3.2-3.2c.58-.58,1.12-.85,1.56-.85.69,0,1.15.69,1.15,1.97v8.48c0,.99.81,1.8,1.8,1.8h2.71c.99,0,1.8-.8,1.8-1.8v-23.08ZM43.13,21.94v21.96c0,.37-.31.68-.68.68h-2.71c-.37,0-.68-.3-.68-.68v-8.48c0-2.28-1.23-3.1-2.27-3.1-.77,0-1.56.4-2.35,1.18l-3.17,3.17-.02.02-.04.04v.02s-2.65,2.64-2.65,2.64c-.13.13-.3.2-.48.2s-.35-.07-.48-.2l-1.92-1.92c-.13-.13-.2-.3-.2-.48s.07-.35.2-.48l5.88-5.89c1.42-1.43,1.25-2.58,1.02-3.13-.23-.56-.92-1.49-2.95-1.49h-8.45c-.37,0-.68-.3-.68-.68v-2.72c0-.37.3-.68.68-.68h21.96Z"/>
    </clipPath>
    <clipPath id="clippath-5">
      <rect class="cls-1" x="22.18" y="45.45" width="13.97" height="13.76"/>
    </clipPath>
    <clipPath id="clippath-6">
      <path class="cls-1" d="M35.11,45.57h-12.84v12.83c0,.56.45,1,1,1h1.51c.55,0,1-.45,1-1v-4.7c0-1.17.68-1.45,1.5-.63l3.28,3.27c.39.39,1.02.39,1.42,0l1.07-1.07c.39-.39.39-1.02,0-1.42l-3.28-3.28c-.83-.83-.54-1.5.62-1.5h4.72c.55,0,1-.45,1-1v-1.51c0-.55-.45-1-1-1Z"/>
    </clipPath>
    <clipPath id="clippath-7">
      <rect class="cls-1" x="21.81" y="45.27" width="14.82" height="13.95"/>
    </clipPath>
    <clipPath id="clippath-8">
      <rect class="cls-1" x="22.18" y="45.51" width="13.97" height="13.69"/>
    </clipPath>
    <clipPath id="clippath-9">
      <path class="cls-1" d="M35.11,45.57h-12.84v12.83c0,.55.45,1,1,1h1.51c.55,0,1-.45,1-1v-4.7c0-1.17.68-1.45,1.5-.63l3.28,3.27c.39.39,1.02.39,1.42,0l1.07-1.07c.39-.39.39-1.02,0-1.42l-3.28-3.28c-.83-.83-.54-1.5.62-1.5h4.72c.55,0,1-.45,1-1v-1.51c0-.55-.45-1-1-1Z"/>
    </clipPath>
    <clipPath id="clippath-10">
      <rect class="cls-1" x="5.38" y="45.45" width="13.97" height="13.76"/>
    </clipPath>
    <clipPath id="clippath-11">
      <path class="cls-1" d="M19.23,58.4v-12.83H6.39c-.55,0-1,.45-1,1v1.51c0,.55.45,1,1,1h4.7c1.17,0,1.45.68.63,1.5l-3.27,3.28c-.39.39-.39,1.02,0,1.42l1.07,1.07c.39.39,1.02.39,1.42,0l1.49-1.5,1.78-1.77c.83-.83,1.5-.55,1.5.62v4.71c0,.56.45,1,1,1h1.51c.55,0,1-.45,1-1h0Z"/>
    </clipPath>
    <clipPath id="clippath-12">
      <rect class="cls-1" x="5.25" y="45.27" width="14.82" height="13.95"/>
    </clipPath>
    <clipPath id="clippath-13">
      <rect class="cls-1" x="5.38" y="45.51" width="13.97" height="13.69"/>
    </clipPath>
    <clipPath id="clippath-14">
      <path class="cls-1" d="M19.23,58.4v-12.83H6.39c-.55,0-1,.45-1,1v1.51c0,.55.45,1,1,1h4.7c1.17,0,1.45.68.63,1.5l-3.27,3.28c-.39.39-.39,1.02,0,1.42l1.07,1.07c.39.39,1.02.39,1.42,0l1.49-1.5,1.78-1.77c.83-.83,1.5-.55,1.5.62v4.71c0,.55.45,1,1,1h1.51c.55,0,1-.45,1-1h0Z"/>
    </clipPath>
    <clipPath id="clippath-15">
      <rect class="cls-1" x="5.38" y="28.65" width="13.97" height="13.97"/>
    </clipPath>
    <clipPath id="clippath-16">
      <path class="cls-1" d="M6.39,42.52h12.84v-12.84c0-.55-.45-1-1-1h-1.51c-.55,0-1,.45-1,1v4.7c0,1.17-.68,1.45-1.5.63l-3.28-3.27c-.39-.39-1.02-.39-1.42,0l-1.07,1.07c-.39.39-.39,1.02,0,1.42l3.28,3.28c.83.83.55,1.5-.62,1.5h-4.71c-.55,0-1,.45-1,1v1.51c0,.55.45,1,1,1h0Z"/>
    </clipPath>
    <clipPath id="clippath-17">
      <rect class="cls-1" x="5.25" y="27.84" width="14.82" height="14.82"/>
    </clipPath>
    <clipPath id="clippath-18">
      <rect class="cls-1" x="5.38" y="28.65" width="13.97" height="13.93"/>
    </clipPath>
    <clipPath id="clippath-19">
      <path class="cls-1" d="M6.39,42.52h12.84v-12.84c0-.55-.45-1-1-1h-1.51c-.55,0-1,.45-1,1v4.7c0,1.17-.68,1.45-1.5.63l-3.28-3.27c-.39-.39-1.02-.39-1.42,0l-1.07,1.07c-.39.39-.39,1.02,0,1.42l3.28,3.28c.83.83.55,1.5-.62,1.5h-4.71c-.55,0-1,.45-1,1v1.51c0,.55.45,1,1,1h0Z"/>
    </clipPath>
    <clipPath id="clippath-20">
      <rect class="cls-1" x="50.53" y="55.8" width="3.76" height="3.34"/>
    </clipPath>
    <clipPath id="clippath-21">
      <polygon class="cls-1" points="53.64 55.8 52.42 57.86 51.17 55.8 50.53 55.8 50.53 59.13 51.26 59.13 51.26 57.17 52.23 58.77 52.58 58.77 53.56 57.13 53.56 59.13 54.29 59.13 54.27 55.8 53.64 55.8"/>
    </clipPath>
    <clipPath id="clippath-22">
      <rect class="cls-1" x="49.7" y="55.73" width="5.23" height="3.49"/>
    </clipPath>
    <clipPath id="clippath-23">
      <rect class="cls-1" x="50.53" y="55.8" width="3.76" height="3.34"/>
    </clipPath>
    <clipPath id="clippath-24">
      <polygon class="cls-1" points="53.64 55.8 52.42 57.86 51.17 55.8 50.53 55.8 50.53 59.13 51.26 59.13 51.26 57.17 52.23 58.77 52.58 58.77 53.56 57.13 53.56 59.13 54.29 59.13 54.27 55.8 53.64 55.8"/>
    </clipPath>
    <clipPath id="clippath-25">
      <path class="cls-1" d="M57.45,55.8h2.51v.62h-2.51v-.62ZM57.45,56.42h.76v.72h-.76v-.72ZM57.45,57.14h2.31v.6h-2.31v-.6ZM57.45,57.74h.76v.77h-.76v-.77ZM57.45,58.51h2.57v.62h-2.57v-.62Z"/>
    </clipPath>
    <clipPath id="clippath-26">
      <rect class="cls-1" x="56.68" y="55.73" width="3.49" height="3.49"/>
    </clipPath>
    <clipPath id="clippath-27">
      <path class="cls-1" d="M57.45,55.8h2.51v.62h-2.51v-.62ZM57.45,56.42h.76v.72h-.76v-.72ZM57.45,57.14h2.31v.6h-2.31v-.6ZM57.45,57.74h.76v.77h-.76v-.77ZM57.45,58.51h2.57v.62h-2.57v-.62Z"/>
    </clipPath>
    <clipPath id="clippath-28">
      <rect class="cls-1" x="63.01" y="55.8" width="3.35" height="3.34"/>
    </clipPath>
    <clipPath id="clippath-29">
      <path class="cls-1" d="M65.45,58.01c-.09.16-.22.28-.38.36-.16.09-.36.13-.58.13h-.7v-2.06h.7c.22,0,.42.04.58.13.16.09.29.2.38.36.09.15.14.34.14.55s-.05.39-.14.54M65.48,56c-.28-.14-.6-.21-.96-.21h-1.51v3.33h1.51c.36,0,.68-.07.95-.21.28-.14.49-.33.65-.58.16-.25.23-.54.23-.88s-.08-.63-.23-.88c-.15-.25-.37-.44-.65-.58h0Z"/>
    </clipPath>
    <clipPath id="clippath-30">
      <rect class="cls-1" x="62.78" y="55.73" width="4.36" height="3.49"/>
    </clipPath>
    <clipPath id="clippath-31">
      <rect class="cls-1" x="63.01" y="55.8" width="3.35" height="3.34"/>
    </clipPath>
    <clipPath id="clippath-32">
      <path class="cls-1" d="M65.45,58.01c-.09.16-.22.28-.38.36-.16.09-.36.13-.58.13h-.7v-2.06h.7c.22,0,.42.04.58.13s.29.2.38.36c.09.15.14.34.14.55s-.05.39-.14.54M65.48,56c-.28-.14-.6-.21-.96-.21h-1.51v3.33h1.51c.36,0,.68-.07.95-.21.28-.14.49-.33.65-.58.16-.25.23-.54.23-.88s-.08-.63-.23-.88c-.15-.25-.37-.44-.65-.58h0Z"/>
    </clipPath>
    <clipPath id="clippath-33">
      <rect class="cls-1" x="49" y="25.66" width="21.36" height="25.34"/>
    </clipPath>
    <clipPath id="clippath-34">
      <path class="cls-1" d="M49,45.28l3.9-2.21c1.34,2.14,4.04,3.62,7.17,3.62s5.31-1.16,5.31-2.99c0-4.75-16.24-2.32-16.24-11.04,0-4.32,4.33-7,10.48-7,4.29,0,8.44,2.36,10.06,5.7l-3.66,2.46c-1.06-2.25-3.76-3.87-6.54-3.87-3.2,0-5.48,1.02-5.48,2.92,0,4.54,16.28,1.76,16.28,11.04,0,4.22-4.29,7.07-10.41,7.07-4.75,0-9-2.36-10.86-5.7h0Z"/>
    </clipPath>
    <clipPath id="clippath-35">
      <rect class="cls-1" x="48.83" y="25.22" width="21.79" height="26.15"/>
    </clipPath>
    <clipPath id="clippath-36">
      <rect class="cls-1" x="49" y="25.66" width="21.36" height="25.34"/>
    </clipPath>
    <clipPath id="clippath-37">
      <path class="cls-1" d="M49,45.28l3.9-2.21c1.34,2.14,4.04,3.62,7.17,3.62s5.31-1.16,5.31-2.99c0-4.75-16.24-2.32-16.24-11.04,0-4.32,4.33-7,10.48-7,4.29,0,8.44,2.36,10.06,5.7l-3.66,2.46c-1.06-2.25-3.76-3.87-6.54-3.87-3.2,0-5.48,1.02-5.48,2.92,0,4.54,16.28,1.76,16.28,11.04,0,4.22-4.29,7.07-10.41,7.07-4.75,0-9-2.36-10.86-5.7h0Z"/>
    </clipPath>
    <clipPath id="clippath-38">
      <rect class="cls-1" x="69.32" y="55.8" width=".77" height="3.33"/>
    </clipPath>
    <clipPath id="clippath-39">
      <rect class="cls-1" x="68.88" y="55.73" width="1.74" height="3.49"/>
    </clipPath>
    <clipPath id="clippath-40">
      <rect class="cls-1" x="69.32" y="55.8" width=".77" height="3.33"/>
    </clipPath>
    <clipPath id="clippath-41">
      <rect class="cls-1" x="73.04" y="55.73" width="3.19" height="3.46"/>
    </clipPath>
    <clipPath id="clippath-42">
      <path class="cls-1" d="M74.12,56.69c.1-.1.21-.17.34-.22.13-.05.27-.07.43-.07.16,0,.32.03.46.1.14.07.27.16.38.29l.49-.46c-.16-.19-.35-.34-.59-.44-.23-.1-.49-.15-.78-.15-.26,0-.5.04-.72.13-.22.09-.41.2-.57.36-.16.16-.29.34-.38.55-.09.21-.13.44-.13.69s.04.48.13.69c.09.21.22.39.38.55.16.15.35.28.57.36.22.09.46.13.72.13.29,0,.55-.05.79-.15.23-.1.43-.25.59-.44l-.5-.46c-.11.13-.24.23-.38.3-.14.06-.29.1-.46.1-.15,0-.3-.03-.43-.08s-.24-.12-.34-.22c-.1-.1-.17-.21-.22-.34-.05-.13-.08-.28-.08-.43s.03-.3.08-.43c.05-.13.13-.24.22-.34Z"/>
    </clipPath>
    <clipPath id="clippath-43">
      <rect class="cls-1" x="72.37" y="55.73" width="4.36" height="3.49"/>
    </clipPath>
    <clipPath id="clippath-44">
      <rect class="cls-1" x="73.04" y="55.73" width="3.18" height="3.46"/>
    </clipPath>
    <clipPath id="clippath-45">
      <path class="cls-1" d="M74.12,56.69c.1-.1.21-.17.34-.22s.27-.07.43-.07c.16,0,.32.03.46.1.14.07.27.16.38.29l.49-.46c-.16-.19-.35-.34-.59-.44-.23-.1-.49-.15-.78-.15-.26,0-.5.04-.72.13-.22.09-.41.2-.57.36-.16.16-.29.34-.38.55-.09.21-.13.44-.13.69s.04.48.13.69c.09.21.22.39.38.55.16.15.35.28.57.36.22.09.46.13.72.13.29,0,.55-.05.79-.15.23-.1.43-.25.59-.44l-.5-.46c-.11.13-.24.23-.38.3-.14.06-.29.1-.46.1-.15,0-.3-.03-.43-.08-.13-.05-.24-.12-.34-.22-.1-.1-.17-.21-.22-.34s-.08-.28-.08-.43.03-.3.08-.43c.05-.13.13-.24.22-.34Z"/>
    </clipPath>
    <clipPath id="clippath-46">
      <rect class="cls-1" x="74.14" y="26.01" width="4.85" height="24.61"/>
    </clipPath>
    <clipPath id="clippath-47">
      <rect class="cls-1" x="74.11" y="25.22" width="5.23" height="26.15"/>
    </clipPath>
    <clipPath id="clippath-48">
      <rect class="cls-1" x="74.14" y="26.01" width="4.85" height="24.61"/>
    </clipPath>
    <clipPath id="clippath-49">
      <rect class="cls-1" x="79.07" y="55.8" width=".77" height="3.33"/>
    </clipPath>
    <clipPath id="clippath-50">
      <rect class="cls-1" x="78.47" y="55.73" width="1.74" height="3.49"/>
    </clipPath>
    <clipPath id="clippath-51">
      <rect class="cls-1" x="79.07" y="55.8" width=".77" height="3.33"/>
    </clipPath>
    <clipPath id="clippath-52">
      <rect class="cls-1" x="83" y="55.8" width="3.05" height="3.34"/>
    </clipPath>
    <clipPath id="clippath-53">
      <polygon class="cls-1" points="85.29 57.82 83.64 55.8 83 55.8 83 59.13 83.77 59.13 83.77 57.1 85.42 59.13 86.05 59.13 86.05 55.8 85.29 55.8 85.29 57.82"/>
    </clipPath>
    <clipPath id="clippath-54">
      <rect class="cls-1" x="82.83" y="55.73" width="3.49" height="3.49"/>
    </clipPath>
    <clipPath id="clippath-55">
      <rect class="cls-1" x="83" y="55.8" width="3.05" height="3.34"/>
    </clipPath>
    <clipPath id="clippath-56">
      <polygon class="cls-1" points="85.29 57.82 83.64 55.8 83 55.8 83 59.13 83.77 59.13 83.77 57.1 85.42 59.13 86.05 59.13 86.05 55.8 85.29 55.8 85.29 57.82"/>
    </clipPath>
    <clipPath id="clippath-57">
      <rect class="cls-1" x="88.78" y="55.8" width="3.75" height="3.34"/>
    </clipPath>
    <clipPath id="clippath-58">
      <path class="cls-1" d="M90.11,57.83l.53-1.27.53,1.27h-1.06ZM90.27,55.8l-1.48,3.33h.79l.3-.72h1.54l.3.72h.81l-1.49-3.33h-.76Z"/>
    </clipPath>
    <clipPath id="clippath-59">
      <rect class="cls-1" x="88.06" y="55.73" width="5.23" height="3.49"/>
    </clipPath>
    <clipPath id="clippath-60">
      <rect class="cls-1" x="88.78" y="55.8" width="3.75" height="3.34"/>
    </clipPath>
    <clipPath id="clippath-61">
      <path class="cls-1" d="M90.11,57.83l.53-1.27.53,1.27h-1.06ZM90.27,55.8l-1.48,3.33h.79l.3-.72h1.54l.3.72h.81l-1.49-3.33h-.76Z"/>
    </clipPath>
    <clipPath id="clippath-62">
      <rect class="cls-1" x="83.38" y="26.01" width="17.75" height="24.64"/>
    </clipPath>
    <clipPath id="clippath-63">
      <path class="cls-1" d="M92.35,38.67c2.15,0,3.76-1.62,3.76-3.94s-1.62-4.11-3.76-4.11h-4.11v8.05h4.11ZM83.38,26.01h9.1c5.38,0,8.61,3.73,8.61,8.69s-3.23,8.58-8.65,8.58h-4.22v7.35h-4.85v-24.61Z"/>
    </clipPath>
    <clipPath id="clippath-64">
      <rect class="cls-1" x="82.83" y="25.22" width="18.3" height="26.15"/>
    </clipPath>
    <clipPath id="clippath-65">
      <rect class="cls-1" x="83.38" y="26.01" width="17.72" height="24.64"/>
    </clipPath>
    <clipPath id="clippath-66">
      <path class="cls-1" d="M92.35,38.67c2.15,0,3.76-1.62,3.76-3.94s-1.62-4.11-3.76-4.11h-4.11v8.05h4.11ZM83.38,26.01h9.1c5.38,0,8.61,3.73,8.61,8.69s-3.23,8.58-8.65,8.58h-4.22v7.35h-4.85v-24.61Z"/>
    </clipPath>
    <clipPath id="clippath-67">
      <rect class="cls-1" x="98.96" y="55.8" width="2.9" height="3.34"/>
    </clipPath>
    <clipPath id="clippath-68">
      <path class="cls-1" d="M100.89,57.43c-.12.1-.3.15-.53.15h-.63v-1.16h.63c.24,0,.42.05.53.15.12.1.17.25.17.43s-.06.32-.17.42M101.17,55.94c-.21-.1-.47-.15-.77-.15h-1.44v3.33h.77v-.92h.67c.3,0,.55-.05.77-.14.22-.1.38-.23.5-.42.12-.18.18-.39.18-.64s-.06-.46-.18-.64c-.12-.18-.28-.32-.5-.42h0Z"/>
    </clipPath>
    <clipPath id="clippath-69">
      <rect class="cls-1" x="98.52" y="55.73" width="3.49" height="3.49"/>
    </clipPath>
    <clipPath id="clippath-70">
      <rect class="cls-1" x="98.96" y="55.8" width="2.9" height="3.34"/>
    </clipPath>
    <clipPath id="clippath-71">
      <path class="cls-1" d="M100.89,57.43c-.12.1-.3.15-.53.15h-.63v-1.16h.63c.24,0,.42.05.53.15.12.1.17.25.17.43s-.06.32-.17.42M101.17,55.94c-.21-.1-.47-.15-.77-.15h-1.44v3.33h.77v-.92h.67c.3,0,.55-.05.77-.14.22-.1.38-.23.5-.42.12-.18.18-.39.18-.64s-.06-.46-.18-.64c-.12-.18-.28-.32-.5-.42h0Z"/>
    </clipPath>
    <clipPath id="clippath-72">
      <path class="cls-1" d="M104.77,55.8h2.51v.62h-2.51v-.62ZM104.77,56.42h.77v.72h-.77v-.72ZM104.77,57.14h2.31v.6h-2.31v-.6ZM104.77,57.74h.77v.77h-.77v-.77ZM104.77,58.51h2.57v.62h-2.57v-.62Z"/>
    </clipPath>
    <clipPath id="clippath-73">
      <rect class="cls-1" x="104.62" y="55.73" width="3.49" height="3.49"/>
    </clipPath>
    <clipPath id="clippath-74">
      <path class="cls-1" d="M104.77,55.8h2.51v.62h-2.51v-.62ZM104.77,56.42h.77v.72h-.77v-.72ZM104.77,57.14h2.31v.6h-2.31v-.6ZM104.77,57.74h.77v.77h-.77v-.77ZM104.77,58.51h2.57v.62h-2.57v-.62Z"/>
    </clipPath>
    <clipPath id="clippath-75">
      <rect class="cls-1" x="110.33" y="55.8" width="2.96" height="3.34"/>
    </clipPath>
    <clipPath id="clippath-76">
      <path class="cls-1" d="M112.26,56.58c.12.1.18.24.18.43s-.06.32-.18.43c-.12.1-.29.16-.53.16h-.63v-1.16h.63c.23,0,.42.05.53.15M112.54,58.05c.22-.1.38-.23.5-.41.12-.18.17-.39.17-.64,0-.37-.13-.67-.38-.89-.26-.21-.62-.32-1.08-.32h-1.42v3.33h.77v-.93h.67s.02,0,.03,0l.64.93h.83l-.75-1.07s0,0,0,0Z"/>
    </clipPath>
    <clipPath id="clippath-77">
      <rect class="cls-1" x="109.85" y="55.73" width="3.49" height="3.49"/>
    </clipPath>
    <clipPath id="clippath-78">
      <rect class="cls-1" x="110.33" y="55.8" width="2.96" height="3.34"/>
    </clipPath>
    <clipPath id="clippath-79">
      <path class="cls-1" d="M112.26,56.58c.12.1.18.24.18.43s-.06.32-.18.43c-.12.1-.29.16-.53.16h-.63v-1.16h.63c.23,0,.42.05.53.15M112.54,58.05c.22-.1.38-.23.5-.41.12-.18.17-.39.17-.64,0-.37-.13-.67-.38-.89-.26-.21-.62-.32-1.08-.32h-1.42v3.33h.77v-.93h.67s.02,0,.03,0l.64.93h.83l-.75-1.07s0,0,0,0Z"/>
    </clipPath>
    <clipPath id="clippath-80">
      <rect class="cls-1" x="115.94" y="55.74" width="2.78" height="3.45"/>
    </clipPath>
    <clipPath id="clippath-81">
      <path class="cls-1" d="M118.32,57.44c-.12-.07-.24-.12-.38-.17-.14-.04-.28-.07-.42-.11-.14-.03-.26-.06-.38-.09-.11-.03-.2-.07-.27-.13-.07-.05-.11-.12-.11-.21,0-.07.02-.14.06-.19.04-.05.11-.1.2-.14.1-.03.22-.05.37-.05s.3.02.46.06c.15.04.31.11.46.19l.24-.58c-.16-.1-.33-.17-.54-.22-.2-.05-.41-.07-.62-.07-.31,0-.57.04-.78.14-.2.1-.36.22-.47.37-.1.16-.15.33-.15.52,0,.18.03.32.11.44s.16.21.28.28c.11.07.24.13.38.17.14.04.27.08.41.11.14.03.27.06.38.1s.21.08.28.13c.07.05.1.12.1.21,0,.07-.02.13-.06.18-.05.05-.12.1-.21.13s-.21.04-.37.04c-.2,0-.39-.03-.59-.1-.19-.07-.36-.15-.51-.25l-.26.58c.15.11.35.21.59.28.24.07.5.11.77.11.32,0,.58-.05.79-.14.21-.09.36-.22.47-.37.11-.16.16-.33.16-.51,0-.17-.03-.32-.11-.43-.07-.11-.17-.2-.28-.28Z"/>
    </clipPath>
    <clipPath id="clippath-82">
      <rect class="cls-1" x="115.08" y="55.73" width="4.36" height="3.49"/>
    </clipPath>
    <clipPath id="clippath-83">
      <rect class="cls-1" x="115.94" y="55.74" width="2.78" height="3.45"/>
    </clipPath>
    <clipPath id="clippath-84">
      <path class="cls-1" d="M118.32,57.44c-.12-.07-.24-.12-.38-.17-.14-.04-.28-.07-.42-.11-.14-.03-.26-.06-.38-.09-.11-.03-.2-.07-.27-.13-.07-.05-.11-.12-.11-.21,0-.07.02-.14.06-.19.04-.05.11-.1.2-.14.1-.03.22-.05.37-.05s.3.02.46.06c.15.04.31.11.46.19l.24-.58c-.16-.1-.33-.17-.54-.22-.2-.05-.41-.07-.62-.07-.31,0-.57.04-.78.14-.2.1-.36.22-.47.37-.1.16-.15.33-.15.52,0,.18.03.32.11.44s.16.21.28.28c.11.07.24.13.38.17.14.04.27.08.41.11s.27.06.38.1c.11.03.21.08.28.13s.1.12.1.21c0,.07-.02.13-.06.18-.05.05-.12.1-.21.13s-.21.04-.37.04c-.2,0-.39-.03-.59-.1-.19-.07-.36-.15-.51-.25l-.26.58c.15.11.35.21.59.28.24.07.5.11.77.11.32,0,.58-.05.79-.14.21-.09.36-.22.47-.37.11-.16.16-.33.16-.51,0-.17-.03-.32-.11-.43-.07-.11-.17-.2-.28-.28Z"/>
    </clipPath>
    <clipPath id="clippath-85">
      <rect class="cls-1" x="103.53" y="25.66" width="21.35" height="25.34"/>
    </clipPath>
    <clipPath id="clippath-86">
      <path class="cls-1" d="M103.53,45.28l3.9-2.21c1.33,2.14,4.04,3.62,7.17,3.62s5.31-1.16,5.31-2.99c0-4.75-16.24-2.32-16.24-11.04,0-4.32,4.32-7,10.48-7,4.29,0,8.44,2.36,10.05,5.7l-3.65,2.46c-1.06-2.25-3.76-3.87-6.54-3.87-3.2,0-5.48,1.02-5.48,2.92,0,4.54,16.28,1.76,16.28,11.04,0,4.22-4.29,7.07-10.41,7.07-4.75,0-9-2.36-10.86-5.7h0Z"/>
    </clipPath>
    <clipPath id="clippath-87">
      <rect class="cls-1" x="102.87" y="25.22" width="22.66" height="26.15"/>
    </clipPath>
    <clipPath id="clippath-88">
      <rect class="cls-1" x="103.53" y="25.66" width="21.35" height="25.34"/>
    </clipPath>
    <clipPath id="clippath-89">
      <path class="cls-1" d="M103.53,45.28l3.9-2.21c1.33,2.14,4.04,3.62,7.17,3.62s5.31-1.16,5.31-2.99c0-4.75-16.24-2.32-16.24-11.04,0-4.32,4.32-7,10.48-7,4.29,0,8.44,2.36,10.05,5.7l-3.65,2.46c-1.06-2.25-3.76-3.87-6.54-3.87-3.2,0-5.48,1.02-5.48,2.92,0,4.54,16.28,1.76,16.28,11.04,0,4.22-4.29,7.07-10.41,7.07-4.75,0-9-2.36-10.86-5.7h0Z"/>
    </clipPath>
    <clipPath id="clippath-90">
      <rect class="cls-1" x="121.4" y="55.74" width="3.64" height="3.44"/>
    </clipPath>
    <clipPath id="clippath-91">
      <path class="cls-1" d="M124.19,57.89c-.05.13-.13.24-.22.34-.1.1-.2.17-.33.22-.13.05-.26.07-.41.07s-.29-.02-.41-.07c-.13-.05-.23-.13-.33-.22-.1-.1-.17-.21-.22-.34-.05-.13-.08-.28-.08-.43s.02-.3.08-.43c.05-.13.13-.24.22-.34.09-.1.2-.17.33-.22.12-.05.26-.08.41-.08s.29.03.42.08c.13.05.24.12.33.22.1.1.17.21.22.34.05.13.08.27.08.43s-.03.3-.08.43M124.52,56.23c-.17-.16-.36-.28-.58-.36-.22-.09-.46-.13-.73-.13s-.5.04-.72.13c-.22.09-.42.21-.58.36-.16.16-.29.34-.38.55-.09.21-.14.44-.14.68s.04.47.14.68c.09.21.21.39.38.54.16.16.36.28.58.36.22.09.47.13.73.13s.5-.04.72-.13c.22-.09.41-.21.58-.36.16-.15.29-.33.38-.54.09-.21.14-.44.14-.69s-.05-.48-.14-.69c-.09-.21-.22-.39-.38-.54h0Z"/>
    </clipPath>
    <clipPath id="clippath-92">
      <rect class="cls-1" x="121.18" y="55.73" width="4.36" height="3.49"/>
    </clipPath>
    <clipPath id="clippath-93">
      <rect class="cls-1" x="121.4" y="55.74" width="3.64" height="3.44"/>
    </clipPath>
    <clipPath id="clippath-94">
      <path class="cls-1" d="M124.19,57.89c-.05.13-.13.24-.22.34-.1.1-.2.17-.33.22-.13.05-.26.07-.41.07s-.29-.02-.41-.07c-.13-.05-.23-.13-.33-.22-.1-.1-.17-.21-.22-.34-.05-.13-.08-.28-.08-.43s.02-.3.08-.43c.05-.13.13-.24.22-.34.09-.1.2-.17.33-.22.12-.05.26-.08.41-.08s.29.03.42.08c.13.05.24.12.33.22.1.1.17.21.22.34.05.13.08.27.08.43s-.03.3-.08.43M124.52,56.23c-.17-.16-.36-.28-.58-.36-.22-.09-.46-.13-.73-.13s-.5.04-.72.13c-.22.09-.42.21-.58.36-.16.16-.29.34-.38.55-.09.21-.14.44-.14.68s.04.47.14.68c.09.21.21.39.38.54.16.16.36.28.58.36.22.09.47.13.73.13s.5-.04.72-.13c.22-.09.41-.21.58-.36.16-.15.29-.33.38-.54.09-.21.14-.44.14-.69s-.05-.48-.14-.69c-.09-.21-.22-.39-.38-.54h0Z"/>
    </clipPath>
    <clipPath id="clippath-95">
      <rect class="cls-1" x="128" y="55.8" width="3.05" height="3.34"/>
    </clipPath>
    <clipPath id="clippath-96">
      <polygon class="cls-1" points="130.29 57.82 128.63 55.8 128 55.8 128 59.13 128.76 59.13 128.76 57.1 130.42 59.13 131.05 59.13 131.05 55.8 130.29 55.8 130.29 57.82"/>
    </clipPath>
    <clipPath id="clippath-97">
      <rect class="cls-1" x="127.28" y="55.73" width="4.36" height="3.49"/>
    </clipPath>
    <clipPath id="clippath-98">
      <rect class="cls-1" x="128" y="55.8" width="3.05" height="3.34"/>
    </clipPath>
    <clipPath id="clippath-99">
      <polygon class="cls-1" points="130.29 57.82 128.63 55.8 128 55.8 128 59.13 128.76 59.13 128.76 57.1 130.42 59.13 131.05 59.13 131.05 55.8 130.29 55.8 130.29 57.82"/>
    </clipPath>
    <clipPath id="clippath-100">
      <rect class="cls-1" x="133.78" y="55.8" width="3.74" height="3.34"/>
    </clipPath>
    <clipPath id="clippath-101">
      <path class="cls-1" d="M135.1,57.83l.53-1.27.53,1.27h-1.06ZM135.26,55.8l-1.48,3.33h.79l.3-.72h1.54l.3.72h.81l-1.48-3.33h-.76Z"/>
    </clipPath>
    <clipPath id="clippath-102">
      <rect class="cls-1" x="133.38" y="55.73" width="4.36" height="3.49"/>
    </clipPath>
    <clipPath id="clippath-103">
      <rect class="cls-1" x="133.78" y="55.8" width="3.74" height="3.34"/>
    </clipPath>
    <clipPath id="clippath-104">
      <path class="cls-1" d="M135.1,57.83l.53-1.27.53,1.27h-1.06ZM135.26,55.8l-1.48,3.33h.79l.3-.72h1.54l.3.72h.81l-1.48-3.33h-.76Z"/>
    </clipPath>
    <clipPath id="clippath-105">
      <path class="cls-1" d="M140.23,55.8h.77v2.7h-.77v-2.7ZM140.23,58.5h2.44v.63h-2.44v-.63Z"/>
    </clipPath>
    <clipPath id="clippath-106">
      <rect class="cls-1" x="139.48" y="55.73" width="3.49" height="3.49"/>
    </clipPath>
    <clipPath id="clippath-107">
      <path class="cls-1" d="M140.23,55.8h.77v2.7h-.77v-2.7ZM140.23,58.5h2.44v.63h-2.44v-.63Z"/>
    </clipPath>
    <clipPath id="clippath-108">
      <rect class="cls-1" x="145.48" y="55.8" width=".77" height="3.33"/>
    </clipPath>
    <clipPath id="clippath-109">
      <rect class="cls-1" x="144.71" y="55.73" width="1.74" height="3.49"/>
    </clipPath>
    <clipPath id="clippath-110">
      <rect class="cls-1" x="145.48" y="55.8" width=".77" height="3.33"/>
    </clipPath>
    <clipPath id="clippath-111">
      <rect class="cls-1" x="127.23" y="25.66" width="21.36" height="25.34"/>
    </clipPath>
    <clipPath id="clippath-112">
      <path class="cls-1" d="M127.23,45.28l3.91-2.21c1.33,2.14,4.04,3.62,7.17,3.62s5.31-1.16,5.31-2.99c0-4.75-16.24-2.32-16.24-11.04,0-4.32,4.32-7,10.48-7,4.29,0,8.44,2.36,10.05,5.7l-3.66,2.46c-1.06-2.25-3.76-3.87-6.54-3.87-3.2,0-5.49,1.02-5.49,2.92,0,4.54,16.28,1.76,16.28,11.04,0,4.22-4.29,7.07-10.41,7.07-4.75,0-9-2.36-10.86-5.7h0Z"/>
    </clipPath>
    <clipPath id="clippath-113">
      <rect class="cls-1" x="126.41" y="25.22" width="22.66" height="26.15"/>
    </clipPath>
    <clipPath id="clippath-114">
      <rect class="cls-1" x="127.23" y="25.66" width="21.34" height="25.34"/>
    </clipPath>
    <clipPath id="clippath-115">
      <path class="cls-1" d="M127.23,45.28l3.91-2.21c1.33,2.14,4.04,3.62,7.17,3.62s5.31-1.16,5.31-2.99c0-4.75-16.24-2.32-16.24-11.04,0-4.32,4.32-7,10.48-7,4.29,0,8.44,2.36,10.05,5.7l-3.66,2.46c-1.06-2.25-3.76-3.87-6.54-3.87-3.2,0-5.49,1.02-5.49,2.92,0,4.54,16.28,1.76,16.28,11.04,0,4.22-4.29,7.07-10.41,7.07-4.75,0-9-2.36-10.86-5.7h0Z"/>
    </clipPath>
    <clipPath id="clippath-116">
      <rect class="cls-1" x="149.2" y="55.8" width="2.91" height="3.33"/>
    </clipPath>
    <clipPath id="clippath-117">
      <polygon class="cls-1" points="152.04 56.3 152.04 55.8 149.24 55.8 149.24 56.42 151.03 56.42 149.2 58.63 149.2 59.13 152.1 59.13 152.1 58.5 150.22 58.5 152.04 56.3"/>
    </clipPath>
    <clipPath id="clippath-118">
      <rect class="cls-1" x="149.07" y="55.73" width="3.49" height="3.49"/>
    </clipPath>
    <clipPath id="clippath-119">
      <rect class="cls-1" x="149.2" y="55.8" width="2.91" height="3.33"/>
    </clipPath>
    <clipPath id="clippath-120">
      <polygon class="cls-1" points="152.04 56.3 152.04 55.8 149.24 55.8 149.24 56.42 151.03 56.42 149.2 58.63 149.2 59.13 152.1 59.13 152.1 58.5 150.22 58.5 152.04 56.3"/>
    </clipPath>
    <clipPath id="clippath-121">
      <rect class="cls-1" x="154.54" y="55.8" width="3.74" height="3.34"/>
    </clipPath>
    <clipPath id="clippath-122">
      <path class="cls-1" d="M155.87,57.83l.53-1.27.53,1.27h-1.06ZM156.02,55.8l-1.48,3.33h.79l.3-.72h1.54l.3.72h.81l-1.49-3.33h-.76Z"/>
    </clipPath>
    <clipPath id="clippath-123">
      <rect class="cls-1" x="154.3" y="55.73" width="4.36" height="3.49"/>
    </clipPath>
    <clipPath id="clippath-124">
      <rect class="cls-1" x="154.54" y="55.8" width="3.74" height="3.34"/>
    </clipPath>
    <clipPath id="clippath-125">
      <path class="cls-1" d="M155.87,57.83l.53-1.27.53,1.27h-1.06ZM156.02,55.8l-1.48,3.33h.79l.3-.72h1.54l.3.72h.81l-1.49-3.33h-.76Z"/>
    </clipPath>
    <clipPath id="clippath-126">
      <rect class="cls-1" x="161" y="55.8" width="3.35" height="3.34"/>
    </clipPath>
    <clipPath id="clippath-127">
      <path class="cls-1" d="M163.43,58.01c-.09.16-.22.28-.38.36-.16.09-.36.13-.58.13h-.7v-2.06h.7c.22,0,.42.04.58.13.16.09.29.2.38.36.09.15.13.34.13.55s-.04.39-.13.54M163.46,56c-.28-.14-.59-.21-.95-.21h-1.51v3.33h1.51c.36,0,.68-.07.95-.21s.49-.33.65-.58c.15-.25.23-.54.23-.88s-.08-.63-.23-.88c-.16-.25-.37-.44-.65-.58Z"/>
    </clipPath>
    <clipPath id="clippath-128">
      <rect class="cls-1" x="160.4" y="55.73" width="4.36" height="3.49"/>
    </clipPath>
    <clipPath id="clippath-129">
      <rect class="cls-1" x="161" y="55.8" width="3.35" height="3.34"/>
    </clipPath>
    <clipPath id="clippath-130">
      <path class="cls-1" d="M163.43,58.01c-.09.16-.22.28-.38.36-.16.09-.36.13-.58.13h-.7v-2.06h.7c.22,0,.42.04.58.13s.29.2.38.36c.09.15.13.34.13.55s-.04.39-.13.54M163.46,56c-.28-.14-.59-.21-.95-.21h-1.51v3.33h1.51c.36,0,.68-.07.95-.21.28-.14.49-.33.65-.58.15-.25.23-.54.23-.88s-.08-.63-.23-.88c-.16-.25-.37-.44-.65-.58Z"/>
    </clipPath>
    <clipPath id="clippath-131">
      <rect class="cls-1" x="150.57" y="26.01" width="20.05" height="24.65"/>
    </clipPath>
    <clipPath id="clippath-132">
      <path class="cls-1" d="M162.95,41.38l-2.39-8.34-2.39,8.34h4.78ZM158.2,26.01h4.67l7.66,24.61h-4.96l-1.44-5.06h-7.17l-1.44,5.06h-4.95l7.63-24.61Z"/>
    </clipPath>
    <clipPath id="clippath-133">
      <rect class="cls-1" x="149.94" y="25.22" width="20.92" height="26.15"/>
    </clipPath>
    <clipPath id="clippath-134">
      <rect class="cls-1" x="150.57" y="26.01" width="20.05" height="24.65"/>
    </clipPath>
    <clipPath id="clippath-135">
      <path class="cls-1" d="M162.95,41.38l-2.39-8.34-2.39,8.34h4.78ZM158.2,26.01h4.67l7.66,24.61h-4.96l-1.44-5.06h-7.17l-1.44,5.06h-4.95l7.63-24.61Z"/>
    </clipPath>
    <clipPath id="clippath-136">
      <rect class="cls-1" x="166.81" y="55.8" width="3.74" height="3.34"/>
    </clipPath>
    <clipPath id="clippath-137">
      <path class="cls-1" d="M168.14,57.83l.53-1.27.53,1.27h-1.06ZM169.74,59.13h.81l-1.49-3.33h-.76l-1.48,3.33h.79l.3-.72h1.54l.3.72Z"/>
    </clipPath>
    <clipPath id="clippath-138">
      <rect class="cls-1" x="166.5" y="55.73" width="4.36" height="3.49"/>
    </clipPath>
    <clipPath id="clippath-139">
      <rect class="cls-1" x="166.81" y="55.8" width="3.74" height="3.34"/>
    </clipPath>
    <clipPath id="clippath-140">
      <path class="cls-1" d="M168.14,57.83l.53-1.27.53,1.27h-1.06ZM169.74,59.13h.81l-1.49-3.33h-.76l-1.48,3.33h.79l.3-.72h1.54l.3.72Z"/>
    </clipPath>
  </defs>
  <g class="cls-143">
    <g class="cls-92">
      <g class="cls-95">
        <g class="cls-93">
          <g class="cls-94">
            <path class="cls-142" d="M4.59,20.02h40.5v40.19H4.59V20.02Z"/>
          </g>
        </g>
      </g>
    </g>
  </g>
  <g class="cls-100">
    <g class="cls-97">
      <g class="cls-96">
        <g class="cls-99">
          <g class="cls-98">
            <rect class="cls-142" x="-34.74" y="11.36" width="244.61" height="56.48"/>
          </g>
        </g>
      </g>
    </g>
  </g>
  <g class="cls-7">
    <g class="cls-4">
      <g class="cls-11">
        <g class="cls-9">
          <g class="cls-10">
            <rect class="cls-142" x="-34.74" y="11.36" width="244.61" height="56.48"/>
          </g>
        </g>
      </g>
    </g>
  </g>
  <g class="cls-8">
    <g class="cls-5">
      <g class="cls-2">
        <g class="cls-6">
          <g class="cls-3">
            <rect class="cls-142" x="-34.74" y="11.36" width="244.61" height="56.48"/>
          </g>
        </g>
      </g>
    </g>
  </g>
  <g class="cls-55">
    <g class="cls-56">
      <g class="cls-57">
        <g class="cls-58">
          <g class="cls-59">
            <path class="cls-142" d="M50.53,55.8h3.76v3.33h-3.76v-3.33Z"/>
          </g>
        </g>
      </g>
    </g>
  </g>
  <g class="cls-60">
    <g class="cls-53">
      <g class="cls-51">
        <path class="cls-142" d="M57.45,55.8h2.57v3.33h-2.57v-3.33Z"/>
      </g>
    </g>
  </g>
  <g class="cls-54">
    <g class="cls-52">
      <g class="cls-47">
        <g class="cls-41">
          <g class="cls-42">
            <path class="cls-142" d="M63.01,55.8h3.34v3.33h-3.34v-3.33Z"/>
          </g>
        </g>
      </g>
    </g>
  </g>
  <g class="cls-43">
    <g class="cls-44">
      <g class="cls-45">
        <g class="cls-48">
          <g class="cls-49">
            <path class="cls-142" d="M49,25.66h21.27v25.34h-21.27v-25.34Z"/>
          </g>
        </g>
      </g>
    </g>
  </g>
  <g class="cls-50">
    <g class="cls-46">
      <g class="cls-68">
        <path class="cls-142" d="M69.32,55.8h.77v3.33h-.77v-3.33Z"/>
      </g>
    </g>
  </g>
  <g class="cls-62">
    <g class="cls-63">
      <g class="cls-64">
        <g class="cls-65">
          <g class="cls-66">
            <path class="cls-142" d="M73.04,55.74h3.17v3.44h-3.17v-3.44Z"/>
          </g>
        </g>
      </g>
    </g>
  </g>
  <g class="cls-69">
    <g class="cls-70">
      <g class="cls-71">
        <path class="cls-142" d="M74.14,26.01h4.85v24.62h-4.85v-24.62Z"/>
      </g>
    </g>
  </g>
  <g class="cls-67">
    <g class="cls-25">
      <g class="cls-38">
        <path class="cls-142" d="M79.07,55.8h.77v3.33h-.77v-3.33Z"/>
      </g>
    </g>
  </g>
  <g class="cls-27">
    <g class="cls-31">
      <g class="cls-29">
        <g class="cls-26">
          <g class="cls-30">
            <path class="cls-142" d="M83,55.8h3.05v3.33h-3.05v-3.33Z"/>
          </g>
        </g>
      </g>
    </g>
  </g>
  <g class="cls-28">
    <g class="cls-39">
      <g class="cls-40">
        <g class="cls-15">
          <g class="cls-12">
            <path class="cls-142" d="M88.78,55.8h3.73v3.33h-3.73v-3.33Z"/>
          </g>
        </g>
      </g>
    </g>
  </g>
  <g class="cls-17">
    <g class="cls-20">
      <g class="cls-18">
        <g class="cls-16">
          <g class="cls-19">
            <path class="cls-142" d="M83.38,26.01h17.72v24.64h-17.72v-24.64Z"/>
          </g>
        </g>
      </g>
    </g>
  </g>
  <g class="cls-13">
    <g class="cls-14">
      <g class="cls-61">
        <g class="cls-32">
          <g class="cls-35">
            <path class="cls-142" d="M98.96,55.8h2.88v3.33h-2.88v-3.33Z"/>
          </g>
        </g>
      </g>
    </g>
  </g>
  <g class="cls-37">
    <g class="cls-36">
      <g class="cls-34">
        <path class="cls-142" d="M104.77,55.8h2.57v3.33h-2.57v-3.33Z"/>
      </g>
    </g>
  </g>
  <g class="cls-23">
    <g class="cls-21">
      <g class="cls-33">
        <g class="cls-22">
          <g class="cls-24">
            <path class="cls-142" d="M110.33,55.8h2.95v3.33h-2.95v-3.33Z"/>
          </g>
        </g>
      </g>
    </g>
  </g>
  <g class="cls-81">
    <g class="cls-83">
      <g class="cls-84">
        <g class="cls-85">
          <g class="cls-86">
            <path class="cls-142" d="M115.94,55.74h2.77v3.44h-2.77v-3.44Z"/>
          </g>
        </g>
      </g>
    </g>
  </g>
  <g class="cls-78">
    <g class="cls-79">
      <g class="cls-80">
        <g class="cls-87">
          <g class="cls-82">
            <path class="cls-142" d="M103.53,25.66h21.27v25.34h-21.27v-25.34Z"/>
          </g>
        </g>
      </g>
    </g>
  </g>
  <g class="cls-72">
    <g class="cls-90">
      <g class="cls-88">
        <g class="cls-74">
          <g class="cls-76">
            <path class="cls-142" d="M121.4,55.74h3.64v3.44h-3.64v-3.44Z"/>
          </g>
        </g>
      </g>
    </g>
  </g>
  <g class="cls-73">
    <g class="cls-77">
      <g class="cls-89">
        <g class="cls-91">
          <g class="cls-75">
            <path class="cls-142" d="M128,55.8h3.05v3.33h-3.05v-3.33Z"/>
          </g>
        </g>
      </g>
    </g>
  </g>
  <g class="cls-108">
    <g class="cls-102">
      <g class="cls-101">
        <g class="cls-106">
          <g class="cls-103">
            <path class="cls-142" d="M133.78,55.8h3.73v3.33h-3.73v-3.33Z"/>
          </g>
        </g>
      </g>
    </g>
  </g>
  <g class="cls-107">
    <g class="cls-105">
      <g class="cls-110">
        <path class="cls-142" d="M140.23,55.8h2.44v3.33h-2.44v-3.33Z"/>
      </g>
    </g>
  </g>
  <g class="cls-109">
    <g class="cls-104">
      <g class="cls-115">
        <path class="cls-142" d="M145.48,55.8h.77v3.33h-.77v-3.33Z"/>
      </g>
    </g>
  </g>
  <g class="cls-114">
    <g class="cls-117">
      <g class="cls-116">
        <g class="cls-112">
          <g class="cls-119">
            <path class="cls-142" d="M127.23,25.66h21.27v25.34h-21.27v-25.34Z"/>
          </g>
        </g>
      </g>
    </g>
  </g>
  <g class="cls-120">
    <g class="cls-118">
      <g class="cls-111">
        <g class="cls-113">
          <g class="cls-122">
            <path class="cls-142" d="M149.2,55.8h2.91v3.33h-2.91v-3.33Z"/>
          </g>
        </g>
      </g>
    </g>
  </g>
  <g class="cls-125">
    <g class="cls-124">
      <g class="cls-126">
        <g class="cls-127">
          <g class="cls-123">
            <path class="cls-142" d="M154.54,55.8h3.73v3.33h-3.73v-3.33Z"/>
          </g>
        </g>
      </g>
    </g>
  </g>
  <g class="cls-129">
    <g class="cls-131">
      <g class="cls-130">
        <g class="cls-128">
          <g class="cls-132">
            <path class="cls-142" d="M161,55.8h3.34v3.33h-3.34v-3.33Z"/>
          </g>
        </g>
      </g>
    </g>
  </g>
  <g class="cls-134">
    <g class="cls-133">
      <g class="cls-136">
        <g class="cls-135">
          <g class="cls-141">
            <path class="cls-142" d="M150.57,26.01h19.97v24.57h-19.97v-24.57Z"/>
          </g>
        </g>
      </g>
    </g>
  </g>
  <g class="cls-137">
    <g class="cls-139">
      <g class="cls-140">
        <g class="cls-138">
          <g class="cls-121">
            <path class="cls-142" d="M166.81,55.8h3.73v3.33h-3.73v-3.33Z"/>
          </g>
        </g>
      </g>
    </g>
  </g>
</svg>