<?xml version="1.0" encoding="UTF-8"?>
<svg id="Capa_1" data-name="Capa 1" xmlns="http://www.w3.org/2000/svg" viewBox="0 0 200 80">
  <defs>
    <style>
      .cls-1 {
        fill: #a11c41;
      }

      .cls-2 {
        fill: #aa9965;
      }
    </style>
  </defs>
  <path class="cls-1" d="M31.47,32.46c-1.02,0-2.29.25-6.13,1.51.17-1.96.45-4.18.73-5.81,1.48.84,2.41,1.13,3.11,1.13,2.21,0,5.03-5.02,5.03-7.98,0-2.09-.98-3.22-2.66-3.22-2.98,0-4.7,3.3-5.43,6.65-2.45-1.25-3.03-2.13-3.96-2.13-1.27,0-7.54,2.99-10.41,9.59-1.16,2.68-.72,3.92-.51,4.34,0,0,1.68,3.88,3.14,4.13.91.15,1.84-.29,9.98-3.17-.08,1.17-.16,2.34-.2,3.47-.78,1.05-1.27,1.62-2.58,2.82,1.1.63,1.73,1.32,2.63,2.36,0,.92-.04,1.79-.09,2.72l1.02.42c-.08-1.13-.16-2.3-.2-3.47.65-.88,1.35-1.63,2.37-2.17-1.02-.59-1.8-1.51-2.37-2.3.04-1.34.08-2.72.16-4.1,3.76-1.38,4.5-1.51,5.43-1.51,1.51,0,2.86,2.18,2.86,5.14,0,3.78-4.11,9.49-8.89,10-.32-.31-6.27-6.26-11.02-8-1.63,1.19-3.18,2.31-4.96,3.45l.27.55c.56-.42,1.71-1,2.32-.99,1.97.02,11.79,7.11,13.05,8.8l.1-.26c1.35-2.51,12.08-8.92,12.08-14.65,0-4.39-2.58-7.32-4.86-7.32M31.56,18.83c1.19,0,1.92.8,1.92,2.26,0,3.1-1.8,5.18-3.19,5.18-.94,0-1.47-.13-3.56-1.21.86-3.43,2.25-6.23,4.82-6.23M24.61,34.18c-9.11,2.92-10.18,3.14-10.79,3.18-.89.05-2.5-1.02-2.22-2.3,1.39-6.25,5.93-9.45,8.01-9.45,1.11,0,2.13.21,5.81,2.21-.33,1.59-.61,3.89-.82,6.36"/>
  <path class="cls-1" d="M47.22,35.73c.66-.8,1.31-1.67,1.83-2.59l-.11-.07s-.32.37-.67.39c-.34.02-4.52.17-4.52.17.2-2.38.45-4.43.73-6.61h-.12c-.82,1.96-2.05,2.68-3.52,3.26.2.54.29,1.17.29,1.93,0,.79-.13,1.34-.25,1.34-.16,0-.68.04-.84,0-.62.92-.95,1.58-1.49,2.38l.2.17c.49-.71,1.19-.55,1.56-.55.57,0,.82.21.82,1.38,0,1.46-.37,8.03-.53,10.2-.16,2.01-.51,2.61-1.1,3.01,1.16-.27,5.28,1.79,5.64,3.38,0,0,2.57-3.42,3.92-5.05l-.35-.3-1.4,1.61c-1.19-.17-2.87-.93-3.89-1.69l.33-12.2,3.47-.17Z"/>
  <path class="cls-1" d="M70.73,50.15c-2.37-1.42-2.45-2.17-2.45-4.64,0-3.13.32-6.69.65-8.7.17-.96.88-1.85.88-1.85-1.27-.67-2.14-1.37-3.16-2.5-.41.62-1.92,1.97-3.63,3.64l.24.27,1.43-1.1c.41.5.81.96,1.54,1.46-.32,3.14-.64,7.14-.64,10.99,0,2.22.33,2.97,3.89,5.73.98-1.75,1.79-2.8,2.86-4.26l-.42-.31-1.17,1.27Z"/>
  <path class="cls-1" d="M90.5,50.71c-1.88-.96-2.52-2.4-2.55-4.79-.07-5.04,1.64-10.41,1.64-10.41,0,0-.37-.08-.68-.31-.3-.23-2.62-1.97-2.81-2.21-.19-.24-.31-.78-.31-.78-1.51,1.12-6.13,8.11-7.31,10.99h-.08c.53-4.43.78-7.4,1.35-8.19-1.35-.54-2.37-1.34-3.35-2.55-1.23,1.76-2.33,2.97-3.8,4.47l.3.26,1.6-1.59c.57.5,1.17,1.21,1.94,1.63-.12,3.68-.41,13.5-1.06,16.47,1.03-.88,1.96-1.46,3.07-2.09.04-1.34.12-4.72.41-6.02.69-3.14,3.18-7.11,5.11-9.74l2.25,1.63c-.29,2.21-.7,7.15-.7,9.15,0,3.93.7,5.27,3.43,7.06,1.43-1.92,2.45-3.43,3.6-4.43l-.35-.27-1.67,1.71Z"/>
  <path class="cls-1" d="M127.05,50.03c-1.95-.49-2.42-2.73-2.42-5.78,0-3.55.37-6.98,2.01-8.82-1.55-.12-2.99-.88-5.76-3.22-6.71,5.56-8.63,7.56-8.63,11.54,0,3.43,2.09,7.36,4.54,9.37l.34.32c2.21-1.47,3.67-3.91,4.98-6.13h.08c.17,2.17.66,4.22,2.66,6.39l4.25-5.26-.34-.23-1.7,1.83ZM121.82,43.21c-.2,3.85-1.76,6.65-2.95,6.65s-3.92-2.63-3.92-8.07c0-4.39,3.39-6.35,4.08-6.35.57,0,1.92,1.25,3.6,1.84-.45.75-.61,2.13-.81,5.94"/>
  <path class="cls-1" d="M147.77,48.73l-1.87,2.01-1.9-1.8c-.12-.96-.12-2.38-.12-3.39,0-3.68.69-10.62,1.11-13.33-1.19.87-2.3,1.67-3.56,2.38.12.92.24,2.26.24,3.56,0,1.92-.21,5.18-.69,6.4-.41,1-1.96,3.55-4.13,5.81-.74-.84-1.42-1.51-2.33-2.01.29-.46.94-6.23.94-8.07,0-2.88-.37-5.15-2.65-7.03l-.51-.55c-1.1,1.51-2.32,2.85-3.71,4.23l.25.25,1.32-1.18c1.76.77,2.6,2.35,2.6,5.15,0,3.39-.37,8.11-1.8,8.7,0,0,.42.18.49.22.69.37,3.3,2.52,3.52,2.83.27.37.24.54.24.54,2.37-2.59,4.78-5.48,6.13-7.73l.08.08c0,1.59-.17,3.47-.77,4.68,1.39.8,2.49,1.84,3.55,3.22,1.19-1.67,2.58-3.43,3.85-4.76l-.28-.21Z"/>
  <path class="cls-1" d="M154.4,34.97c1.72,0,3.68,2.3,4.9,2.3.41,0,1.39-1.17,3.4-4.05l-.22-.17c-.78,1.04-1.58,1.21-2.03,1.21-.98,0-3.44-2.05-4.42-2.05s-6.45,4.89-6.45,7.94c0,1.68.94,2.13,5.56,3.26,3.47.83,5.11,1.55,5.11,3.39,0,1.13-1.42,3.3-2.74,3.3-.86,0-1.39-1.63-6.66-3.47-.98,1.3-1.92,2.51-3.07,3.76l.21.26c.33-.46,1.44-.76,2.01-.76,1.84,0,4.62,2.01,6.54,3.8,1.15-1.25,6.17-6.73,6.17-9.53,0-1.55-1.43-2.3-6.46-3.64-3.64-.96-3.96-1.38-3.96-2.59,0-1.26.93-2.97,2.12-2.97"/>
  <path class="cls-1" d="M173.83,49.35c-.53.5-.98.47-1.23.47-1.1,0-5.81-3.39-5.81-8.99,0-2.8,2.17-5.43,3.6-5.43.77,0,2,2.01,1.9,3.05-.1,1.05-4.04,3.61-4.48,3.97-.16.13.17.52.17.52,4.95-3.76,5.1-3.6,8.04-5.61l-.35-.8c-1.02-2.05-2.33-3.47-3.72-4.3-1.52,1.16-7.58,4.99-7.6,11.37-.02,4.68,4.25,8.19,6.49,9.62l.46.32c1.88-2.55,4.24-4.91,6.12-6.88l-.39-.55-3.19,3.26Z"/>
  <path class="cls-1" d="M59.12,49.34c-.53.5-.99.48-1.23.48-1.1,0-5.81-3.39-5.81-8.99,0-2.8,2.16-5.43,3.6-5.43.77,0,2,2.01,1.9,3.05-.1,1.05-4.04,3.61-4.48,3.97-.16.13.17.52.17.52,4.95-3.76,5.09-3.6,8.03-5.61,0,0-1.56-3.75-4.07-5.11-1.7,1.1-7.58,4.99-7.6,11.37-.02,4.68,4.25,8.19,6.5,9.62l.46.32c1.88-2.55,4.24-4.91,6.13-6.88l-.4-.56-3.19,3.26Z"/>
  <path class="cls-1" d="M188.34,32.59c-.82.58-3.56,4.1-3.85,5.23h-.08c0-.17.04-.42.04-.62,0-1.34-1.45-3.29-2.2-4.02l-.39-.37c-1.39,1.59-2.67,2.84-4.27,4.39l.35.44,1.9-1.7c1.31.8,1.97,2.05,1.97,4.39,0,5.6-.62,8.24-1.07,9.58l-.54.62s.51-.12.83-.04c.32.08,3.45,2.07,3.49,3.2l.03.02c1.1-1.67,2.24-3.09,3.55-4.64l-.37-.29-1.46,1.58c-.78-.41-1.64-1.12-2.25-1.84.21-7.52.45-9.82,2.7-12.58,1.1.29,2.13,1.27,2.13,2.06,0,.21,0,.6-.16.85l.36.23c.57-1.38,1.39-2.89,2.45-4.18-1.06-.59-2.09-1.29-3.15-2.3"/>
  <path class="cls-1" d="M104.55,32.68c-.28-.21-.4-.71-.4-.71-1.31,1.63-4.34,5.48-5.93,8.11l-.03-.38v-7.73s0,0,0,0c.06-2.13.02-4.13.03-4.37.14-.03,11.24-3.84,11.29-8.58.02-1.66-2.32-2.74-4.46-2.74-5.03-.02-9.39,3.27-9.8,10.96-6.14,1.66-15.14,4.65-23.13,2.34-1.71-.64-2.62-1.13-2.67-1.93-.02-.41.33-1.06,1.02-1.63-1.19-.36-2.06-1.08-2.92-1.91-.48,1.44-1.14,2.41-1.98,3.4.78.39,1.6.94,2.34,1.43,8,5.25,21.39.79,27.35-.68.05,1.47.12,2.62.12,4.12h.02c.02,1.1.05,3.3.05,3.68,0,.41.04,2,.04,3.68,0,9.07-.41,11.41-1.18,11.7,0,0,.57.17.69.17.28,0,2.17,1.55,2.17,1.76,0,.13.37.59.37.59,0-.42,2.09-2.47,2.86-3.43,0,0-.78.13-.94.13-.21,0-1.27-.63-1.27-1.67v-5.56c0-2.26,3.03-6.19,4.45-8.07l2.49,1.3c-.16,1.3-.25,2.51-.25,3.97s-.03,3.08-.07,4.67h-.01c-.08,2.95-.2,5.97-.2,9.34,0,4.1-.93,7.04-2.93,8.38l.16.33c2.14-.73,5.24-3.55,5.89-8.8h0c.07-.54.11-2.48.11-2.5,0-1.78-.02-4.08-.03-6.27,0-.16,0-.32,0-.48,0-.78,0-1.54,0-2.24,0-6.27.61-7.36,1.39-7.73,0,0-.48-.14-.75-.25-.27-.11-3.77-2.31-3.87-2.38M101.29,18.48l.3-.22c1.08-.82,1.78-.93,3.02-.94,1.39-.02,2.14.72,2.15,1.9.02,3.72-8.46,7.23-8.48,7.24.04-3.77,1.49-6.82,3.01-7.97"/>
  <path class="cls-2" d="M18.18,63.72c-1.38,0-2.68-1.08-2.68-2.68s1.16-2.76,2.67-2.76c1.39,0,2.24.82,2.48,1.06l-.55.48c-.23-.2-.88-.79-1.92-.79-.95,0-1.94.71-1.94,2.01,0,.93.74,1.93,2.13,1.93,1.09,0,1.66-.56,1.88-.84l.49.54c-.48.54-1.09,1.05-2.55,1.05"/>
  <path class="cls-2" d="M26.77,63.72c-1.38,0-2.16-.9-2.16-1.91s.78-1.91,2.16-1.91,2.16.9,2.16,1.91c0,1.01-.78,1.91-2.16,1.91M26.77,60.62c-.87,0-1.45.57-1.45,1.19s.58,1.19,1.45,1.19,1.45-.56,1.45-1.19c0-.63-.57-1.19-1.45-1.19"/>
  <polygon class="cls-2" points="36 63.61 34.07 61.18 34.06 61.18 34.06 63.61 33.35 63.61 33.35 60.01 34.06 60.01 35.99 62.44 36 62.44 36 60.01 36.71 60.01 36.71 63.61 36 63.61"/>
  <polygon class="cls-2" points="42.19 60.73 42.19 61.39 43.46 61.39 43.46 62.11 42.19 62.11 42.19 63.61 41.48 63.61 41.48 60.01 44.6 60.01 44.6 60.73 42.19 60.73"/>
  <rect class="cls-2" x="48.66" y="60.01" width=".7" height="3.6"/>
  <polygon class="cls-2" points="55.48 60.73 55.48 63.61 54.78 63.61 54.78 60.73 53.48 60.73 53.48 60.01 56.78 60.01 56.78 60.73 55.48 60.73"/>
  <polygon class="cls-2" points="60.83 63.61 60.83 60.01 63.95 60.01 63.95 60.73 61.54 60.73 61.54 61.39 62.81 61.39 62.81 62.11 61.54 62.11 61.54 62.89 64.03 62.89 64.03 63.61 60.83 63.61"/>
  <path class="cls-2" d="M70.88,63.61l-.89-1.47h-1.12v1.47h-.71v-3.6h2.24c.65,0,1.27.25,1.27,1.06,0,.69-.46.94-.79,1.06l.89,1.48h-.89ZM70.39,60.73h-1.53v.69h1.53c.21,0,.56-.03.56-.35,0-.33-.32-.34-.56-.34"/>
  <rect class="cls-2" x="75.89" y="60.01" width=".71" height="3.6"/>
  <path class="cls-2" d="M84,63.61l-.36-.76h-2.06l-.35.76h-.8l1.71-3.6h.93l1.72,3.6h-.8ZM82.62,60.71l-.68,1.42h1.35l-.68-1.42Z"/>
  <path class="cls-2" d="M90.22,63.72c-.95,0-1.65-.24-2.14-.63l.32-.65c.61.4,1.2.55,1.81.55.35,0,.95-.09.95-.49,0-.29-.31-.37-.53-.38l-1.06-.03c-.86-.03-1.28-.53-1.28-1.09s.39-1.11,1.64-1.11c.93,0,1.49.36,1.7.47l-.32.64c-.28-.15-.79-.39-1.49-.39-.37,0-.83.08-.83.4,0,.28.39.34.62.35l.91.03c.81.03,1.33.38,1.33,1.13,0,.64-.5,1.18-1.66,1.18"/>
  <path class="cls-2" d="M119.01,63.61h-2.2v-4.91h2.2c1.68,0,2.35,1.32,2.35,2.43,0,1.38-.98,2.48-2.35,2.48M119.01,59.41h-1.51v3.5h1.51c1.19,0,1.66-1.03,1.66-1.77,0-1.05-.7-1.73-1.66-1.73"/>
  <polygon class="cls-2" points="125.29 63.61 125.29 60.22 128.23 60.22 128.23 60.9 125.96 60.9 125.96 61.52 127.16 61.52 127.16 62.2 125.96 62.2 125.96 62.93 128.31 62.93 128.31 63.61 125.29 63.61"/>
  <path class="cls-2" d="M133.79,63.71c-.9,0-1.55-.23-2.02-.59l.31-.61c.58.38,1.13.51,1.71.51.33,0,.9-.09.9-.46,0-.27-.29-.35-.5-.35l-.99-.03c-.82-.02-1.21-.5-1.21-1.03s.37-1.04,1.55-1.04c.87,0,1.4.34,1.6.44l-.3.6c-.26-.14-.74-.37-1.4-.37-.35,0-.78.08-.78.38,0,.26.36.32.59.33l.86.03c.76.03,1.24.35,1.24,1.07,0,.61-.47,1.11-1.56,1.11"/>
  <path class="cls-2" d="M140.96,63.61h-1.8v-3.39h1.8c.76,0,1.68.38,1.68,1.64,0,1.12-.69,1.75-1.68,1.75M140.96,60.9h-1.13v2.03h1.13c.58,0,1.01-.34,1.01-1.03,0-.8-.49-1-1.01-1"/>
  <polygon class="cls-2" points="146.58 63.61 146.58 60.22 149.53 60.22 149.53 60.9 147.25 60.9 147.25 61.52 148.45 61.52 148.45 62.2 147.25 62.2 147.25 62.93 149.6 62.93 149.6 63.61 146.58 63.61"/>
  <rect class="cls-2" x="159.21" y="59.34" width=".69" height="4.27"/>
  <path class="cls-2" d="M166.7,63.71c-.99,0-1.59-.42-1.92-.64l.34-.59c.3.19.83.53,1.55.53,1.19,0,1.84-.83,1.9-1.49-.6.29-1.28.48-1.94.48-.99,0-2.04-.41-2.04-1.36,0-.52.62-1.4,2.17-1.4,1.01,0,2.5.55,2.5,2.18,0,1.3-1.14,2.29-2.56,2.29M166.75,59.95c-.93,0-1.46.44-1.46.69s.39.65,1.28.65c.8,0,1.41-.28,1.85-.49-.15-.28-.53-.86-1.67-.86"/>
  <rect class="cls-2" x="173.92" y="59.34" width=".69" height="4.27"/>
  <path class="cls-2" d="M181.63,63.71c-1.44,0-2.27-.48-2.27-1.33,0-.58.51-.86.83-1.05-.19-.16-.52-.41-.52-.97,0-.89,1.04-1.12,1.96-1.12,1.22,0,1.94.39,1.94,1.16,0,.54-.36.79-.53.92.36.18.85.44.85,1.09,0,.85-.91,1.29-2.26,1.29M181.63,61.7c-1.17,0-1.58.47-1.58.69,0,.46.98.62,1.58.62.62,0,1.57-.18,1.57-.62,0-.37-.69-.69-1.57-.69M181.63,59.95c-.91,0-1.28.22-1.28.49,0,.35.48.56,1.28.56s1.24-.28,1.24-.56c0-.25-.31-.49-1.24-.49"/>
</svg>