<?xml version="1.0" encoding="UTF-8"?>
<svg id="Capa_1" data-name="Capa 1" xmlns="http://www.w3.org/2000/svg" viewBox="0 0 124 80">
  <defs>
    <style>
      .cls-1 {
        fill: #005f5a;
      }

      .cls-2 {
        fill: #00d4b5;
      }
    </style>
  </defs>
  <g>
    <path class="cls-2" d="M15.15,14.52l-8.56.79-.77-8.33,25.68-2.36.77,8.33-8.56.79,2.21,24.06-8.56.79-2.21-24.06Z"/>
    <path class="cls-2" d="M38.19,2.54l13.02.54,10.32,35.55-10.02-.41-1.76-6.09-12.52-.52-2.25,5.93-10.02-.41L38.19,2.54ZM47.59,23.99l-2.82-10.65-1-.04-3.69,10.38,7.51.31Z"/>
    <path class="cls-2" d="M86.81,22.07c-.21,4.11-3.37,13.25-13.64,14.1-8.55.7-15.93-5.47-16.72-15.01s5.49-16.84,14.04-17.55c9.81-.81,14.86,7.43,15.74,11.45l-8.37.69c-.6-1.27-2.41-4.35-6.7-4-3.8.31-6.75,3.74-6.34,8.72.41,4.97,3.88,7.88,7.68,7.56,4.34-.36,5.76-4.12,5.94-5.27l8.37-.69Z"/>
    <path class="cls-2" d="M94.32,2.53l12.78.54,10.09,34.91-9.83-.42-1.72-5.99-12.29-.52-2.22,5.82-9.83-.42L94.32,2.53ZM103.52,23.61l-2.76-10.46-.98-.04-3.64,10.19,7.38.31Z"/>
  </g>
  <g>
    <path class="cls-1" d="M16.05,52.38l-8.93.82-.8-8.69,26.78-2.46.8,8.69-8.93.82,2.31,25.1-8.93.82-2.31-25.1Z"/>
    <path class="cls-1" d="M39.71,41.36l12.79.53,10.14,34.91-9.84-.41-1.72-5.98-12.3-.51-2.21,5.82-9.84-.41,12.98-33.95ZM48.94,62.43l-2.77-10.46-.98-.04-3.62,10.2,7.38.3Z"/>
    <path class="cls-1" d="M88.41,60.58c-.21,4.2-3.44,13.52-13.91,14.38-8.72.72-16.25-5.58-17.05-15.32-.8-9.73,5.6-17.18,14.32-17.9,10.01-.82,15.16,7.58,16.06,11.68l-8.54.7c-.62-1.3-2.46-4.44-6.84-4.08-3.88.32-6.89,3.82-6.47,8.89.42,5.08,3.96,8.04,7.84,7.72,4.43-.36,5.88-4.2,6.06-5.38l8.54-.7Z"/>
    <path class="cls-1" d="M95.8,41.35l12.51.53,9.87,34.15-9.62-.41-1.68-5.85-12.02-.51-2.17,5.69-9.62-.41,12.74-33.19ZM104.8,61.97l-2.7-10.23-.96-.04-3.56,9.97,7.21.31Z"/>
  </g>
</svg>