<?xml version="1.0" encoding="UTF-8"?>
<svg id="Capa_1" data-name="Capa 1" xmlns="http://www.w3.org/2000/svg" viewBox="0 0 101.5 131.12">
  <defs>
    <style>
      .cls-1 {
        fill: #1e1e1c;
      }
    </style>
  </defs>
  <path class="cls-1" d="M40.11,107.3h-22.4c-.96,0-1.75-.87-1.75-1.93v-24.65c0-1.06-.78-1.93-1.75-1.93H5.83c-1.16,0-2-1.23-1.67-2.47l4.61-17.65s.99-4.12.99-6.92C9.75,25.08,29.65,3.77,53.78,3.77s43.64,21.62,43.64,48.29c0,24.01-12.68,25.63-12.68,48.01,0,8.26,3.47,19.64,5.14,24.68.43,1.26-.43,2.6-1.65,2.6h-47.95c-1.11,0-1.95-1.15-1.7-2.38l3.24-15.29c.25-1.2-.58-2.38-1.72-2.38Z"/>
</svg>