<?xml version="1.0" encoding="UTF-8"?>
<svg id="Capa_1" data-name="Capa 1" xmlns="http://www.w3.org/2000/svg" viewBox="0 0 313.15 92.69">
  <polygon points="3.99 72.55 3.99 67.11 33.67 24 35.96 27.28 4.85 27.28 4.85 21.06 41.03 21.06 41.03 26.5 11.5 69.47 9.29 66.33 41.61 66.33 41.61 72.55 3.99 72.55"/>
  <path d="M54.05,27.28v-6.22h31.39v6.22h-31.39ZM54.05,49.02v-6.22h29.46v6.22h-29.46ZM54.05,72.55v-6.22h32.04v6.22h-32.04ZM50.33,72.55V21.06h7.58v51.49h-7.58Z"/>
  <rect x="95.65" y="21.06" width="7.58" height="51.49"/>
  <polygon points="113.8 72.55 113.8 21.06 122.6 21.06 149.92 65.11 148.2 65.47 148.2 21.06 155.49 21.06 155.49 72.55 146.7 72.55 119.38 28.5 121.1 28.14 121.1 72.55 113.8 72.55"/>
  <path d="M188.99,66.83c3.43,0,6.46-.86,9.08-2.57,2.62-1.76,4.67-4.17,6.15-7.22,1.53-3.05,2.29-6.55,2.29-10.51s-.74-7.34-2.22-10.3c-1.48-3-3.53-5.32-6.15-6.94-2.62-1.67-5.67-2.5-9.15-2.5s-6.53.83-9.15,2.5c-2.57,1.62-4.6,3.91-6.08,6.86-1.43,2.96-2.15,6.41-2.15,10.37s.74,7.53,2.22,10.58c1.48,3.05,3.5,5.44,6.08,7.15,2.62,1.72,5.65,2.57,9.08,2.57ZM189.06,73.26c-3.67,0-7.03-.64-10.08-1.93-3.05-1.33-5.7-3.19-7.94-5.58-2.24-2.38-4-5.2-5.29-8.44-1.24-3.24-1.86-6.82-1.86-10.73,0-5.15,1.07-9.7,3.22-13.66,2.15-3.96,5.1-7.03,8.87-9.22,3.81-2.24,8.15-3.36,13.01-3.36s9.32,1.12,13.09,3.36c3.77,2.19,6.72,5.27,8.87,9.22,2.19,3.96,3.29,8.53,3.29,13.73,0,3.86-.64,7.44-1.93,10.73-1.24,3.24-2.98,6.05-5.22,8.44-2.24,2.34-4.91,4.17-8.01,5.51-3.05,1.29-6.39,1.93-10.01,1.93Z"/>
  <polygon points="233.13 72.55 233.13 27.28 215.76 27.28 215.76 21.06 258.09 21.06 258.09 27.28 240.71 27.28 240.71 72.55 233.13 72.55"/>
  <path d="M280.06,23.31v-2.44h8.55v2.44h-8.55ZM280.06,16.64v-2.44h9.02v2.44h-9.02ZM278.55,29.13v-14.93h3.19v14.93h-3.19Z"/>
  <path d="M300.53,29.13v-14.93h3.19v14.93h-3.19ZM292.36,20.12h9.67v2.44h-9.67v-2.44ZM290.86,29.13v-14.93h3.19v14.93h-3.19Z"/>
  <path d="M290.86,4.72c-9.3,0-16.81,7.51-16.81,16.81s7.61,16.72,16.81,16.72,16.81-7.51,16.81-16.81-7.51-16.72-16.81-16.72ZM290.86,41.34c-10.89,0-19.82-8.92-19.82-19.91s8.92-19.82,19.82-19.82,19.82,8.92,19.82,19.82-8.83,19.91-19.82,19.91Z"/>
</svg>